<svg width="32" height="32" viewBox="0 0 32 32" fill="none" xmlns="http://www.w3.org/2000/svg">
<path d="M13.2683 6.2439C13.2683 5.81285 12.9185 5.46102 12.4882 5.48636C10.1381 5.62474 7.86202 6.38643 5.89683 7.69952C3.71487 9.15746 2.01424 11.2297 1.00999 13.6541C0.00574903 16.0786 -0.257007 18.7464 0.254952 21.3202C0.766912 23.894 2.03059 26.2582 3.8862 28.1138C5.7418 29.9694 8.10598 31.2331 10.6798 31.745C13.2536 32.257 15.9214 31.9943 18.3459 30.99C20.7703 29.9858 22.8425 28.2851 24.3005 26.1032C25.6136 24.138 26.3753 21.8619 26.5136 19.5118C26.539 19.0815 26.1872 18.7317 25.7561 18.7317H21.6798C21.2487 18.7317 20.9034 19.0821 20.8594 19.5109C20.7328 20.7448 20.3067 21.9334 19.6132 22.9712C18.7747 24.2262 17.5829 25.2042 16.1885 25.7818C14.7942 26.3594 13.2598 26.5105 11.7796 26.2161C10.2993 25.9216 8.93959 25.1948 7.87238 24.1276C6.80517 23.0604 6.07838 21.7007 5.78394 20.2204C5.4895 18.7402 5.64062 17.2058 6.21819 15.8115C6.79576 14.4171 7.77384 13.2253 9.02875 12.3868C10.0666 11.6933 11.2552 11.2672 12.4891 11.1406C12.9179 11.0966 13.2683 10.7513 13.2683 10.3202V6.2439Z" fill="#050F2A"/>
<path d="M15.6098 6.2439C15.6098 5.81285 15.9592 5.46341 16.3902 5.46341H20.2927C20.7237 5.46341 21.0732 5.81285 21.0732 6.2439V10.1463C21.0732 10.5774 20.7237 10.9268 20.2927 10.9268H16.3902C15.9592 10.9268 15.6098 10.5774 15.6098 10.1463V6.2439Z" fill="#050F2A"/>
<path d="M21.0732 0.780488C21.0732 0.349436 21.4226 0 21.8537 0H25.7561C26.1872 0 26.5366 0.349436 26.5366 0.780488V4.68293C26.5366 5.11398 26.1872 5.46341 25.7561 5.46341H21.8537C21.4226 5.46341 21.0732 5.11398 21.0732 4.68293V0.780488Z" fill="#050F2A"/>
<path d="M26.5366 6.2439C26.5366 5.81285 26.886 5.46341 27.3171 5.46341H31.2195C31.6506 5.46341 32 5.81285 32 6.2439V10.1463C32 10.5774 31.6506 10.9268 31.2195 10.9268H27.3171C26.886 10.9268 26.5366 10.5774 26.5366 10.1463V6.2439Z" fill="#050F2A"/>
<path d="M21.0732 11.7073C21.0732 11.2763 21.4226 10.9268 21.8537 10.9268H25.7561C26.1872 10.9268 26.5366 11.2763 26.5366 11.7073V15.6098C26.5366 16.0408 26.1872 16.3902 25.7561 16.3902H21.8537C21.4226 16.3902 21.0732 16.0408 21.0732 15.6098V11.7073Z" fill="#050F2A"/>
</svg>
