<svg width="16" height="16" viewBox="0 0 16 16" fill="none" xmlns="http://www.w3.org/2000/svg">
<path d="M6.63415 3.12195C6.63415 2.90642 6.45927 2.73051 6.24411 2.74318C5.06907 2.81237 3.93101 3.19321 2.94841 3.84976C1.85744 4.57873 1.00712 5.61484 0.504997 6.82707C0.00287451 8.03931 -0.128504 9.37321 0.127476 10.6601C0.383456 11.947 1.0153 13.1291 1.9431 14.0569C2.8709 14.9847 4.05299 15.6165 5.33989 15.8725C6.62679 16.1285 7.96069 15.9971 9.17293 15.495C10.3852 14.9929 11.4213 14.1426 12.1502 13.0516C12.8068 12.069 13.1876 10.9309 13.2568 9.75589C13.2695 9.54073 13.0936 9.36585 12.878 9.36585H10.8399C10.6244 9.36585 10.4517 9.54103 10.4297 9.75543C10.3664 10.3724 10.1533 10.9667 9.80661 11.4856C9.38736 12.1131 8.79146 12.6021 8.09427 12.8909C7.39708 13.1797 6.62992 13.2553 5.88978 13.108C5.14965 12.9608 4.46979 12.5974 3.93619 12.0638C3.40258 11.5302 3.03919 10.8503 2.89197 10.1102C2.74475 9.37008 2.82031 8.60292 3.10909 7.90573C3.39788 7.20854 3.88692 6.61264 4.51438 6.19339C5.0333 5.84665 5.62762 5.63362 6.24457 5.5703C6.45897 5.54829 6.63415 5.37564 6.63415 5.16012V3.12195Z" fill="#050F2A"/>
<path d="M7.80488 3.12195C7.80488 2.90642 7.9796 2.73171 8.19512 2.73171H10.1463C10.3619 2.73171 10.5366 2.90642 10.5366 3.12195V5.07317C10.5366 5.2887 10.3619 5.46341 10.1463 5.46341H8.19512C7.9796 5.46341 7.80488 5.2887 7.80488 5.07317V3.12195Z" fill="#050F2A"/>
<path d="M10.5366 0.390244C10.5366 0.174718 10.7113 0 10.9268 0H12.878C13.0936 0 13.2683 0.174718 13.2683 0.390244V2.34146C13.2683 2.55699 13.0936 2.73171 12.878 2.73171H10.9268C10.7113 2.73171 10.5366 2.55699 10.5366 2.34146V0.390244Z" fill="#050F2A"/>
<path d="M13.2683 3.12195C13.2683 2.90642 13.443 2.73171 13.6585 2.73171H15.6098C15.8253 2.73171 16 2.90642 16 3.12195V5.07317C16 5.2887 15.8253 5.46341 15.6098 5.46341H13.6585C13.443 5.46341 13.2683 5.2887 13.2683 5.07317V3.12195Z" fill="#050F2A"/>
<path d="M10.5366 5.85366C10.5366 5.63813 10.7113 5.46341 10.9268 5.46341H12.878C13.0936 5.46341 13.2683 5.63813 13.2683 5.85366V7.80488C13.2683 8.0204 13.0936 8.19512 12.878 8.19512H10.9268C10.7113 8.19512 10.5366 8.0204 10.5366 7.80488V5.85366Z" fill="#050F2A"/>
</svg>
