<svg width="512" height="512" viewBox="0 0 512 512" fill="none" xmlns="http://www.w3.org/2000/svg">
<path d="M212.293 99.9024C212.293 93.0056 206.697 87.3763 199.812 87.7817C162.21 89.9959 125.792 102.183 94.3493 123.192C59.4379 146.519 32.2278 179.675 16.1599 218.466C0.0919838 257.258 -4.11212 299.943 4.07924 341.124C12.2706 382.304 32.4895 420.131 62.1792 449.821C91.8688 479.51 129.696 499.729 170.876 507.921C212.057 516.112 254.742 511.908 293.534 495.84C332.325 479.772 365.481 452.562 388.808 417.651C409.817 386.208 422.004 349.79 424.218 312.188C424.624 305.303 418.994 299.707 412.098 299.707H346.876C339.979 299.707 334.455 305.313 333.75 312.174C331.724 331.916 324.907 350.934 313.812 367.54C300.396 387.618 281.327 403.268 259.017 412.509C236.707 421.75 212.157 424.168 188.473 419.457C164.789 414.746 143.033 403.117 125.958 386.042C108.883 368.967 97.2542 347.211 92.5431 323.527C87.832 299.843 90.2499 275.293 99.491 252.983C108.732 230.673 124.381 211.604 144.46 198.188C161.066 187.093 180.084 180.276 199.826 178.25C206.687 177.545 212.293 172.021 212.293 165.124V99.9024Z" fill="#FAFAFA"/>
<path d="M249.756 99.9024C249.756 93.0056 255.347 87.4146 262.244 87.4146H324.683C331.58 87.4146 337.171 93.0056 337.171 99.9024V162.341C337.171 169.238 331.58 174.829 324.683 174.829H262.244C255.347 174.829 249.756 169.238 249.756 162.341V99.9024Z" fill="#FAFAFA"/>
<path d="M337.171 12.4878C337.171 5.59098 342.762 0 349.659 0H412.098C418.994 0 424.585 5.59098 424.585 12.4878V74.9268C424.585 81.8236 418.994 87.4146 412.098 87.4146H349.659C342.762 87.4146 337.171 81.8236 337.171 74.9268V12.4878Z" fill="#FAFAFA"/>
<path d="M424.585 99.9024C424.585 93.0056 430.176 87.4146 437.073 87.4146H499.512C506.409 87.4146 512 93.0056 512 99.9024V162.341C512 169.238 506.409 174.829 499.512 174.829H437.073C430.176 174.829 424.585 169.238 424.585 162.341V99.9024Z" fill="#FAFAFA"/>
<path d="M337.171 187.317C337.171 180.42 342.762 174.829 349.659 174.829H412.098C418.994 174.829 424.585 180.42 424.585 187.317V249.756C424.585 256.653 418.994 262.244 412.098 262.244H349.659C342.762 262.244 337.171 256.653 337.171 249.756V187.317Z" fill="#FAFAFA"/>
</svg>
