<svg width="32" height="32" viewBox="0 0 32 32" fill="none" xmlns="http://www.w3.org/2000/svg">
<path d="M26 4.00049H6C5.46957 4.00049 4.96086 4.2112 4.58579 4.58627C4.21071 4.96135 4 5.47006 4 6.00049V26.0005C4 26.5309 4.21071 27.0396 4.58579 27.4147C4.96086 27.7898 5.46957 28.0005 6 28.0005H26C26.5304 28.0005 27.0391 27.7898 27.4142 27.4147C27.7893 27.0396 28 26.5309 28 26.0005V6.00049C28 5.47006 27.7893 4.96135 27.4142 4.58627C27.0391 4.2112 26.5304 4.00049 26 4.00049ZM26 26.0005H6V6.00049H26V26.0005ZM11.2925 20.708C11.1995 20.6151 11.1258 20.5048 11.0754 20.3834C11.0251 20.262 10.9992 20.1319 10.9992 20.0005C10.9992 19.8691 11.0251 19.7389 11.0754 19.6175C11.1258 19.4962 11.1995 19.3859 11.2925 19.293L17.5863 13.0005H14C13.7348 13.0005 13.4804 12.8951 13.2929 12.7076C13.1054 12.5201 13 12.2657 13 12.0005C13 11.7353 13.1054 11.4809 13.2929 11.2934C13.4804 11.1058 13.7348 11.0005 14 11.0005H20C20.2652 11.0005 20.5196 11.1058 20.7071 11.2934C20.8946 11.4809 21 11.7353 21 12.0005V18.0005C21 18.2657 20.8946 18.5201 20.7071 18.7076C20.5196 18.8951 20.2652 19.0005 20 19.0005C19.7348 19.0005 19.4804 18.8951 19.2929 18.7076C19.1054 18.5201 19 18.2657 19 18.0005V14.4142L12.7075 20.708C12.6146 20.801 12.5043 20.8747 12.3829 20.925C12.2615 20.9754 12.1314 21.0013 12 21.0013C11.8686 21.0013 11.7385 20.9754 11.6171 20.925C11.4957 20.8747 11.3854 20.801 11.2925 20.708Z" fill="currentColor"/>
</svg>
