<svg width="32" height="32" viewBox="0 0 32 32" fill="none" xmlns="http://www.w3.org/2000/svg">
<path d="M21 12.0005V18.0005C21 18.2657 20.8946 18.5201 20.7071 18.7076C20.5196 18.8951 20.2652 19.0005 20 19.0005C19.7348 19.0005 19.4804 18.8951 19.2929 18.7076C19.1054 18.5201 19 18.2657 19 18.0005V14.4142L12.7075 20.708C12.6146 20.8009 12.5043 20.8746 12.3829 20.9249C12.2615 20.9752 12.1314 21.001 12 21.001C11.8686 21.001 11.7385 20.9752 11.6171 20.9249C11.4957 20.8746 11.3854 20.8009 11.2925 20.708C11.1996 20.6151 11.1259 20.5048 11.0756 20.3834C11.0253 20.262 10.9994 20.1319 10.9994 20.0005C10.9994 19.8691 11.0253 19.739 11.0756 19.6176C11.1259 19.4962 11.1996 19.3859 11.2925 19.293L17.5863 13.0005H14C13.7348 13.0005 13.4804 12.8951 13.2929 12.7076C13.1054 12.5201 13 12.2657 13 12.0005C13 11.7353 13.1054 11.4809 13.2929 11.2934C13.4804 11.1058 13.7348 11.0005 14 11.0005H20C20.2652 11.0005 20.5196 11.1058 20.7071 11.2934C20.8946 11.4809 21 11.7353 21 12.0005ZM29 16.0005C29 18.5716 28.2376 21.0851 26.8091 23.2229C25.3807 25.3607 23.3503 27.027 20.9749 28.0109C18.5995 28.9949 15.9856 29.2523 13.4638 28.7507C10.9421 28.2491 8.6257 27.011 6.80762 25.1929C4.98953 23.3748 3.75141 21.0584 3.2498 18.5367C2.74819 16.0149 3.00563 13.401 3.98957 11.0256C4.97351 8.65016 6.63975 6.61984 8.77759 5.19138C10.9154 3.76293 13.4288 3.00049 16 3.00049C19.4467 3.00413 22.7512 4.37494 25.1884 6.81212C27.6256 9.2493 28.9964 12.5538 29 16.0005ZM27 16.0005C27 13.8249 26.3549 11.6982 25.1462 9.88922C23.9375 8.08027 22.2195 6.67038 20.2095 5.83781C18.1995 5.00525 15.9878 4.78741 13.854 5.21185C11.7202 5.63629 9.76021 6.68394 8.22183 8.22231C6.68345 9.76069 5.63581 11.7207 5.21137 13.8545C4.78693 15.9883 5.00477 18.2 5.83733 20.21C6.66989 22.22 8.07979 23.938 9.88873 25.1467C11.6977 26.3554 13.8244 27.0005 16 27.0005C18.9164 26.9972 21.7123 25.8372 23.7745 23.775C25.8367 21.7128 26.9967 18.9169 27 16.0005Z" fill="currentColor"/>
</svg>
