<svg width="32" height="32" viewBox="0 0 32 32" fill="none" xmlns="http://www.w3.org/2000/svg">
<path d="M27 9.87549V10.0005C27 11.3266 26.4732 12.5983 25.5355 13.536C24.5979 14.4737 23.3261 15.0005 22 15.0005H17V25.0005H18C18.4052 25.0007 18.8009 24.8778 19.1347 24.6481C19.4685 24.4184 19.7247 24.0928 19.8693 23.7142C20.0139 23.3357 20.0402 22.9222 19.9445 22.5284C19.8489 22.1347 19.6359 21.7793 19.3337 21.5092C19.1461 21.33 19.0355 21.0848 19.0253 20.8255C19.0151 20.5661 19.1062 20.313 19.2792 20.1196C19.4522 19.9262 19.6936 19.8075 19.9524 19.7888C20.2112 19.7701 20.4672 19.8527 20.6663 20.0192C21.27 20.5593 21.6955 21.2699 21.8865 22.0571C22.0776 22.8443 22.0251 23.6709 21.7361 24.4276C21.4471 25.1843 20.9352 25.8355 20.2681 26.2949C19.6009 26.7543 18.81 27.0004 18 27.0005H17V29.0005C17 29.2657 16.8946 29.5201 16.7071 29.7076C16.5196 29.8951 16.2652 30.0005 16 30.0005C15.7348 30.0005 15.4804 29.8951 15.2929 29.7076C15.1054 29.5201 15 29.2657 15 29.0005V27.0005H12C11.7348 27.0005 11.4804 26.8951 11.2929 26.7076C11.1054 26.5201 11 26.2657 11 26.0005C11 25.7353 11.1054 25.4809 11.2929 25.2934C11.4804 25.1058 11.7348 25.0005 12 25.0005H15V15.0005H12C11.4696 15.0005 10.9609 15.2112 10.5858 15.5863C10.2107 15.9613 10 16.4701 10 17.0005C10 17.5309 10.2107 18.0396 10.5858 18.4147C10.9609 18.7898 11.4696 19.0005 12 19.0005C12.2652 19.0005 12.5196 19.1058 12.7071 19.2934C12.8946 19.4809 13 19.7353 13 20.0005C13 20.2657 12.8946 20.5201 12.7071 20.7076C12.5196 20.8951 12.2652 21.0005 12 21.0005C10.9391 21.0005 9.92172 20.5791 9.17157 19.8289C8.42143 19.0788 8 18.0614 8 17.0005C8 15.9396 8.42143 14.9222 9.17157 14.1721C9.92172 13.4219 10.9391 13.0005 12 13.0005H15V3.00049C15 2.73527 15.1054 2.48092 15.2929 2.29338C15.4804 2.10585 15.7348 2.00049 16 2.00049C16.2652 2.00049 16.5196 2.10585 16.7071 2.29338C16.8946 2.48092 17 2.73527 17 3.00049V13.0005H22C22.7956 13.0005 23.5587 12.6844 24.1213 12.1218C24.6839 11.5592 25 10.7961 25 10.0005V9.87549C25 9.11299 24.6971 8.38172 24.1579 7.84256C23.6188 7.30339 22.8875 7.00049 22.125 7.00049H20C19.7348 7.00049 19.4804 6.89513 19.2929 6.70759C19.1054 6.52006 19 6.2657 19 6.00049C19 5.73527 19.1054 5.48092 19.2929 5.29338C19.4804 5.10585 19.7348 5.00049 20 5.00049H22.125C23.4179 5.00049 24.6579 5.5141 25.5721 6.42834C26.4864 7.34258 27 8.58256 27 9.87549ZM7 12.0005H4C3.73478 12.0005 3.48043 11.8951 3.29289 11.7076C3.10536 11.5201 3 11.2657 3 11.0005V10.0005C3 8.67441 3.52678 7.40264 4.46447 6.46495C5.40215 5.52727 6.67392 5.00049 8 5.00049H12C12.2652 5.00049 12.5196 5.10585 12.7071 5.29338C12.8946 5.48092 13 5.73527 13 6.00049C13 6.2657 12.8946 6.52006 12.7071 6.70759C12.5196 6.89513 12.2652 7.00049 12 7.00049C12 7.6571 11.8707 8.30728 11.6194 8.91391C11.3681 9.52053 10.9998 10.0717 10.5355 10.536C10.0712 11.0003 9.52004 11.3686 8.91342 11.6199C8.30679 11.8712 7.65661 12.0005 7 12.0005ZM10 7.00049H8C7.20435 7.00049 6.44129 7.31656 5.87868 7.87917C5.31607 8.44178 5 9.20484 5 10.0005H7C7.79565 10.0005 8.55871 9.68442 9.12132 9.12181C9.68393 8.5592 10 7.79614 10 7.00049Z" fill="#434344"/>
</svg>
