<svg width="32" height="32" viewBox="0 0 32 32" fill="none" xmlns="http://www.w3.org/2000/svg">
<path d="M31 26.0005H29V12.0005C29.2652 12.0005 29.5196 11.8951 29.7071 11.7076C29.8946 11.5201 30 11.2657 30 11.0005C30 10.7353 29.8946 10.4809 29.7071 10.2934C29.5196 10.1058 29.2652 10.0005 29 10.0005H23V6.00049C23.2652 6.00049 23.5196 5.89513 23.7071 5.70759C23.8946 5.52006 24 5.2657 24 5.00049C24 4.73527 23.8946 4.48092 23.7071 4.29338C23.5196 4.10585 23.2652 4.00049 23 4.00049H5C4.73478 4.00049 4.48043 4.10585 4.29289 4.29338C4.10536 4.48092 4 4.73527 4 5.00049C4 5.2657 4.10536 5.52006 4.29289 5.70759C4.48043 5.89513 4.73478 6.00049 5 6.00049V26.0005H3C2.73478 26.0005 2.48043 26.1058 2.29289 26.2934C2.10536 26.4809 2 26.7353 2 27.0005C2 27.2657 2.10536 27.5201 2.29289 27.7076C2.48043 27.8951 2.73478 28.0005 3 28.0005H31C31.2652 28.0005 31.5196 27.8951 31.7071 27.7076C31.8946 27.5201 32 27.2657 32 27.0005C32 26.7353 31.8946 26.4809 31.7071 26.2934C31.5196 26.1058 31.2652 26.0005 31 26.0005ZM27 12.0005V26.0005H23V12.0005H27ZM7 6.00049H21V26.0005H18V20.0005C18 19.7353 17.8946 19.4809 17.7071 19.2934C17.5196 19.1058 17.2652 19.0005 17 19.0005H11C10.7348 19.0005 10.4804 19.1058 10.2929 19.2934C10.1054 19.4809 10 19.7353 10 20.0005V26.0005H7V6.00049ZM16 26.0005H12V21.0005H16V26.0005ZM9 10.0005C9 9.73527 9.10536 9.48092 9.29289 9.29338C9.48043 9.10585 9.73478 9.00049 10 9.00049H12C12.2652 9.00049 12.5196 9.10585 12.7071 9.29338C12.8946 9.48092 13 9.73527 13 10.0005C13 10.2657 12.8946 10.5201 12.7071 10.7076C12.5196 10.8951 12.2652 11.0005 12 11.0005H10C9.73478 11.0005 9.48043 10.8951 9.29289 10.7076C9.10536 10.5201 9 10.2657 9 10.0005ZM15 10.0005C15 9.73527 15.1054 9.48092 15.2929 9.29338C15.4804 9.10585 15.7348 9.00049 16 9.00049H18C18.2652 9.00049 18.5196 9.10585 18.7071 9.29338C18.8946 9.48092 19 9.73527 19 10.0005C19 10.2657 18.8946 10.5201 18.7071 10.7076C18.5196 10.8951 18.2652 11.0005 18 11.0005H16C15.7348 11.0005 15.4804 10.8951 15.2929 10.7076C15.1054 10.5201 15 10.2657 15 10.0005ZM9 15.0005C9 14.7353 9.10536 14.4809 9.29289 14.2934C9.48043 14.1058 9.73478 14.0005 10 14.0005H12C12.2652 14.0005 12.5196 14.1058 12.7071 14.2934C12.8946 14.4809 13 14.7353 13 15.0005C13 15.2657 12.8946 15.5201 12.7071 15.7076C12.5196 15.8951 12.2652 16.0005 12 16.0005H10C9.73478 16.0005 9.48043 15.8951 9.29289 15.7076C9.10536 15.5201 9 15.2657 9 15.0005ZM15 15.0005C15 14.7353 15.1054 14.4809 15.2929 14.2934C15.4804 14.1058 15.7348 14.0005 16 14.0005H18C18.2652 14.0005 18.5196 14.1058 18.7071 14.2934C18.8946 14.4809 19 14.7353 19 15.0005C19 15.2657 18.8946 15.5201 18.7071 15.7076C18.5196 15.8951 18.2652 16.0005 18 16.0005H16C15.7348 16.0005 15.4804 15.8951 15.2929 15.7076C15.1054 15.5201 15 15.2657 15 15.0005Z" fill="currentColor"/>
</svg>
