<svg width="32" height="32" viewBox="0 0 32 32" fill="none" xmlns="http://www.w3.org/2000/svg">
<path d="M26 4.00049H23V3.00049C23 2.73527 22.8946 2.48092 22.7071 2.29338C22.5196 2.10585 22.2652 2.00049 22 2.00049C21.7348 2.00049 21.4804 2.10585 21.2929 2.29338C21.1054 2.48092 21 2.73527 21 3.00049V4.00049H11V3.00049C11 2.73527 10.8946 2.48092 10.7071 2.29338C10.5196 2.10585 10.2652 2.00049 10 2.00049C9.73478 2.00049 9.48043 2.10585 9.29289 2.29338C9.10536 2.48092 9 2.73527 9 3.00049V4.00049H6C5.46957 4.00049 4.96086 4.2112 4.58579 4.58627C4.21071 4.96135 4 5.47006 4 6.00049V26.0005C4 26.5309 4.21071 27.0396 4.58579 27.4147C4.96086 27.7898 5.46957 28.0005 6 28.0005H26C26.5304 28.0005 27.0391 27.7898 27.4142 27.4147C27.7893 27.0396 28 26.5309 28 26.0005V6.00049C28 5.47006 27.7893 4.96135 27.4142 4.58627C27.0391 4.2112 26.5304 4.00049 26 4.00049ZM9 6.00049V7.00049C9 7.2657 9.10536 7.52006 9.29289 7.70759C9.48043 7.89513 9.73478 8.00049 10 8.00049C10.2652 8.00049 10.5196 7.89513 10.7071 7.70759C10.8946 7.52006 11 7.2657 11 7.00049V6.00049H21V7.00049C21 7.2657 21.1054 7.52006 21.2929 7.70759C21.4804 7.89513 21.7348 8.00049 22 8.00049C22.2652 8.00049 22.5196 7.89513 22.7071 7.70759C22.8946 7.52006 23 7.2657 23 7.00049V6.00049H26V10.0005H6V6.00049H9ZM26 26.0005H6V12.0005H26V26.0005ZM17.5 16.5005C17.5 16.7972 17.412 17.0872 17.2472 17.3338C17.0824 17.5805 16.8481 17.7728 16.574 17.8863C16.2999 17.9998 15.9983 18.0295 15.7074 17.9717C15.4164 17.9138 15.1491 17.7709 14.9393 17.5611C14.7296 17.3514 14.5867 17.0841 14.5288 16.7931C14.4709 16.5022 14.5006 16.2006 14.6142 15.9265C14.7277 15.6524 14.92 15.4181 15.1666 15.2533C15.4133 15.0885 15.7033 15.0005 16 15.0005C16.3978 15.0005 16.7794 15.1585 17.0607 15.4398C17.342 15.7211 17.5 16.1027 17.5 16.5005ZM23 16.5005C23 16.7972 22.912 17.0872 22.7472 17.3338C22.5824 17.5805 22.3481 17.7728 22.074 17.8863C21.7999 17.9998 21.4983 18.0295 21.2074 17.9717C20.9164 17.9138 20.6491 17.7709 20.4393 17.5611C20.2296 17.3514 20.0867 17.0841 20.0288 16.7931C19.9709 16.5022 20.0007 16.2006 20.1142 15.9265C20.2277 15.6524 20.42 15.4181 20.6666 15.2533C20.9133 15.0885 21.2033 15.0005 21.5 15.0005C21.8978 15.0005 22.2794 15.1585 22.5607 15.4398C22.842 15.7211 23 16.1027 23 16.5005ZM12 21.5005C12 21.7972 11.912 22.0872 11.7472 22.3338C11.5824 22.5805 11.3481 22.7728 11.074 22.8863C10.7999 22.9998 10.4983 23.0295 10.2074 22.9717C9.91639 22.9138 9.64912 22.7709 9.43934 22.5611C9.22956 22.3514 9.0867 22.0841 9.02882 21.7931C8.97094 21.5022 9.00065 21.2006 9.11418 20.9265C9.22771 20.6524 9.41997 20.4181 9.66665 20.2533C9.91332 20.0885 10.2033 20.0005 10.5 20.0005C10.8978 20.0005 11.2794 20.1585 11.5607 20.4398C11.842 20.7211 12 21.1027 12 21.5005ZM17.5 21.5005C17.5 21.7972 17.412 22.0872 17.2472 22.3338C17.0824 22.5805 16.8481 22.7728 16.574 22.8863C16.2999 22.9998 15.9983 23.0295 15.7074 22.9717C15.4164 22.9138 15.1491 22.7709 14.9393 22.5611C14.7296 22.3514 14.5867 22.0841 14.5288 21.7931C14.4709 21.5022 14.5006 21.2006 14.6142 20.9265C14.7277 20.6524 14.92 20.4181 15.1666 20.2533C15.4133 20.0885 15.7033 20.0005 16 20.0005C16.3978 20.0005 16.7794 20.1585 17.0607 20.4398C17.342 20.7211 17.5 21.1027 17.5 21.5005ZM23 21.5005C23 21.7972 22.912 22.0872 22.7472 22.3338C22.5824 22.5805 22.3481 22.7728 22.074 22.8863C21.7999 22.9998 21.4983 23.0295 21.2074 22.9717C20.9164 22.9138 20.6491 22.7709 20.4393 22.5611C20.2296 22.3514 20.0867 22.0841 20.0288 21.7931C19.9709 21.5022 20.0007 21.2006 20.1142 20.9265C20.2277 20.6524 20.42 20.4181 20.6666 20.2533C20.9133 20.0885 21.2033 20.0005 21.5 20.0005C21.8978 20.0005 22.2794 20.1585 22.5607 20.4398C22.842 20.7211 23 21.1027 23 21.5005Z" fill="currentColor"/>
</svg>
