<svg width="32" height="32" viewBox="0 0 32 32" fill="none" xmlns="http://www.w3.org/2000/svg">
<path d="M26.7071 12.7081L16.7071 22.7081C16.6142 22.801 16.5039 22.8748 16.3825 22.9251C16.2611 22.9754 16.131 23.0013 15.9996 23.0013C15.8682 23.0013 15.738 22.9754 15.6166 22.9251C15.4952 22.8748 15.385 22.801 15.2921 22.7081L5.29208 12.7081C5.10444 12.5204 4.99902 12.2659 4.99902 12.0006C4.99902 11.7352 5.10444 11.4807 5.29208 11.2931C5.47972 11.1054 5.73422 11 5.99958 11C6.26494 11 6.51944 11.1054 6.70708 11.2931L15.9996 20.5868L25.2921 11.2931C25.385 11.2001 25.4953 11.1264 25.6167 11.0762C25.7381 11.0259 25.8682 11 25.9996 11C26.131 11 26.2611 11.0259 26.3825 11.0762C26.5039 11.1264 26.6142 11.2001 26.7071 11.2931C26.8 11.386 26.8737 11.4963 26.924 11.6177C26.9743 11.7391 27.0001 11.8692 27.0001 12.0006C27.0001 12.132 26.9743 12.2621 26.924 12.3835C26.8737 12.5048 26.8 12.6151 26.7071 12.7081Z" fill="currentColor"/>
</svg>
