<svg width="32" height="32" viewBox="0 0 32 32" fill="none" xmlns="http://www.w3.org/2000/svg">
<path d="M12.5002 14.5541C12.6522 14.4663 12.7785 14.3401 12.8663 14.188C12.954 14.0359 13.0002 13.8634 13.0002 13.6879V4.68787C12.9993 4.52843 12.9603 4.37153 12.8864 4.23023C12.8126 4.08893 12.706 3.96735 12.5756 3.8756C12.4452 3.78386 12.2948 3.72463 12.1368 3.70284C11.9789 3.68106 11.818 3.69735 11.6677 3.75037C8.74891 4.78338 6.29433 6.82367 4.7452 9.50445C3.19608 12.1852 2.65401 15.3307 3.21643 18.3754C3.24559 18.5328 3.31212 18.681 3.41044 18.8073C3.50876 18.9337 3.63599 19.0346 3.78143 19.1016C3.9125 19.1629 4.05549 19.1945 4.20018 19.1941C4.3757 19.1942 4.54814 19.1481 4.70018 19.0604L12.5002 14.5541ZM11.0002 6.20287V13.1104L5.01518 16.5641C5.00018 16.3754 5.00018 16.1854 5.00018 16.0004C5.00196 13.9733 5.56305 11.9861 6.62168 10.2574C7.6803 8.52877 9.19541 7.12576 11.0002 6.20287ZM16.0002 3.00037C15.735 3.00037 15.4806 3.10572 15.2931 3.29326C15.1055 3.4808 15.0002 3.73515 15.0002 4.00037V15.4779L5.14893 21.2166C5.03462 21.2829 4.93457 21.3712 4.85457 21.4763C4.77456 21.5815 4.7162 21.7015 4.68284 21.8293C4.64948 21.9572 4.64179 22.0904 4.66022 22.2212C4.67864 22.3521 4.72281 22.4779 4.79018 22.5916C5.94482 24.5545 7.59482 26.1796 9.575 27.3043C11.5552 28.429 13.7961 29.0138 16.0733 29.0001C18.3506 28.9865 20.5843 28.3748 22.5508 27.2265C24.5174 26.0781 26.1478 24.4333 27.2788 22.4567C28.4098 20.4801 29.0017 18.2411 28.9953 15.9638C28.9889 13.6865 28.3844 11.4509 27.2423 9.48066C26.1002 7.51046 24.4606 5.87485 22.4876 4.73756C20.5146 3.60027 18.2775 3.00122 16.0002 3.00037ZM16.0002 27.0004C14.2545 26.9957 12.5347 26.5778 10.9815 25.7809C9.42832 24.984 8.08585 23.8307 7.06393 22.4154L16.5039 16.9154C16.6558 16.8277 16.7819 16.7016 16.8697 16.5498C16.9575 16.398 17.0038 16.2257 17.0039 16.0504V5.04537C19.8245 5.30127 22.4376 6.63517 24.2993 8.76937C26.161 10.9036 27.1279 13.6736 26.9985 16.5028C26.8692 19.3319 25.6536 22.0022 23.6049 23.9576C21.5562 25.913 18.8323 27.0029 16.0002 27.0004Z" fill="currentColor"/>
</svg>
