<svg width="32" height="32" viewBox="0 0 32 32" fill="none" xmlns="http://www.w3.org/2000/svg">
<path d="M15.9997 3.00037C15.7345 3.00037 15.4802 3.10572 15.2926 3.29326C15.1051 3.4808 14.9997 3.73515 14.9997 4.00037V11.0004C14.9997 11.2656 15.1051 11.5199 15.2926 11.7075C15.4802 11.895 15.7345 12.0004 15.9997 12.0004C16.8802 12.0006 17.7361 12.2913 18.4345 12.8274C19.1329 13.3636 19.635 14.1152 19.8627 14.9657C20.0905 15.8163 20.0312 16.7182 19.6941 17.5316C19.3571 18.345 18.761 19.0245 17.9984 19.4647C17.2359 19.9049 16.3494 20.0811 15.4764 19.9661C14.6034 19.8511 13.7928 19.4513 13.1703 18.8286C12.5477 18.206 12.1479 17.3953 12.033 16.5224C11.9181 15.6494 12.0945 14.7629 12.5347 14.0004C12.6004 13.8866 12.6431 13.761 12.6602 13.6308C12.6773 13.5006 12.6687 13.3682 12.6346 13.2414C12.6006 13.1145 12.542 12.9956 12.462 12.8914C12.382 12.7872 12.2823 12.6998 12.1685 12.6341L6.10598 9.13412C5.99223 9.06843 5.86666 9.0258 5.73642 9.00865C5.60619 8.99151 5.47386 9.00019 5.34699 9.0342C5.22011 9.06821 5.10118 9.12689 4.99699 9.20687C4.89279 9.28686 4.80538 9.38659 4.73973 9.50037C3.3089 11.9786 2.73578 14.8598 3.10925 17.697C3.48273 20.5342 4.78194 23.1689 6.80538 25.1925C8.82883 27.216 11.4634 28.5154 14.3006 28.8891C17.1378 29.2627 20.019 28.6898 22.4973 27.2591C24.9757 25.8284 26.9128 23.62 28.0081 20.9762C29.1034 18.3325 29.2958 15.4012 28.5554 12.6369C27.815 9.87269 26.1832 7.42999 23.9131 5.68766C21.643 3.94533 18.8614 3.00073 15.9997 3.00037ZM6.01098 11.3879L10.3747 13.9079C10.1264 14.5775 9.99943 15.2861 9.99973 16.0004C9.99973 16.1916 10.0097 16.3754 10.0272 16.5654L5.15973 17.8754C4.78015 15.6766 5.07698 13.4143 6.01098 11.3879ZM5.67723 19.8016L10.5522 18.4966C10.9598 19.3851 11.5779 20.1607 12.3528 20.7565C13.1278 21.3522 14.0364 21.75 14.9997 21.9154V26.9541C12.9295 26.7622 10.9558 25.9889 9.30622 24.7233C7.65669 23.4577 6.39863 21.7515 5.67723 19.8016ZM16.9997 26.9541V21.9154C18.3973 21.6785 19.6658 20.9545 20.5805 19.8717C21.4952 18.7889 21.997 17.4172 21.997 15.9997C21.997 14.5823 21.4952 13.2106 20.5805 12.1278C19.6658 11.045 18.3973 10.321 16.9997 10.0841V5.04537C19.7325 5.29504 22.2732 6.55711 24.1232 8.58385C25.9732 10.6106 26.9989 13.2556 26.9989 15.9997C26.9989 18.7439 25.9732 21.3889 24.1232 23.4156C22.2732 25.4424 19.7325 26.7044 16.9997 26.9541Z" fill="currentColor"/>
</svg>
