<svg width="32" height="32" viewBox="0 0 32 32" fill="none" xmlns="http://www.w3.org/2000/svg">
<path d="M29 26.0004C29 26.2656 28.8946 26.5199 28.7071 26.7075C28.5196 26.895 28.2652 27.0004 28 27.0004H4C3.73478 27.0004 3.48043 26.895 3.29289 26.7075C3.10536 26.5199 3 26.2656 3 26.0004V6.00037C3 5.73515 3.10536 5.4808 3.29289 5.29326C3.48043 5.10572 3.73478 5.00037 4 5.00037C4.26522 5.00037 4.51957 5.10572 4.70711 5.29326C4.89464 5.4808 5 5.73515 5 6.00037V17.7966L11.3413 12.2504C11.5138 12.0993 11.733 12.0122 11.9622 12.0035C12.1914 11.9949 12.4166 12.0652 12.6 12.2029L19.9513 17.7166L27.3412 11.2504C27.4381 11.1545 27.5536 11.0794 27.6806 11.0297C27.8076 10.9801 27.9434 10.9569 28.0796 10.9617C28.2159 10.9664 28.3497 10.999 28.4729 11.0574C28.5961 11.1157 28.7061 11.1987 28.7961 11.3011C28.8861 11.4036 28.9541 11.5233 28.9961 11.653C29.0381 11.7827 29.0532 11.9197 29.0403 12.0554C29.0274 12.1911 28.9869 12.3228 28.9213 12.4423C28.8557 12.5618 28.7664 12.6667 28.6588 12.7504L20.6588 19.7504C20.4862 19.9014 20.267 19.9886 20.0378 19.9972C19.8086 20.0059 19.5835 19.9355 19.4 19.7979L12.0487 14.2866L5 20.4541V25.0004H28C28.2652 25.0004 28.5196 25.1057 28.7071 25.2933C28.8946 25.4808 29 25.7351 29 26.0004Z" fill="currentColor"/>
</svg>
