<svg width="32" height="32" viewBox="0 0 32 32" fill="none" xmlns="http://www.w3.org/2000/svg">
<path d="M21.7075 12.293C21.8005 12.3859 21.8742 12.4962 21.9246 12.6175C21.9749 12.7389 22.0008 12.8691 22.0008 13.0005C22.0008 13.1319 21.9749 13.262 21.9246 13.3834C21.8742 13.5048 21.8005 13.6151 21.7075 13.708L14.7075 20.708C14.6146 20.801 14.5043 20.8747 14.3829 20.925C14.2615 20.9754 14.1314 21.0013 14 21.0013C13.8686 21.0013 13.7385 20.9754 13.6171 20.925C13.4957 20.8747 13.3854 20.801 13.2925 20.708L10.2925 17.708C10.1049 17.5203 9.99945 17.2659 9.99945 17.0005C9.99945 16.7351 10.1049 16.4806 10.2925 16.293C10.4801 16.1053 10.7346 15.9999 11 15.9999C11.2654 15.9999 11.5199 16.1053 11.7075 16.293L14 18.5867L20.2925 12.293C20.3854 12.2 20.4957 12.1263 20.6171 12.0759C20.7385 12.0256 20.8686 11.9997 21 11.9997C21.1314 11.9997 21.2615 12.0256 21.3829 12.0759C21.5043 12.1263 21.6146 12.2 21.7075 12.293ZM29 16.0005C29 18.5716 28.2376 21.0851 26.8091 23.2229C25.3807 25.3607 23.3503 27.027 20.9749 28.0109C18.5995 28.9949 15.9856 29.2523 13.4638 28.7507C10.9421 28.2491 8.6257 27.011 6.80762 25.1929C4.98953 23.3748 3.75141 21.0584 3.2498 18.5367C2.74819 16.0149 3.00563 13.401 3.98957 11.0256C4.97351 8.65016 6.63975 6.61984 8.77759 5.19138C10.9154 3.76293 13.4288 3.00049 16 3.00049C19.4467 3.00413 22.7512 4.37494 25.1884 6.81212C27.6256 9.2493 28.9964 12.5538 29 16.0005ZM27 16.0005C27 13.8249 26.3549 11.6982 25.1462 9.88922C23.9375 8.08027 22.2195 6.67038 20.2095 5.83781C18.1995 5.00525 15.9878 4.78741 13.854 5.21185C11.7202 5.63629 9.76021 6.68394 8.22183 8.22231C6.68345 9.76069 5.63581 11.7207 5.21137 13.8545C4.78693 15.9883 5.00477 18.2 5.83733 20.21C6.66989 22.22 8.07979 23.938 9.88873 25.1467C11.6977 26.3554 13.8244 27.0005 16 27.0005C18.9164 26.9972 21.7123 25.8372 23.7745 23.775C25.8367 21.7128 26.9967 18.9169 27 16.0005Z" fill="currentColor"/>
</svg>
