<svg width="32" height="32" viewBox="0 0 32 32" fill="none" xmlns="http://www.w3.org/2000/svg">
<path d="M10 5.00049C9.0111 5.00049 8.0444 5.29374 7.22215 5.84314C6.39991 6.39255 5.75904 7.17344 5.3806 8.08707C5.00217 9.0007 4.90315 10.006 5.09608 10.9759C5.289 11.9458 5.76521 12.8368 6.46447 13.536C7.16373 14.2353 8.05465 14.7115 9.02455 14.9044C9.99446 15.0973 10.9998 14.9983 11.9134 14.6199C12.827 14.2415 13.6079 13.6006 14.1573 12.7783C14.7068 11.9561 15 10.9894 15 10.0005C15 8.67441 14.4732 7.40264 13.5355 6.46496C12.5979 5.52727 11.3261 5.00049 10 5.00049ZM10 13.0005C9.40666 13.0005 8.82664 12.8245 8.33329 12.4949C7.83994 12.1653 7.45543 11.6967 7.22836 11.1485C7.0013 10.6004 6.94189 9.99716 7.05765 9.41522C7.1734 8.83328 7.45912 8.29873 7.87868 7.87917C8.29824 7.45961 8.83279 7.17389 9.41473 7.05813C9.99667 6.94238 10.5999 7.00179 11.1481 7.22885C11.6962 7.45591 12.1648 7.84043 12.4944 8.33378C12.8241 8.82713 13 9.40715 13 10.0005C13 10.7961 12.6839 11.5592 12.1213 12.1218C11.5587 12.6844 10.7957 13.0005 10 13.0005ZM22 15.0005C22.9889 15.0005 23.9556 14.7072 24.7779 14.1578C25.6001 13.6084 26.241 12.8275 26.6194 11.9139C26.9978 11.0003 27.0969 9.99494 26.9039 9.02504C26.711 8.05513 26.2348 7.16422 25.5355 6.46496C24.8363 5.76569 23.9454 5.28949 22.9755 5.09656C22.0055 4.90364 21.0002 5.00265 20.0866 5.38109C19.173 5.75953 18.3921 6.40039 17.8427 7.22264C17.2932 8.04489 17 9.01158 17 10.0005C17 11.3266 17.5268 12.5983 18.4645 13.536C19.4022 14.4737 20.6739 15.0005 22 15.0005ZM22 7.00049C22.5933 7.00049 23.1734 7.17644 23.6667 7.50608C24.1601 7.83573 24.5446 8.30426 24.7716 8.85244C24.9987 9.40062 25.0581 10.0038 24.9424 10.5858C24.8266 11.1677 24.5409 11.7023 24.1213 12.1218C23.7018 12.5414 23.1672 12.8271 22.5853 12.9428C22.0033 13.0586 21.4001 12.9992 20.852 12.7721C20.3038 12.5451 19.8352 12.1605 19.5056 11.6672C19.1759 11.1739 19 10.5938 19 10.0005C19 9.20484 19.3161 8.44178 19.8787 7.87917C20.4413 7.31656 21.2044 7.00049 22 7.00049ZM10 17.0005C9.0111 17.0005 8.0444 17.2937 7.22215 17.8431C6.39991 18.3925 5.75904 19.1734 5.3806 20.0871C5.00217 21.0007 4.90315 22.006 5.09608 22.9759C5.289 23.9458 5.76521 24.8368 6.46447 25.536C7.16373 26.2353 8.05465 26.7115 9.02455 26.9044C9.99446 27.0973 10.9998 26.9983 11.9134 26.6199C12.827 26.2414 13.6079 25.6006 14.1573 24.7783C14.7068 23.9561 15 22.9894 15 22.0005C15 20.6744 14.4732 19.4026 13.5355 18.465C12.5979 17.5273 11.3261 17.0005 10 17.0005ZM10 25.0005C9.40666 25.0005 8.82664 24.8245 8.33329 24.4949C7.83994 24.1653 7.45543 23.6967 7.22836 23.1485C7.0013 22.6004 6.94189 21.9972 7.05765 21.4152C7.1734 20.8333 7.45912 20.2987 7.87868 19.8792C8.29824 19.4596 8.83279 19.1739 9.41473 19.0581C9.99667 18.9424 10.5999 19.0018 11.1481 19.2289C11.6962 19.4559 12.1648 19.8404 12.4944 20.3338C12.8241 20.8271 13 21.4071 13 22.0005C13 22.7961 12.6839 23.5592 12.1213 24.1218C11.5587 24.6844 10.7957 25.0005 10 25.0005ZM22 17.0005C21.0111 17.0005 20.0444 17.2937 19.2222 17.8431C18.3999 18.3925 17.759 19.1734 17.3806 20.0871C17.0022 21.0007 16.9031 22.006 17.0961 22.9759C17.289 23.9458 17.7652 24.8368 18.4645 25.536C19.1637 26.2353 20.0546 26.7115 21.0245 26.9044C21.9945 27.0973 22.9998 26.9983 23.9134 26.6199C24.8271 26.2414 25.6079 25.6006 26.1574 24.7783C26.7068 23.9561 27 22.9894 27 22.0005C27 20.6744 26.4732 19.4026 25.5355 18.465C24.5979 17.5273 23.3261 17.0005 22 17.0005ZM22 25.0005C21.4067 25.0005 20.8266 24.8245 20.3333 24.4949C19.8399 24.1653 19.4554 23.6967 19.2284 23.1485C19.0013 22.6004 18.9419 21.9972 19.0576 21.4152C19.1734 20.8333 19.4591 20.2987 19.8787 19.8792C20.2982 19.4596 20.8328 19.1739 21.4147 19.0581C21.9967 18.9424 22.5999 19.0018 23.1481 19.2289C23.6962 19.4559 24.1648 19.8404 24.4944 20.3338C24.8241 20.8271 25 21.4071 25 22.0005C25 22.7961 24.6839 23.5592 24.1213 24.1218C23.5587 24.6844 22.7957 25.0005 22 25.0005Z" fill="#434344"/>
</svg>
