<svg width="32" height="32" viewBox="0 0 32 32" fill="none" xmlns="http://www.w3.org/2000/svg">
<path d="M27.96 8.26926L16.96 2.25051C16.6661 2.08811 16.3358 2.00293 16 2.00293C15.6642 2.00293 15.3339 2.08811 15.04 2.25051L4.04 8.27176C3.72586 8.44364 3.46363 8.69671 3.28069 9.00454C3.09775 9.31237 3.00081 9.66367 3 10.0218V21.9768C3.00081 22.3348 3.09775 22.6861 3.28069 22.994C3.46363 23.3018 3.72586 23.5549 4.04 23.7268L15.04 29.748C15.3339 29.9104 15.6642 29.9956 16 29.9956C16.3358 29.9956 16.6661 29.9104 16.96 29.748L27.96 23.7268C28.2741 23.5549 28.5364 23.3018 28.7193 22.994C28.9023 22.6861 28.9992 22.3348 29 21.9768V10.023C28.9999 9.66429 28.9032 9.3122 28.7203 9.00365C28.5373 8.69511 28.2747 8.44145 27.96 8.26926ZM16 4.00051L26.0425 9.50051L16 15.0005L5.9575 9.50051L16 4.00051ZM5 11.2505L15 16.723V27.4468L5 21.978V11.2505ZM17 27.4468V16.728L27 11.2505V21.973L17 27.4468Z" fill="currentColor"/>
</svg>
