<svg width="32" height="32" viewBox="0 0 32 32" fill="none" xmlns="http://www.w3.org/2000/svg">
<path d="M16 3.00049C13.4288 3.00049 10.9154 3.76293 8.77759 5.19138C6.63975 6.61984 4.97351 8.65016 3.98957 11.0256C3.00563 13.401 2.74819 16.0149 3.2498 18.5367C3.75141 21.0584 4.98953 23.3748 6.80762 25.1929C8.6257 27.011 10.9421 28.2491 13.4638 28.7507C15.9856 29.2523 18.5995 28.9949 20.9749 28.0109C23.3503 27.027 25.3807 25.3607 26.8091 23.2229C28.2376 21.0851 29 18.5716 29 16.0005C28.9964 12.5538 27.6256 9.2493 25.1884 6.81212C22.7512 4.37494 19.4467 3.00413 16 3.00049ZM16 27.0005C13.8244 27.0005 11.6977 26.3554 9.88873 25.1467C8.07979 23.938 6.66989 22.22 5.83733 20.21C5.00477 18.2 4.78693 15.9883 5.21137 13.8545C5.63581 11.7207 6.68345 9.76069 8.22183 8.22231C9.76021 6.68394 11.7202 5.63629 13.854 5.21185C15.9878 4.78741 18.1995 5.00525 20.2095 5.83781C22.2195 6.67038 23.9375 8.08027 25.1462 9.88922C26.3549 11.6982 27 13.8249 27 16.0005C26.9967 18.9169 25.8367 21.7128 23.7745 23.775C21.7123 25.8372 18.9164 26.9972 16 27.0005ZM21 18.5005C21 19.4287 20.6313 20.319 19.9749 20.9754C19.3185 21.6317 18.4283 22.0005 17.5 22.0005H17V23.0005C17 23.2657 16.8946 23.5201 16.7071 23.7076C16.5196 23.8951 16.2652 24.0005 16 24.0005C15.7348 24.0005 15.4804 23.8951 15.2929 23.7076C15.1054 23.5201 15 23.2657 15 23.0005V22.0005H13C12.7348 22.0005 12.4804 21.8951 12.2929 21.7076C12.1054 21.5201 12 21.2657 12 21.0005C12 20.7353 12.1054 20.4809 12.2929 20.2934C12.4804 20.1058 12.7348 20.0005 13 20.0005H17.5C17.8978 20.0005 18.2794 19.8425 18.5607 19.5611C18.842 19.2798 19 18.8983 19 18.5005C19 18.1027 18.842 17.7211 18.5607 17.4398C18.2794 17.1585 17.8978 17.0005 17.5 17.0005H14.5C13.5717 17.0005 12.6815 16.6317 12.0251 15.9754C11.3688 15.319 11 14.4287 11 13.5005C11 12.5722 11.3688 11.682 12.0251 11.0256C12.6815 10.3692 13.5717 10.0005 14.5 10.0005H15V9.00049C15 8.73527 15.1054 8.48092 15.2929 8.29338C15.4804 8.10585 15.7348 8.00049 16 8.00049C16.2652 8.00049 16.5196 8.10585 16.7071 8.29338C16.8946 8.48092 17 8.73527 17 9.00049V10.0005H19C19.2652 10.0005 19.5196 10.1058 19.7071 10.2934C19.8946 10.4809 20 10.7353 20 11.0005C20 11.2657 19.8946 11.5201 19.7071 11.7076C19.5196 11.8951 19.2652 12.0005 19 12.0005H14.5C14.1022 12.0005 13.7206 12.1585 13.4393 12.4398C13.158 12.7211 13 13.1027 13 13.5005C13 13.8983 13.158 14.2798 13.4393 14.5611C13.7206 14.8425 14.1022 15.0005 14.5 15.0005H17.5C18.4283 15.0005 19.3185 15.3692 19.9749 16.0256C20.6313 16.682 21 17.5722 21 18.5005Z" fill="var(--secondary-70)"/>
</svg>
