<svg width="32" height="32" viewBox="0 0 32 32" fill="none" xmlns="http://www.w3.org/2000/svg">
<path d="M28 18.0005V26.0005C28 26.2657 27.8946 26.5201 27.7071 26.7076C27.5196 26.8951 27.2652 27.0005 27 27.0005H5C4.73478 27.0005 4.48043 26.8951 4.29289 26.7076C4.10536 26.5201 4 26.2657 4 26.0005V18.0005C4 17.7353 4.10536 17.4809 4.29289 17.2934C4.48043 17.1058 4.73478 17.0005 5 17.0005C5.26522 17.0005 5.51957 17.1058 5.70711 17.2934C5.89464 17.4809 6 17.7353 6 18.0005V25.0005H26V18.0005C26 17.7353 26.1054 17.4809 26.2929 17.2934C26.4804 17.1058 26.7348 17.0005 27 17.0005C27.2652 17.0005 27.5196 17.1058 27.7071 17.2934C27.8946 17.4809 28 17.7353 28 18.0005ZM15.2925 18.708C15.3854 18.801 15.4957 18.8747 15.6171 18.925C15.7385 18.9754 15.8686 19.0013 16 19.0013C16.1314 19.0013 16.2615 18.9754 16.3829 18.925C16.5043 18.8747 16.6146 18.801 16.7075 18.708L21.7075 13.708C21.8004 13.6151 21.8741 13.5048 21.9244 13.3834C21.9747 13.262 22.0006 13.1319 22.0006 13.0005C22.0006 12.8691 21.9747 12.739 21.9244 12.6176C21.8741 12.4962 21.8004 12.3859 21.7075 12.293C21.6146 12.2001 21.5043 12.1264 21.3829 12.0761C21.2615 12.0258 21.1314 11.9999 21 11.9999C20.8686 11.9999 20.7385 12.0258 20.6171 12.0761C20.4957 12.1264 20.3854 12.2001 20.2925 12.293L17 15.5867V4.00049C17 3.73527 16.8946 3.48092 16.7071 3.29338C16.5196 3.10585 16.2652 3.00049 16 3.00049C15.7348 3.00049 15.4804 3.10585 15.2929 3.29338C15.1054 3.48092 15 3.73527 15 4.00049V15.5867L11.7075 12.293C11.5199 12.1053 11.2654 11.9999 11 11.9999C10.7346 11.9999 10.4801 12.1053 10.2925 12.293C10.1049 12.4806 9.99944 12.7351 9.99944 13.0005C9.99944 13.2659 10.1049 13.5203 10.2925 13.708L15.2925 18.708Z" fill="#434344"/>
</svg>
