<svg width="32" height="32" viewBox="0 0 32 32" fill="none" xmlns="http://www.w3.org/2000/svg">
<path d="M27 14.0005V26.0005C27 26.531 26.7893 27.0397 26.4142 27.4148C26.0391 27.7898 25.5304 28.0005 25 28.0005H7C6.46957 28.0005 5.96086 27.7898 5.58579 27.4148C5.21071 27.0397 5 26.531 5 26.0005V14.0005C5 13.4701 5.21071 12.9614 5.58579 12.5863C5.96086 12.2113 6.46957 12.0005 7 12.0005H10C10.2652 12.0005 10.5196 12.1059 10.7071 12.2934C10.8946 12.481 11 12.7353 11 13.0005C11 13.2658 10.8946 13.5201 10.7071 13.7076C10.5196 13.8952 10.2652 14.0005 10 14.0005H7V26.0005H25V14.0005H22C21.7348 14.0005 21.4804 13.8952 21.2929 13.7076C21.1054 13.5201 21 13.2658 21 13.0005C21 12.7353 21.1054 12.481 21.2929 12.2934C21.4804 12.1059 21.7348 12.0005 22 12.0005H25C25.5304 12.0005 26.0391 12.2113 26.4142 12.5863C26.7893 12.9614 27 13.4701 27 14.0005ZM11.7075 8.70804L15 5.41429V17.0005C15 17.2658 15.1054 17.5201 15.2929 17.7077C15.4804 17.8952 15.7348 18.0005 16 18.0005C16.2652 18.0005 16.5196 17.8952 16.7071 17.7077C16.8946 17.5201 17 17.2658 17 17.0005V5.41429L20.2925 8.70804C20.4801 8.89568 20.7346 9.0011 21 9.0011C21.2654 9.0011 21.5199 8.89568 21.7075 8.70804C21.8951 8.5204 22.0006 8.26591 22.0006 8.00054C22.0006 7.73518 21.8951 7.48068 21.7075 7.29304L16.7075 2.29304C16.6146 2.20007 16.5043 2.12631 16.3829 2.07598C16.2615 2.02566 16.1314 1.99976 16 1.99976C15.8686 1.99976 15.7385 2.02566 15.6171 2.07598C15.4957 2.12631 15.3854 2.20007 15.2925 2.29304L10.2925 7.29304C10.1049 7.48068 9.99944 7.73518 9.99944 8.00054C9.99944 8.26591 10.1049 8.5204 10.2925 8.70804C10.4801 8.89568 10.7346 9.0011 11 9.0011C11.2654 9.0011 11.5199 8.89568 11.7075 8.70804Z" fill="#434344"/>
</svg>
