<svg width="32" height="32" viewBox="0 0 32 32" fill="none" xmlns="http://www.w3.org/2000/svg">
<path d="M27 7.00049H22V6.00049C22 5.20484 21.6839 4.44178 21.1213 3.87917C20.5587 3.31656 19.7956 3.00049 19 3.00049H13C12.2044 3.00049 11.4413 3.31656 10.8787 3.87917C10.3161 4.44178 10 5.20484 10 6.00049V7.00049H5C4.46957 7.00049 3.96086 7.2112 3.58579 7.58627C3.21071 7.96135 3 8.47006 3 9.00049V25.0005C3 25.5309 3.21071 26.0396 3.58579 26.4147C3.96086 26.7898 4.46957 27.0005 5 27.0005H27C27.5304 27.0005 28.0391 26.7898 28.4142 26.4147C28.7893 26.0396 29 25.5309 29 25.0005V9.00049C29 8.47006 28.7893 7.96135 28.4142 7.58627C28.0391 7.2112 27.5304 7.00049 27 7.00049ZM12 6.00049C12 5.73527 12.1054 5.48092 12.2929 5.29338C12.4804 5.10585 12.7348 5.00049 13 5.00049H19C19.2652 5.00049 19.5196 5.10585 19.7071 5.29338C19.8946 5.48092 20 5.73527 20 6.00049V7.00049H12V6.00049ZM27 25.0005H5V9.00049H27V25.0005ZM20 17.0005C20 17.2657 19.8946 17.5201 19.7071 17.7076C19.5196 17.8951 19.2652 18.0005 19 18.0005H17V20.0005C17 20.2657 16.8946 20.5201 16.7071 20.7076C16.5196 20.8951 16.2652 21.0005 16 21.0005C15.7348 21.0005 15.4804 20.8951 15.2929 20.7076C15.1054 20.5201 15 20.2657 15 20.0005V18.0005H13C12.7348 18.0005 12.4804 17.8951 12.2929 17.7076C12.1054 17.5201 12 17.2657 12 17.0005C12 16.7353 12.1054 16.4809 12.2929 16.2934C12.4804 16.1058 12.7348 16.0005 13 16.0005H15V14.0005C15 13.7353 15.1054 13.4809 15.2929 13.2934C15.4804 13.1058 15.7348 13.0005 16 13.0005C16.2652 13.0005 16.5196 13.1058 16.7071 13.2934C16.8946 13.4809 17 13.7353 17 14.0005V16.0005H19C19.2652 16.0005 19.5196 16.1058 19.7071 16.2934C19.8946 16.4809 20 16.7353 20 17.0005Z" fill="#434344"/>
</svg>
