<svg width="32" height="32" viewBox="0 0 32 32" fill="none" xmlns="http://www.w3.org/2000/svg">
<path d="M27.4137 9.0005L23 4.58675C22.815 4.40022 22.5947 4.25234 22.352 4.1517C22.1093 4.05105 21.849 3.99966 21.5863 4.0005H6C5.46957 4.0005 4.96086 4.21121 4.58579 4.58628C4.21071 4.96136 4 5.47007 4 6.0005V26.0005C4 26.5309 4.21071 27.0396 4.58579 27.4147C4.96086 27.7898 5.46957 28.0005 6 28.0005H26C26.5304 28.0005 27.0391 27.7898 27.4142 27.4147C27.7893 27.0396 28 26.5309 28 26.0005V10.4142C28.0008 10.1515 27.9494 9.89122 27.8488 9.64852C27.7482 9.40582 27.6003 9.18554 27.4137 9.0005ZM21 26.0005H11V19.0005H21V26.0005ZM26 26.0005H23V19.0005C23 18.4701 22.7893 17.9614 22.4142 17.5863C22.0391 17.2112 21.5304 17.0005 21 17.0005H11C10.4696 17.0005 9.96086 17.2112 9.58579 17.5863C9.21071 17.9614 9 18.4701 9 19.0005V26.0005H6V6.0005H21.5863L26 10.4142V26.0005ZM20 9.0005C20 9.26571 19.8946 9.52007 19.7071 9.7076C19.5196 9.89514 19.2652 10.0005 19 10.0005H12C11.7348 10.0005 11.4804 9.89514 11.2929 9.7076C11.1054 9.52007 11 9.26571 11 9.0005C11 8.73528 11.1054 8.48093 11.2929 8.29339C11.4804 8.10586 11.7348 8.0005 12 8.0005H19C19.2652 8.0005 19.5196 8.10586 19.7071 8.29339C19.8946 8.48093 20 8.73528 20 9.0005Z" fill="currentColor"/>
</svg>
