<svg width="32" height="32" viewBox="0 0 32 32" fill="none" xmlns="http://www.w3.org/2000/svg">
<path d="M28.825 6.19177C28.6711 5.83616 28.416 5.53364 28.0915 5.32184C27.767 5.11004 27.3875 4.9983 27 5.00052H4.99997C4.61288 5.00128 4.23433 5.11436 3.91025 5.32603C3.58616 5.5377 3.33047 5.83887 3.17418 6.193C3.01789 6.54713 2.96772 6.93901 3.02977 7.32109C3.09181 7.70317 3.2634 8.05904 3.52372 8.34552L3.53372 8.35677L12 17.3968V27.0005C11.9999 27.3625 12.098 27.7177 12.284 28.0283C12.4699 28.3389 12.7366 28.5931 13.0557 28.764C13.3748 28.9349 13.7343 29.016 14.0958 28.9987C14.4574 28.9813 14.8075 28.8662 15.1087 28.6655L19.1087 25.998C19.3829 25.8154 19.6078 25.5678 19.7632 25.2773C19.9187 24.9869 20 24.6625 20 24.333V17.3968L28.4675 8.35677L28.4775 8.34552C28.7405 8.06035 28.9138 7.70401 28.9756 7.32098C29.0374 6.93795 28.985 6.54521 28.825 6.19177ZM18.2725 16.323C18.0995 16.5064 18.0021 16.7484 18 17.0005V24.333L14 27.0005V17.0005C14 16.7466 13.9035 16.5021 13.73 16.3168L4.99997 7.00052H27L18.2725 16.323Z" fill="#434344"/>
</svg>
