<svg width="32" height="32" viewBox="0 0 32 32" fill="none" xmlns="http://www.w3.org/2000/svg">
<path d="M16.0001 10.0005C14.8134 10.0005 13.6533 10.3524 12.6666 11.0117C11.6799 11.671 10.9109 12.6081 10.4568 13.7044C10.0027 14.8008 9.88383 16.0072 10.1153 17.1711C10.3469 18.335 10.9183 19.4041 11.7574 20.2432C12.5965 21.0823 13.6656 21.6537 14.8295 21.8853C15.9934 22.1168 17.1998 21.9979 18.2962 21.5438C19.3925 21.0897 20.3296 20.3207 20.9889 19.334C21.6482 18.3473 22.0001 17.1872 22.0001 16.0005C21.9984 14.4098 21.3657 12.8846 20.2409 11.7597C19.116 10.6349 17.5908 10.0022 16.0001 10.0005ZM16.0001 20.0005C15.2089 20.0005 14.4356 19.7659 13.7778 19.3264C13.12 18.8869 12.6073 18.2622 12.3045 17.5313C12.0018 16.8004 11.9226 15.9961 12.0769 15.2202C12.2313 14.4443 12.6122 13.7315 13.1716 13.1721C13.731 12.6127 14.4438 12.2317 15.2197 12.0774C15.9956 11.9231 16.7999 12.0023 17.5308 12.305C18.2617 12.6078 18.8864 13.1205 19.3259 13.7783C19.7655 14.4361 20.0001 15.2094 20.0001 16.0005C20.0001 17.0614 19.5786 18.0788 18.8285 18.829C18.0783 19.5791 17.0609 20.0005 16.0001 20.0005ZM27.0001 16.2705C27.0051 16.0905 27.0051 15.9105 27.0001 15.7305L28.8651 13.4005C28.9628 13.2782 29.0305 13.1346 29.0627 12.9813C29.0948 12.828 29.0905 12.6694 29.0501 12.518C28.7443 11.3688 28.287 10.2654 27.6901 9.2368C27.6119 9.10219 27.5034 8.98769 27.3732 8.90241C27.243 8.81712 27.0947 8.76341 26.9401 8.74555L23.9751 8.41555C23.8517 8.28555 23.7267 8.16055 23.6001 8.04055L23.2501 5.06805C23.2321 4.91331 23.1782 4.76492 23.0926 4.63471C23.0071 4.5045 22.8924 4.39606 22.7576 4.31805C21.7286 3.72223 20.6253 3.26534 19.4763 2.9593C19.3249 2.91904 19.1662 2.91492 19.0129 2.94728C18.8596 2.97963 18.716 3.04754 18.5938 3.14555L16.2701 5.00055C16.0901 5.00055 15.9101 5.00055 15.7301 5.00055L13.4001 3.1393C13.2777 3.04151 13.1341 2.97382 12.9808 2.94168C12.8276 2.90955 12.6689 2.91387 12.5176 2.9543C11.3685 3.26058 10.2651 3.7179 9.23631 4.3143C9.1017 4.39245 8.9872 4.50095 8.90192 4.63116C8.81664 4.76136 8.76292 4.90968 8.74506 5.0643L8.41506 8.0343C8.28506 8.15846 8.16006 8.28346 8.04006 8.4093L5.06756 8.75055C4.91282 8.76855 4.76443 8.82245 4.63422 8.90796C4.50401 8.99346 4.39557 9.10821 4.31756 9.24305C3.72174 10.272 3.26485 11.3753 2.95881 12.5243C2.91855 12.6757 2.91444 12.8344 2.94679 12.9877C2.97914 13.141 3.04705 13.2846 3.14506 13.4068L5.00006 15.7305C5.00006 15.9105 5.00006 16.0905 5.00006 16.2705L3.13881 18.6005C3.04102 18.7229 2.97333 18.8665 2.9412 19.0198C2.90906 19.173 2.91338 19.3317 2.95381 19.483C3.25954 20.6323 3.71689 21.7357 4.31381 22.7643C4.39196 22.8989 4.50046 23.0134 4.63067 23.0987C4.76087 23.184 4.90919 23.2377 5.06381 23.2555L8.02881 23.5855C8.15297 23.7155 8.27797 23.8405 8.40381 23.9605L8.75006 26.933C8.76806 27.0878 8.82196 27.2362 8.90747 27.3664C8.99298 27.4966 9.10772 27.605 9.24256 27.683C10.2715 28.2789 11.3749 28.7358 12.5238 29.0418C12.6752 29.0821 12.834 29.0862 12.9872 29.0538C13.1405 29.0215 13.2841 28.9535 13.4063 28.8555L15.7301 27.0005C15.9101 27.0055 16.0901 27.0055 16.2701 27.0005L18.6001 28.8655C18.7224 28.9633 18.866 29.031 19.0193 29.0632C19.1726 29.0953 19.3312 29.091 19.4826 29.0505C20.6318 28.7448 21.7352 28.2875 22.7638 27.6905C22.8984 27.6124 23.0129 27.5039 23.0982 27.3737C23.1835 27.2435 23.2372 27.0952 23.2551 26.9405L23.5851 23.9755C23.7151 23.8522 23.8401 23.7272 23.9601 23.6005L26.9326 23.2505C27.0873 23.2325 27.2357 23.1786 27.3659 23.0931C27.4961 23.0076 27.6045 22.8929 27.6826 22.758C28.2784 21.7291 28.7353 20.6257 29.0413 19.4768C29.0816 19.3254 29.0857 19.1666 29.0533 19.0134C29.021 18.8601 28.9531 18.7165 28.8551 18.5943L27.0001 16.2705ZM24.9876 15.458C25.0088 15.8194 25.0088 16.1817 24.9876 16.543C24.9727 16.7904 25.0502 17.0346 25.2051 17.228L26.9788 19.4443C26.7753 20.0911 26.5147 20.7186 26.2001 21.3193L23.3751 21.6393C23.129 21.6666 22.9019 21.7842 22.7376 21.9693C22.4969 22.2399 22.2407 22.4962 21.9701 22.7368C21.7849 22.9011 21.6674 23.1283 21.6401 23.3743L21.3263 26.1968C20.7257 26.5116 20.0982 26.7722 19.4513 26.9755L17.2338 25.2018C17.0564 25.06 16.8359 24.9829 16.6088 24.983H16.5488C16.1875 25.0043 15.8252 25.0043 15.4638 24.983C15.2164 24.9682 14.9723 25.0457 14.7788 25.2005L12.5563 26.9755C11.9095 26.772 11.282 26.5114 10.6813 26.1968L10.3613 23.3755C10.334 23.1295 10.2164 22.9024 10.0313 22.738C9.76069 22.4974 9.50442 22.2412 9.26381 21.9705C9.09947 21.7854 8.87233 21.6679 8.62631 21.6405L5.80381 21.3255C5.48905 20.7249 5.22843 20.0974 5.02506 19.4505L6.79881 17.233C6.95369 17.0396 7.0312 16.7954 7.01631 16.548C6.99506 16.1867 6.99506 15.8244 7.01631 15.463C7.0312 15.2156 6.95369 14.9715 6.79881 14.778L5.02506 12.5568C5.22859 11.91 5.4892 11.2825 5.80381 10.6818L8.62506 10.3618C8.87108 10.3345 9.09822 10.2169 9.26256 10.0318C9.50317 9.76118 9.75944 9.50491 10.0301 9.2643C10.2159 9.09985 10.334 8.87219 10.3613 8.62555L10.6751 5.8043C11.2757 5.48954 11.9032 5.22892 12.5501 5.02555L14.7676 6.7993C14.961 6.95418 15.2052 7.03169 15.4526 7.0168C15.8139 6.99555 16.1762 6.99555 16.5376 7.0168C16.785 7.03169 17.0291 6.95418 17.2226 6.7993L19.4438 5.02555C20.0906 5.22908 20.7181 5.48969 21.3188 5.8043L21.6388 8.62555C21.6661 8.87156 21.7837 9.09871 21.9688 9.26305C22.2394 9.50366 22.4957 9.75993 22.7363 10.0305C22.9006 10.2157 23.1278 10.3332 23.3738 10.3605L26.1963 10.6743C26.5111 11.2749 26.7717 11.9024 26.9751 12.5493L25.2013 14.7668C25.0449 14.9619 24.9673 15.2085 24.9838 15.458H24.9876Z" fill="currentColor"/>
</svg>
