<svg width="32" height="32" viewBox="0 0 32 32" fill="none" xmlns="http://www.w3.org/2000/svg">
<path d="M27.0713 4.92923C25.4829 3.33861 23.4049 2.32957 21.1726 2.06492C18.9403 1.80027 16.684 2.29546 14.7677 3.47057C12.8514 4.64569 11.3869 6.43218 10.6106 8.54178C9.83424 10.6514 9.79133 12.961 10.4888 15.098L3.58626 22.0005C3.39973 22.1855 3.25185 22.4058 3.15121 22.6485C3.05057 22.8912 2.99917 23.1515 3.00001 23.4142V27.0005C3.00001 27.5309 3.21072 28.0396 3.5858 28.4147C3.96087 28.7898 4.46958 29.0005 5.00001 29.0005H9.00001C9.26523 29.0005 9.51958 28.8951 9.70712 28.7076C9.89465 28.52 10 28.2657 10 28.0005V26.0005H12C12.2652 26.0005 12.5196 25.8951 12.7071 25.7076C12.8947 25.52 13 25.2657 13 25.0005V23.0005H15C15.1314 23.0006 15.2615 22.9748 15.3829 22.9246C15.5043 22.8744 15.6146 22.8008 15.7075 22.708L16.9025 21.5117C17.9028 21.8371 18.9482 22.002 20 22.0005H20.0125C21.9893 21.9981 23.9211 21.4098 25.5637 20.3101C27.2063 19.2103 28.4862 17.6484 29.2415 15.8216C29.9969 13.9948 30.1939 11.9851 29.8076 10.0464C29.4213 8.10772 28.4691 6.327 27.0713 4.92923ZM28 12.263C27.8638 16.5242 24.2813 19.9955 20.0138 20.0005H20C18.9877 20.0022 17.9844 19.8109 17.0438 19.4367C16.8598 19.3569 16.656 19.3342 16.4589 19.3716C16.2619 19.4091 16.0806 19.5049 15.9388 19.6467L14.5863 21.0005H12C11.7348 21.0005 11.4804 21.1058 11.2929 21.2934C11.1054 21.4809 11 21.7353 11 22.0005V24.0005H9.00001C8.73479 24.0005 8.48044 24.1058 8.2929 24.2934C8.10537 24.4809 8.00001 24.7353 8.00001 25.0005V27.0005H5.00001V23.4142L12.3538 16.0617C12.4955 15.9198 12.5914 15.7386 12.6288 15.5416C12.6663 15.3445 12.6436 15.1407 12.5638 14.9567C12.1884 14.013 11.9971 13.0061 12 11.9905C12 7.72298 15.4763 4.14048 19.7375 4.00423C20.8321 3.9677 21.9225 4.15631 22.9413 4.55837C23.96 4.96044 24.8853 5.56739 25.6599 6.34164C26.4345 7.11589 27.0419 8.04093 27.4444 9.05948C27.8469 10.078 28.036 11.1684 28 12.263ZM24 9.50048C24 9.79715 23.912 10.0872 23.7472 10.3338C23.5824 10.5805 23.3481 10.7728 23.074 10.8863C22.7999 10.9998 22.4983 11.0295 22.2074 10.9717C21.9164 10.9138 21.6491 10.7709 21.4394 10.5611C21.2296 10.3514 21.0867 10.0841 21.0288 9.79311C20.971 9.50214 21.0007 9.20054 21.1142 8.92645C21.2277 8.65236 21.42 8.41809 21.6667 8.25327C21.9133 8.08845 22.2033 8.00048 22.5 8.00048C22.8978 8.00048 23.2794 8.15851 23.5607 8.43982C23.842 8.72112 24 9.10265 24 9.50048Z" fill="currentColor"/>
</svg>
