<svg width="32" height="32" viewBox="0 0 32 32" fill="none" xmlns="http://www.w3.org/2000/svg">
<path d="M27 5.00049H5C4.46957 5.00049 3.96086 5.2112 3.58579 5.58627C3.21071 5.96135 3 6.47006 3 7.00049V25.0005C3 25.5309 3.21071 26.0396 3.58579 26.4147C3.96086 26.7898 4.46957 27.0005 5 27.0005H27C27.5304 27.0005 28.0391 26.7898 28.4142 26.4147C28.7893 26.0396 29 25.5309 29 25.0005V7.00049C29 6.47006 28.7893 5.96135 28.4142 5.58627C28.0391 5.2112 27.5304 5.00049 27 5.00049ZM27 7.00049V12.0005H5V7.00049H27ZM5 14.0005H12V25.0005H5V14.0005ZM27 25.0005H14V14.0005H27V25.0005Z" fill="currentColor"/>
</svg>
