<svg width="32" height="32" viewBox="0 0 32 32" fill="none" xmlns="http://www.w3.org/2000/svg">
<path d="M16 11.0005C15.0111 11.0005 14.0444 11.2937 13.2221 11.8431C12.3999 12.3925 11.759 13.1734 11.3806 14.0871C11.0022 15.0007 10.9031 16.006 11.0961 16.9759C11.289 17.9458 11.7652 18.8368 12.4645 19.536C13.1637 20.2353 14.0546 20.7115 15.0245 20.9044C15.9945 21.0973 16.9998 20.9983 17.9134 20.6199C18.827 20.2414 19.6079 19.6006 20.1573 18.7783C20.7068 17.9561 21 16.9894 21 16.0005C21 14.6744 20.4732 13.4026 19.5355 12.465C18.5979 11.5273 17.3261 11.0005 16 11.0005ZM16 19.0005C15.4067 19.0005 14.8266 18.8245 14.3333 18.4949C13.8399 18.1653 13.4554 17.6967 13.2284 17.1485C13.0013 16.6004 12.9419 15.9972 13.0576 15.4152C13.1734 14.8333 13.4591 14.2987 13.8787 13.8792C14.2982 13.4596 14.8328 13.1739 15.4147 13.0581C15.9967 12.9424 16.5999 13.0018 17.1481 13.2288C17.6962 13.4559 18.1648 13.8404 18.4944 14.3338C18.8241 14.8271 19 15.4071 19 16.0005C19 16.7961 18.6839 17.5592 18.1213 18.1218C17.5587 18.6844 16.7956 19.0005 16 19.0005ZM30 7.00049H2C1.73478 7.00049 1.48043 7.10585 1.29289 7.29338C1.10536 7.48092 1 7.73527 1 8.00049V24.0005C1 24.2657 1.10536 24.5201 1.29289 24.7076C1.48043 24.8951 1.73478 25.0005 2 25.0005H30C30.2652 25.0005 30.5196 24.8951 30.7071 24.7076C30.8946 24.5201 31 24.2657 31 24.0005V8.00049C31 7.73527 30.8946 7.48092 30.7071 7.29338C30.5196 7.10585 30.2652 7.00049 30 7.00049ZM24.2062 23.0005H7.79375C7.45801 21.865 6.84351 20.8315 6.00623 19.9943C5.16895 19.157 4.1355 18.5425 3 18.2067V13.7942C4.1355 13.4585 5.16895 12.844 6.00623 12.0067C6.84351 11.1694 7.45801 10.136 7.79375 9.00049H24.2062C24.542 10.136 25.1565 11.1694 25.9938 12.0067C26.8311 12.844 27.8645 13.4585 29 13.7942V18.2067C27.8645 18.5425 26.8311 19.157 25.9938 19.9943C25.1565 20.8315 24.542 21.865 24.2062 23.0005ZM29 11.6717C27.8005 11.156 26.8445 10.1999 26.3288 9.00049H29V11.6717ZM5.67125 9.00049C5.15549 10.1999 4.19945 11.156 3 11.6717V9.00049H5.67125ZM3 20.3292C4.19945 20.845 5.15549 21.801 5.67125 23.0005H3V20.3292ZM26.3288 23.0005C26.8445 21.801 27.8005 20.845 29 20.3292V23.0005H26.3288Z" fill="currentColor"/>
</svg>
