<svg width="32" height="32" viewBox="0 0 32 32" fill="none" xmlns="http://www.w3.org/2000/svg">
<path d="M26 5.00049H6C5.20435 5.00049 4.44129 5.31656 3.87868 5.87917C3.31607 6.44178 3 7.20484 3 8.00049V22.0005C3 22.7961 3.31607 23.5592 3.87868 24.1218C4.44129 24.6844 5.20435 25.0005 6 25.0005H26C26.7956 25.0005 27.5587 24.6844 28.1213 24.1218C28.6839 23.5592 29 22.7961 29 22.0005V8.00049C29 7.20484 28.6839 6.44178 28.1213 5.87917C27.5587 5.31656 26.7956 5.00049 26 5.00049ZM27 22.0005C27 22.2657 26.8946 22.5201 26.7071 22.7076C26.5196 22.8951 26.2652 23.0005 26 23.0005H6C5.73478 23.0005 5.48043 22.8951 5.29289 22.7076C5.10536 22.5201 5 22.2657 5 22.0005V8.00049C5 7.73527 5.10536 7.48092 5.29289 7.29338C5.48043 7.10585 5.73478 7.00049 6 7.00049H26C26.2652 7.00049 26.5196 7.10585 26.7071 7.29338C26.8946 7.48092 27 7.73527 27 8.00049V22.0005ZM21 28.0005C21 28.2657 20.8946 28.5201 20.7071 28.7076C20.5196 28.8951 20.2652 29.0005 20 29.0005H12C11.7348 29.0005 11.4804 28.8951 11.2929 28.7076C11.1054 28.5201 11 28.2657 11 28.0005C11 27.7353 11.1054 27.4809 11.2929 27.2934C11.4804 27.1058 11.7348 27.0005 12 27.0005H20C20.2652 27.0005 20.5196 27.1058 20.7071 27.2934C20.8946 27.4809 21 27.7353 21 28.0005Z" fill="currentColor"/>
</svg>
