<svg width="32" height="32" viewBox="0 0 32 32" fill="none" xmlns="http://www.w3.org/2000/svg">
<path d="M23 14.0005C23 14.2657 22.8946 14.5201 22.7071 14.7076C22.5196 14.8951 22.2652 15.0005 22 15.0005H14C13.7348 15.0005 13.4804 14.8951 13.2929 14.7076C13.1054 14.5201 13 14.2657 13 14.0005C13 13.7353 13.1054 13.4809 13.2929 13.2934C13.4804 13.1058 13.7348 13.0005 14 13.0005H22C22.2652 13.0005 22.5196 13.1058 22.7071 13.2934C22.8946 13.4809 23 13.7353 23 14.0005ZM22 17.0005H14C13.7348 17.0005 13.4804 17.1058 13.2929 17.2934C13.1054 17.4809 13 17.7353 13 18.0005C13 18.2657 13.1054 18.5201 13.2929 18.7076C13.4804 18.8951 13.7348 19.0005 14 19.0005H22C22.2652 19.0005 22.5196 18.8951 22.7071 18.7076C22.8946 18.5201 23 18.2657 23 18.0005C23 17.7353 22.8946 17.4809 22.7071 17.2934C22.5196 17.1058 22.2652 17.0005 22 17.0005ZM28 6.00049V26.0005C28 26.5309 27.7893 27.0396 27.4142 27.4147C27.0391 27.7898 26.5304 28.0005 26 28.0005H6C5.46957 28.0005 4.96086 27.7898 4.58579 27.4147C4.21071 27.0396 4 26.5309 4 26.0005V6.00049C4 5.47006 4.21071 4.96135 4.58579 4.58627C4.96086 4.2112 5.46957 4.00049 6 4.00049H26C26.5304 4.00049 27.0391 4.2112 27.4142 4.58627C27.7893 4.96135 28 5.47006 28 6.00049ZM6 26.0005H9V6.00049H6V26.0005ZM26 26.0005V6.00049H11V26.0005H26Z" fill="currentColor"/>
</svg>
