<svg width="32" height="32" viewBox="0 0 32 32" fill="none" xmlns="http://www.w3.org/2000/svg">
<path d="M17.5 22.5005C17.5 22.7972 17.412 23.0872 17.2472 23.3338C17.0824 23.5805 16.8481 23.7728 16.574 23.8863C16.2999 23.9998 15.9983 24.0295 15.7074 23.9717C15.4164 23.9138 15.1491 23.7709 14.9393 23.5611C14.7296 23.3514 14.5867 23.0841 14.5288 22.7931C14.471 22.5022 14.5007 22.2006 14.6142 21.9265C14.7277 21.6524 14.92 21.4181 15.1667 21.2533C15.4133 21.0885 15.7033 21.0005 16 21.0005C16.3978 21.0005 16.7794 21.1585 17.0607 21.4398C17.342 21.7211 17.5 22.1027 17.5 22.5005ZM16 9.00049C13.2425 9.00049 11 11.0192 11 13.5005V14.0005C11 14.2657 11.1054 14.5201 11.2929 14.7076C11.4804 14.8951 11.7348 15.0005 12 15.0005C12.2652 15.0005 12.5196 14.8951 12.7071 14.7076C12.8946 14.5201 13 14.2657 13 14.0005V13.5005C13 12.1255 14.3463 11.0005 16 11.0005C17.6538 11.0005 19 12.1255 19 13.5005C19 14.8755 17.6538 16.0005 16 16.0005C15.7348 16.0005 15.4804 16.1058 15.2929 16.2934C15.1054 16.4809 15 16.7353 15 17.0005V18.0005C15 18.2657 15.1054 18.5201 15.2929 18.7076C15.4804 18.8951 15.7348 19.0005 16 19.0005C16.2652 19.0005 16.5196 18.8951 16.7071 18.7076C16.8946 18.5201 17 18.2657 17 18.0005V17.9105C19.28 17.4917 21 15.673 21 13.5005C21 11.0192 18.7575 9.00049 16 9.00049ZM29 16.0005C29 18.5716 28.2376 21.0851 26.8091 23.2229C25.3807 25.3607 23.3503 27.027 20.9749 28.0109C18.5995 28.9949 15.9856 29.2523 13.4638 28.7507C10.9421 28.2491 8.6257 27.011 6.80762 25.1929C4.98953 23.3748 3.75141 21.0584 3.2498 18.5367C2.74819 16.0149 3.00563 13.401 3.98957 11.0256C4.97351 8.65016 6.63975 6.61984 8.77759 5.19138C10.9154 3.76293 13.4288 3.00049 16 3.00049C19.4467 3.00413 22.7512 4.37494 25.1884 6.81212C27.6256 9.2493 28.9964 12.5538 29 16.0005ZM27 16.0005C27 13.8249 26.3549 11.6982 25.1462 9.88922C23.9375 8.08027 22.2195 6.67038 20.2095 5.83781C18.1995 5.00525 15.9878 4.78741 13.854 5.21185C11.7202 5.63629 9.76021 6.68394 8.22183 8.22231C6.68345 9.76069 5.63581 11.7207 5.21137 13.8545C4.78693 15.9883 5.00477 18.2 5.83733 20.21C6.66989 22.22 8.07979 23.938 9.88873 25.1467C11.6977 26.3554 13.8244 27.0005 16 27.0005C18.9164 26.9972 21.7123 25.8372 23.7745 23.775C25.8367 21.7128 26.9967 18.9169 27 16.0005Z" fill="#434344"/>
</svg>
