<svg width="32" height="32" viewBox="0 0 32 32" fill="none" xmlns="http://www.w3.org/2000/svg">
<path d="M24.6977 16.133L18.2502 13.7505L15.8752 7.29799C15.7346 6.9159 15.4801 6.58615 15.1461 6.35322C14.8122 6.12029 14.4149 5.99541 14.0077 5.99541C13.6005 5.99541 13.2032 6.12029 12.8692 6.35322C12.5353 6.58615 12.2808 6.9159 12.1402 7.29799L9.7502 13.7505L3.2977 16.1255C2.91561 16.2661 2.58586 16.5206 2.35293 16.8545C2.12001 17.1885 1.99512 17.5858 1.99512 17.993C1.99512 18.4001 2.12001 18.7975 2.35293 19.1314C2.58586 19.4654 2.91561 19.7198 3.2977 19.8605L9.7502 22.2505L12.1252 28.703C12.2658 29.0851 12.5203 29.4148 12.8542 29.6478C13.1882 29.8807 13.5855 30.0056 13.9927 30.0056C14.3999 30.0056 14.7972 29.8807 15.1311 29.6478C15.4651 29.4148 15.7196 29.0851 15.8602 28.703L18.2502 22.2505L24.7027 19.8755C25.0848 19.7348 25.4145 19.4804 25.6475 19.1464C25.8804 18.8125 26.0053 18.4151 26.0053 18.008C26.0053 17.6008 25.8804 17.2035 25.6475 16.8695C25.4145 16.5356 25.0848 16.2811 24.7027 16.1405L24.6977 16.133ZM17.1252 20.528C16.9895 20.578 16.8662 20.6569 16.7639 20.7592C16.6616 20.8615 16.5827 20.9848 16.5327 21.1205L14.0002 27.9817L11.4727 21.1255C11.4228 20.9883 11.3434 20.8638 11.2402 20.7605C11.1369 20.6573 11.0124 20.5779 10.8752 20.528L4.01895 18.0005L10.8752 15.473C11.0124 15.423 11.1369 15.3437 11.2402 15.2404C11.3434 15.1372 11.4228 15.0127 11.4727 14.8755L14.0002 8.01924L16.5277 14.8755C16.5777 15.0112 16.6566 15.1345 16.7589 15.2368C16.8612 15.3391 16.9845 15.418 17.1202 15.468L23.9814 18.0005L17.1252 20.528ZM18.0002 5.00049C18.0002 4.73527 18.1056 4.48092 18.2931 4.29338C18.4806 4.10585 18.735 4.00049 19.0002 4.00049H21.0002V2.00049C21.0002 1.73527 21.1056 1.48092 21.2931 1.29338C21.4806 1.10585 21.735 1.00049 22.0002 1.00049C22.2654 1.00049 22.5198 1.10585 22.7073 1.29338C22.8948 1.48092 23.0002 1.73527 23.0002 2.00049V4.00049H25.0002C25.2654 4.00049 25.5198 4.10585 25.7073 4.29338C25.8948 4.48092 26.0002 4.73527 26.0002 5.00049C26.0002 5.2657 25.8948 5.52006 25.7073 5.70759C25.5198 5.89513 25.2654 6.00049 25.0002 6.00049H23.0002V8.00049C23.0002 8.2657 22.8948 8.52006 22.7073 8.70759C22.5198 8.89513 22.2654 9.00049 22.0002 9.00049C21.735 9.00049 21.4806 8.89513 21.2931 8.70759C21.1056 8.52006 21.0002 8.2657 21.0002 8.00049V6.00049H19.0002C18.735 6.00049 18.4806 5.89513 18.2931 5.70759C18.1056 5.52006 18.0002 5.2657 18.0002 5.00049ZM31.0002 11.0005C31.0002 11.2657 30.8948 11.5201 30.7073 11.7076C30.5198 11.8951 30.2654 12.0005 30.0002 12.0005H29.0002V13.0005C29.0002 13.2657 28.8948 13.5201 28.7073 13.7076C28.5198 13.8951 28.2654 14.0005 28.0002 14.0005C27.735 14.0005 27.4806 13.8951 27.2931 13.7076C27.1056 13.5201 27.0002 13.2657 27.0002 13.0005V12.0005H26.0002C25.735 12.0005 25.4806 11.8951 25.2931 11.7076C25.1056 11.5201 25.0002 11.2657 25.0002 11.0005C25.0002 10.7353 25.1056 10.4809 25.2931 10.2934C25.4806 10.1058 25.735 10.0005 26.0002 10.0005H27.0002V9.00049C27.0002 8.73527 27.1056 8.48092 27.2931 8.29338C27.4806 8.10585 27.735 8.00049 28.0002 8.00049C28.2654 8.00049 28.5198 8.10585 28.7073 8.29338C28.8948 8.48092 29.0002 8.73527 29.0002 9.00049V10.0005H30.0002C30.2654 10.0005 30.5198 10.1058 30.7073 10.2934C30.8948 10.4809 31.0002 10.7353 31.0002 11.0005Z" fill="currentColor"/>
</svg>
