<svg width="32" height="32" viewBox="0 0 32 32" fill="none" xmlns="http://www.w3.org/2000/svg">
<path d="M29.8976 12.1581C29.7726 11.7737 29.5366 11.435 29.2194 11.1845C28.9022 10.934 28.5179 10.783 28.1151 10.7506L20.7401 10.1556L17.8926 3.26931C17.7386 2.89408 17.4765 2.57312 17.1396 2.34723C16.8027 2.12134 16.4063 2.00073 16.0007 2.00073C15.5951 2.00073 15.1987 2.12134 14.8618 2.34723C14.5249 2.57312 14.2628 2.89408 14.1088 3.26931L11.2638 10.1543L3.88508 10.7506C3.48156 10.7847 3.09707 10.9371 2.7798 11.1888C2.46253 11.4405 2.22659 11.7802 2.10153 12.1654C1.97648 12.5506 1.96787 12.9641 2.07679 13.3541C2.18571 13.7442 2.40731 14.0934 2.71383 14.3581L8.33883 19.2118L6.62508 26.4693C6.52924 26.8636 6.55271 27.2775 6.69251 27.6584C6.83231 28.0393 7.08214 28.3701 7.41028 28.6088C7.73843 28.8475 8.13009 28.9832 8.53555 28.9989C8.94102 29.0146 9.34199 28.9094 9.68758 28.6968L16.0001 24.8118L22.3163 28.6968C22.662 28.9069 23.0622 29.01 23.4664 28.9932C23.8706 28.9763 24.2608 28.8403 24.5878 28.6021C24.9149 28.364 25.1641 28.0344 25.3042 27.6548C25.4443 27.2753 25.469 26.8628 25.3751 26.4693L23.6551 19.2106L29.2801 14.3568C29.5891 14.0926 29.8127 13.7426 29.9226 13.3512C30.0326 12.9598 30.0238 12.5445 29.8976 12.1581ZM27.9801 12.8418L21.8926 18.0918C21.7538 18.2115 21.6505 18.367 21.5941 18.5413C21.5376 18.7157 21.5302 18.9023 21.5726 19.0806L23.4326 26.9306C23.4374 26.9414 23.4379 26.9536 23.4339 26.9648C23.43 26.976 23.4219 26.9852 23.4113 26.9906C23.3888 27.0081 23.3826 27.0043 23.3638 26.9906L16.5238 22.7843C16.3663 22.6875 16.185 22.6362 16.0001 22.6362C15.8152 22.6362 15.6339 22.6875 15.4763 22.7843L8.63633 26.9931C8.61758 27.0043 8.61258 27.0081 8.58883 26.9931C8.57828 26.9877 8.5702 26.9785 8.56625 26.9673C8.56229 26.9561 8.56277 26.9439 8.56758 26.9331L10.4276 19.0831C10.47 18.9048 10.4625 18.7182 10.4061 18.5438C10.3497 18.3695 10.2464 18.214 10.1076 18.0943L4.02008 12.8443C4.00508 12.8318 3.99133 12.8206 4.00383 12.7818C4.01633 12.7431 4.02633 12.7481 4.04508 12.7456L12.0351 12.1006C12.2183 12.0848 12.3937 12.0189 12.5419 11.9099C12.6901 11.801 12.8054 11.6533 12.8751 11.4831L15.9526 4.03181C15.9626 4.01056 15.9663 4.00056 15.9963 4.00056C16.0263 4.00056 16.0301 4.01056 16.0401 4.03181L19.1251 11.4831C19.1954 11.6533 19.3114 11.8009 19.4603 11.9094C19.6092 12.0179 19.7852 12.0832 19.9688 12.0981L27.9588 12.7431C27.9776 12.7431 27.9888 12.7431 28.0001 12.7793C28.0113 12.8156 28.0001 12.8293 27.9801 12.8418Z" fill="var(--secondary-70)"/>
</svg>
