<svg width="32" height="32" viewBox="0 0 32 32" fill="none" xmlns="http://www.w3.org/2000/svg">
<path d="M27 6.00049H22V5.00049C22 4.20484 21.6839 3.44178 21.1213 2.87917C20.5587 2.31656 19.7956 2.00049 19 2.00049H13C12.2044 2.00049 11.4413 2.31656 10.8787 2.87917C10.3161 3.44178 10 4.20484 10 5.00049V6.00049H5C4.73478 6.00049 4.48043 6.10585 4.29289 6.29338C4.10536 6.48092 4 6.73527 4 7.00049C4 7.2657 4.10536 7.52006 4.29289 7.70759C4.48043 7.89513 4.73478 8.00049 5 8.00049H6V26.0005C6 26.5309 6.21071 27.0396 6.58579 27.4147C6.96086 27.7898 7.46957 28.0005 8 28.0005H24C24.5304 28.0005 25.0391 27.7898 25.4142 27.4147C25.7893 27.0396 26 26.5309 26 26.0005V8.00049H27C27.2652 8.00049 27.5196 7.89513 27.7071 7.70759C27.8946 7.52006 28 7.2657 28 7.00049C28 6.73527 27.8946 6.48092 27.7071 6.29338C27.5196 6.10585 27.2652 6.00049 27 6.00049ZM12 5.00049C12 4.73527 12.1054 4.48092 12.2929 4.29338C12.4804 4.10585 12.7348 4.00049 13 4.00049H19C19.2652 4.00049 19.5196 4.10585 19.7071 4.29338C19.8946 4.48092 20 4.73527 20 5.00049V6.00049H12V5.00049ZM24 26.0005H8V8.00049H24V26.0005ZM14 13.0005V21.0005C14 21.2657 13.8946 21.5201 13.7071 21.7076C13.5196 21.8951 13.2652 22.0005 13 22.0005C12.7348 22.0005 12.4804 21.8951 12.2929 21.7076C12.1054 21.5201 12 21.2657 12 21.0005V13.0005C12 12.7353 12.1054 12.4809 12.2929 12.2934C12.4804 12.1058 12.7348 12.0005 13 12.0005C13.2652 12.0005 13.5196 12.1058 13.7071 12.2934C13.8946 12.4809 14 12.7353 14 13.0005ZM20 13.0005V21.0005C20 21.2657 19.8946 21.5201 19.7071 21.7076C19.5196 21.8951 19.2652 22.0005 19 22.0005C18.7348 22.0005 18.4804 21.8951 18.2929 21.7076C18.1054 21.5201 18 21.2657 18 21.0005V13.0005C18 12.7353 18.1054 12.4809 18.2929 12.2934C18.4804 12.1058 18.7348 12.0005 19 12.0005C19.2652 12.0005 19.5196 12.1058 19.7071 12.2934C19.8946 12.4809 20 12.7353 20 13.0005Z" fill="currentColor"/>
</svg>
