<svg width="32" height="32" viewBox="0 0 32 32" fill="none" xmlns="http://www.w3.org/2000/svg">
<path d="M14.6558 19.7406C15.9961 18.8483 17.0136 17.5485 17.558 16.0332C18.1023 14.5179 18.1445 12.8676 17.6785 11.3265C17.2124 9.78532 16.2627 8.43507 14.9699 7.47539C13.677 6.51571 12.1097 5.99756 10.4996 5.99756C8.88948 5.99756 7.32212 6.51571 6.02929 7.47539C4.73645 8.43507 3.78677 9.78532 3.32069 11.3265C2.8546 12.8676 2.89685 14.5179 3.4412 16.0332C3.98554 17.5485 5.00307 18.8483 6.34332 19.7406C3.91894 20.6341 1.84846 22.2876 0.440824 24.4544C0.366843 24.5643 0.315457 24.6879 0.28965 24.8179C0.263844 24.9478 0.264133 25.0817 0.2905 25.2115C0.316868 25.3414 0.368788 25.4648 0.443242 25.5744C0.517696 25.684 0.6132 25.7778 0.724202 25.8502C0.835204 25.9226 0.959489 25.9722 1.08983 25.9961C1.22018 26.0201 1.35398 26.0179 1.48347 25.9896C1.61295 25.9614 1.73554 25.9077 1.8441 25.8317C1.95265 25.7557 2.04502 25.6589 2.11582 25.5469C3.02381 24.1503 4.26627 23.0028 5.73037 22.2083C7.19447 21.4139 8.83383 20.9978 10.4996 20.9978C12.1653 20.9978 13.8047 21.4139 15.2688 22.2083C16.7329 23.0028 17.9753 24.1503 18.8833 25.5469C19.03 25.7648 19.2566 25.9164 19.514 25.9686C19.7715 26.0209 20.0392 25.9697 20.2593 25.8262C20.4794 25.6827 20.6341 25.4583 20.6901 25.2016C20.746 24.9449 20.6987 24.6765 20.5583 24.4544C19.1507 22.2876 17.0802 20.6341 14.6558 19.7406ZM4.99957 13.5006C4.99957 12.4128 5.32214 11.3494 5.92649 10.445C6.53084 9.54049 7.38982 8.83555 8.39481 8.41926C9.39981 8.00298 10.5057 7.89406 11.5726 8.10628C12.6395 8.3185 13.6195 8.84233 14.3887 9.61151C15.1579 10.3807 15.6817 11.3607 15.8939 12.4276C16.1061 13.4945 15.9972 14.6004 15.5809 15.6054C15.1646 16.6104 14.4597 17.4693 13.5552 18.0737C12.6507 18.678 11.5874 19.0006 10.4996 19.0006C9.04139 18.9989 7.6434 18.419 6.61231 17.3879C5.58122 16.3568 5.00123 14.9588 4.99957 13.5006ZM31.2671 25.8381C31.0449 25.9829 30.7744 26.0336 30.5149 25.979C30.2554 25.9244 30.0282 25.7689 29.8833 25.5469C28.9764 24.1495 27.7341 23.0014 26.2697 22.2073C24.8053 21.4132 23.1654 20.9984 21.4996 21.0006C21.2344 21.0006 20.98 20.8952 20.7925 20.7077C20.6049 20.5202 20.4996 20.2658 20.4996 20.0006C20.4996 19.7354 20.6049 19.481 20.7925 19.2935C20.98 19.106 21.2344 19.0006 21.4996 19.0006C22.3095 18.9998 23.1093 18.8202 23.8418 18.4745C24.5743 18.1288 25.2214 17.6256 25.7369 17.0008C26.2523 16.376 26.6234 15.6451 26.8237 14.8603C27.0239 14.0755 27.0483 13.2561 26.8952 12.4608C26.7421 11.6654 26.4152 10.9137 25.9378 10.2593C25.4605 9.60498 24.8445 9.06411 24.134 8.67539C23.4234 8.28667 22.6357 8.0597 21.8272 8.01068C21.0187 7.96167 20.2094 8.09182 19.4571 8.39185C19.3344 8.44488 19.2024 8.47278 19.0687 8.47391C18.9351 8.47504 18.8026 8.44937 18.679 8.39843C18.5555 8.34748 18.4434 8.27229 18.3494 8.17729C18.2554 8.08229 18.1814 7.96942 18.1318 7.84534C18.0822 7.72126 18.0579 7.58849 18.0605 7.45487C18.063 7.32126 18.0923 7.18951 18.1466 7.06742C18.201 6.94532 18.2792 6.83535 18.3768 6.74401C18.4743 6.65266 18.5892 6.5818 18.7146 6.5356C20.4364 5.84892 22.3515 5.8242 24.0905 6.46624C25.8295 7.10827 27.2691 8.37155 28.1316 10.0124C28.9941 11.6532 29.2184 13.5553 28.7612 15.3517C28.304 17.1482 27.1978 18.7117 25.6558 19.7406C28.0802 20.6341 30.1507 22.2876 31.5583 24.4544C31.7032 24.6765 31.7539 24.947 31.6992 25.2065C31.6446 25.466 31.4892 25.6932 31.2671 25.8381Z" fill="currentColor"/>
</svg>
