<svg width="32" height="32" viewBox="0 0 32 32" fill="none" xmlns="http://www.w3.org/2000/svg">
<path d="M29.6004 23.5118L18.6691 4.52807C18.396 4.06298 18.006 3.67734 17.5379 3.4094C17.0698 3.14145 16.5397 3.00049 16.0004 3.00049C15.461 3.00049 14.931 3.14145 14.4629 3.4094C13.9947 3.67734 13.6048 4.06298 13.3316 4.52807L2.40036 23.5118C2.13753 23.9617 1.99902 24.4733 1.99902 24.9943C1.99902 25.5153 2.13753 26.027 2.40036 26.4768C2.67003 26.9447 3.05933 27.3325 3.52832 27.6002C3.9973 27.868 4.52909 28.0062 5.06911 28.0006H26.9316C27.4712 28.0057 28.0025 27.8673 28.471 27.5996C28.9395 27.3318 29.3284 26.9444 29.5979 26.4768C29.8611 26.0272 30 25.5157 30.0005 24.9947C30.0009 24.4737 29.8628 23.9619 29.6004 23.5118ZM27.8666 25.4756C27.7713 25.6381 27.6345 25.7724 27.4702 25.8647C27.3059 25.9569 27.12 26.0038 26.9316 26.0006H5.06911C4.88071 26.0038 4.69483 25.9569 4.53053 25.8647C4.36622 25.7724 4.22941 25.6381 4.13411 25.4756C4.04779 25.3294 4.00226 25.1628 4.00226 24.9931C4.00226 24.8233 4.04779 24.6567 4.13411 24.5106L15.0654 5.52682C15.1626 5.36504 15.3 5.23116 15.4643 5.13822C15.6286 5.04528 15.8141 4.99644 16.0029 4.99644C16.1916 4.99644 16.3771 5.04528 16.5414 5.13822C16.7057 5.23116 16.8431 5.36504 16.9404 5.52682L27.8716 24.5106C27.9572 24.6572 28.0018 24.824 28.001 24.9938C28.0001 25.1635 27.9537 25.3299 27.8666 25.4756ZM15.0004 18.0006V13.0006C15.0004 12.7354 15.1057 12.481 15.2933 12.2935C15.4808 12.1059 15.7351 12.0006 16.0004 12.0006C16.2656 12.0006 16.5199 12.1059 16.7075 12.2935C16.895 12.481 17.0004 12.7354 17.0004 13.0006V18.0006C17.0004 18.2658 16.895 18.5201 16.7075 18.7077C16.5199 18.8952 16.2656 19.0006 16.0004 19.0006C15.7351 19.0006 15.4808 18.8952 15.2933 18.7077C15.1057 18.5201 15.0004 18.2658 15.0004 18.0006ZM17.5004 22.5006C17.5004 22.7972 17.4124 23.0873 17.2476 23.3339C17.0827 23.5806 16.8485 23.7729 16.5744 23.8864C16.3003 23.9999 15.9987 24.0296 15.7077 23.9717C15.4168 23.9139 15.1495 23.771 14.9397 23.5612C14.7299 23.3515 14.5871 23.0842 14.5292 22.7932C14.4713 22.5022 14.501 22.2006 14.6145 21.9265C14.7281 21.6525 14.9203 21.4182 15.167 21.2534C15.4137 21.0885 15.7037 21.0006 16.0004 21.0006C16.3982 21.0006 16.7797 21.1586 17.061 21.4399C17.3423 21.7212 17.5004 22.1027 17.5004 22.5006Z" fill="currentColor"/>
</svg>
