<svg width="24" height="18" viewBox="0 0 24 18" fill="none" xmlns="http://www.w3.org/2000/svg">
<g clip-path="url(#clip0_2002_38783)">
<mask id="mask0_2002_38783" style="mask-type:luminance" maskUnits="userSpaceOnUse" x="0" y="0" width="24" height="18">
<path d="M0.000976562 0H23.9986V18H0.000976562V0Z" fill="white"/>
</mask>
<g mask="url(#mask0_2002_38783)">
<path fill-rule="evenodd" clip-rule="evenodd" d="M-1.5 13.5H25.5V18H-1.5V13.5ZM-1.5 0H25.5V4.5H-1.5V0Z" fill="#FF0000"/>
<path fill-rule="evenodd" clip-rule="evenodd" d="M-1.5 4.5H25.5V13.5H-1.5V4.5Z" fill="white"/>
<path d="M11.8633 4.57032C11.5891 5.11524 11.4062 5.11524 10.9492 5.48438C10.7664 5.66368 10.4922 5.75508 10.8578 5.94141C10.4887 6.12071 10.3059 6.21212 10.123 6.57774L10.2145 6.66915C10.2145 6.66915 10.566 6.5004 10.5801 6.57774C10.6434 6.65157 10.123 6.9293 10.0562 6.97501L9.66953 7.2211C9.20898 7.58321 8.93125 7.4918 8.66055 8.04024L9.57461 7.94883C9.75742 8.58868 9.11758 8.68008 8.66055 8.9543L7.92578 9.41133C8.11211 10.0512 8.66055 9.68555 9.11758 9.50274L9.20898 9.59415V9.77696L8.29492 10.234C8.29492 10.234 7.21211 10.8527 7.19453 10.8738C7.1875 10.909 7.19453 11.0566 7.19453 11.0566C7.56016 11.1481 8.10859 11.2395 8.47773 11.0566C8.93477 10.8738 9.02617 10.691 9.57461 10.691C9.04674 11.1029 8.41279 11.3565 7.74648 11.4223V11.7879C8.29492 11.7879 8.66055 11.7879 9.11758 11.6965L10.3059 11.3309C10.5801 11.3309 10.8578 11.6051 10.7629 11.8793C10.4922 12.8848 9.3918 12.702 9.02617 13.5246L10.4887 12.9727C10.8543 12.7899 11.2199 12.6106 11.677 12.702C12.2254 12.8848 12.2254 13.2504 12.9566 13.4332L12.7738 12.9762C12.9566 13.0676 13.1395 13.0676 13.3258 13.159C13.7828 13.3418 13.8742 13.5246 14.4227 13.4332C13.9656 12.8848 13.8742 12.9762 13.5086 12.6106C13.143 12.0621 12.9566 11.2395 13.5086 11.1481L14.1484 11.3309C14.7883 11.4223 14.7883 11.2395 15.7023 11.6051C16.2543 11.7879 16.4371 12.0621 17.0734 11.8793C16.8027 11.2395 15.7973 10.7824 15.1539 10.5996C15.8887 10.1426 15.7023 10.7824 16.7113 10.5082V10.3254C15.9836 9.77344 15.7059 9.31641 14.7004 9.31641L16.2578 9.1336V8.95079C16.2578 8.95079 14.7215 8.55001 14.6863 8.53243C14.6969 8.48672 14.7355 8.41641 14.8375 8.37422C15.1293 8.56407 16.0082 8.54297 16.0609 8.53946C16.0328 8.31446 15.6145 8.12813 15.2523 7.94532C15.2523 7.94532 13.6809 6.97852 13.6738 6.89415C13.7055 6.64805 14.3172 6.93282 14.9746 7.12266C14.7918 6.75704 14.4262 6.57422 14.0605 6.48282L14.609 6.39141C14.2434 5.56876 13.3293 5.66016 12.7809 5.29454C12.4117 5.02032 12.4117 4.83751 11.8633 4.5668V4.57032Z" fill="#007900"/>
<path fill-rule="evenodd" clip-rule="evenodd" d="M10.8752 10.6524C10.942 10.4379 11.0299 10.2445 10.6221 10.0582C10.2143 9.87189 10.826 10.8 10.8752 10.6559V10.6524ZM11.3568 10.2199C11.276 10.2305 11.2303 10.5293 11.3955 10.6137C11.5783 10.6418 11.4307 10.2235 11.3568 10.2199ZM11.8314 10.1848C11.7471 10.2129 11.7436 10.6348 12.0424 10.5574C12.3447 10.4836 12.0424 10.1531 11.8314 10.1883V10.1848ZM12.3869 9.10548C12.4502 9.00001 12.3834 8.57814 12.1268 8.75392C11.8666 8.93322 12.3025 9.13361 12.3869 9.10548ZM11.8244 8.75392C11.9053 8.72228 11.9123 8.46212 11.6838 8.53244C11.4623 8.59923 11.7646 8.80666 11.8244 8.75392ZM11.3182 8.85587C11.3182 8.85587 11.16 8.63791 11.0369 8.68361C10.8857 8.83126 11.3287 8.85939 11.3182 8.85587ZM9.57441 9.55197C9.64121 9.559 10.1369 9.47111 10.3092 9.27775C10.4814 9.08439 9.42676 9.35861 9.42676 9.36212C9.42676 9.36564 9.5252 9.53439 9.57441 9.55197ZM14.535 8.3215C14.5596 8.2758 14.2713 8.07189 14.099 8.15275C14.0533 8.30392 14.535 8.35314 14.535 8.3215ZM13.5576 7.82931C13.6139 7.75197 13.4346 7.43205 13.076 7.61134C12.7174 7.78712 13.4521 7.95587 13.5576 7.83283V7.82931ZM12.4291 7.64298C12.4291 7.64298 12.517 7.3547 12.7314 7.41095C12.9775 7.59728 12.4396 7.65353 12.4291 7.64298ZM12.2182 7.42501C12.183 7.34415 11.9615 7.38986 11.7049 7.56212C11.4447 7.72736 12.2955 7.61134 12.2182 7.4215V7.42501ZM12.8756 6.64806C12.8756 6.64806 13.1041 6.54259 13.1744 6.64806C13.2693 6.79923 12.8721 6.64806 12.8756 6.64806ZM12.6822 6.54611C12.6365 6.4547 12.3834 6.44415 12.3904 6.58126C12.3482 6.68673 12.7209 6.66564 12.6822 6.54611ZM12.0775 6.54611C12.0529 6.49337 11.6908 6.54611 11.5854 6.76408C11.7611 6.84845 12.1584 6.68322 12.0775 6.54611ZM11.3041 6.76759C11.3041 6.76759 10.833 7.05939 10.8014 7.27033C10.8154 7.45314 11.392 6.93986 11.392 6.93986C11.392 6.93986 11.4412 6.73595 11.3076 6.76759H11.3041ZM10.7803 6.50392C10.7943 6.44415 11.0158 6.30705 11.0334 6.31759C11.051 6.37736 10.8541 6.53908 10.7803 6.50392ZM10.9314 7.61486C10.942 7.52697 10.3689 7.534 10.5834 7.79767C10.7662 8.01916 10.9701 7.65353 10.9314 7.61486ZM10.4041 7.99103C10.376 7.93478 10.3338 7.78009 10.2564 7.76603C10.1896 7.76603 9.84512 7.83634 9.81699 7.89259C9.80293 7.9383 9.96113 8.22306 10.0139 8.23009C10.0771 8.2547 10.3971 8.01916 10.4076 7.99103H10.4041ZM13.5119 9.93166C13.5295 9.86837 14.1201 9.66798 14.3205 9.86134C14.5596 10.1883 13.4979 10.0371 13.5119 9.93166ZM15.1291 10.3149C15.2592 10.0969 14.7318 9.83673 14.5104 10.0863C14.5877 10.3852 15.0236 10.4942 15.1291 10.3149Z" fill="white" stroke="white" stroke-width="0.375" stroke-linecap="round" stroke-linejoin="round"/>
</g>
</g>
<defs>
<clipPath id="clip0_2002_38783">
<path d="M0 4C0 1.79086 1.79086 0 4 0H20C22.2091 0 24 1.79086 24 4V14C24 16.2091 22.2091 18 20 18H4C1.79086 18 0 16.2091 0 14V4Z" fill="white"/>
</clipPath>
</defs>
</svg>
