<svg width="24" height="18" viewBox="0 0 24 18" fill="none" xmlns="http://www.w3.org/2000/svg">
<g clip-path="url(#clip0_2002_38566)">
<mask id="mask0_2002_38566" style="mask-type:luminance" maskUnits="userSpaceOnUse" x="0" y="0" width="24" height="18">
<path d="M0 0H24V18H0V0Z" fill="white"/>
</mask>
<g mask="url(#mask0_2002_38566)">
<path fill-rule="evenodd" clip-rule="evenodd" d="M-0.75 0H26.25V18H-0.75V0Z" fill="white"/>
<path fill-rule="evenodd" clip-rule="evenodd" d="M-0.75 0H26.25V9H-0.75V0Z" fill="#DF0000"/>
<path fill-rule="evenodd" clip-rule="evenodd" d="M5.47537 1.50749C4.76505 1.66014 4.12887 2.05253 3.67365 2.61878C3.21843 3.18502 2.97188 3.89064 2.9754 4.61717C2.97892 5.3437 3.23229 6.0469 3.69297 6.60871C4.15366 7.17052 4.79361 7.55673 5.50537 7.70249C5.09762 7.82048 4.67059 7.85681 4.24877 7.80941C3.82695 7.762 3.41863 7.63179 3.04725 7.42623C2.67586 7.22068 2.3487 6.94383 2.08454 6.61157C1.82038 6.2793 1.62441 5.89816 1.50787 5.48999C1.27641 4.66953 1.37922 3.79079 1.79382 3.04591C2.20843 2.30103 2.90109 1.75061 3.72037 1.51499C4.32037 1.34249 4.87537 1.33874 5.47912 1.50749H5.47537Z" fill="white"/>
<path fill-rule="evenodd" clip-rule="evenodd" d="M4.98789 4.12498L5.17164 4.68748L4.68414 4.34248L4.20414 4.69498L4.38039 4.12498L3.90039 3.77623L4.49664 3.76873L4.68414 3.20623L4.87164 3.76873H5.46414L4.98789 4.12498ZM5.64414 6.07498L5.83164 6.64123L5.34414 6.29623L4.86039 6.64498L5.04039 6.07873L4.56039 5.72623L5.15664 5.72248L5.34039 5.15623L5.52789 5.71873H6.12789L5.64414 6.07498ZM7.83789 6.05998L8.02164 6.62998L7.53414 6.28123L7.05414 6.62998L7.23039 6.06373L6.75039 5.71498L7.34664 5.70748L7.53414 5.14498L7.72164 5.70748H8.31414L7.83789 6.05998ZM8.49039 4.12498L8.67414 4.69123L8.18664 4.34623L7.70664 4.69498L7.88664 4.12873L7.40289 3.77623L8.00289 3.77248L8.18289 3.20623L8.37039 3.76873H8.97039L8.49039 4.12498ZM6.75414 2.83873L6.94164 3.40873L6.45414 3.05998L5.97039 3.41248L6.15039 2.84248L5.67039 2.48998L6.26289 2.48623L6.45039 1.91998L6.63789 2.48248H7.23789L6.75414 2.83873Z" fill="white"/>
</g>
</g>
<defs>
<clipPath id="clip0_2002_38566">
<path d="M0 4C0 1.79086 1.79086 0 4 0H20C22.2091 0 24 1.79086 24 4V14C24 16.2091 22.2091 18 20 18H4C1.79086 18 0 16.2091 0 14V4Z" fill="white"/>
</clipPath>
</defs>
</svg>
