<svg width="24" height="18" viewBox="0 0 24 18" fill="none" xmlns="http://www.w3.org/2000/svg">
<g clip-path="url(#clip0_2002_38545)">
<path fill-rule="evenodd" clip-rule="evenodd" d="M0 0H34.2V1.38517H0V0ZM0 2.77031H34.2V4.15549H0V2.77031ZM0 5.5371H34.2V6.92576H0V5.5371ZM0 8.30741H34.2V9.69259H0V8.30741ZM0 11.0777H34.2V12.4629H0V11.0777ZM0 13.8445H34.2V15.2297H0V13.8445ZM0 16.6148H34.2V18H0V16.6148Z" fill="#BD3D44"/>
<path fill-rule="evenodd" clip-rule="evenodd" d="M0 1.38519H34.2V2.77033H0V1.38519ZM0 4.15547H34.2V5.53712H0V4.15547ZM0 6.92229H34.2V8.30743H0V6.92229ZM0 9.69261H34.2V11.0777H0V9.69261ZM0 12.4629H34.2V13.8481H0V12.4629ZM0 15.2297H34.2V16.6149H0V15.2297Z" fill="white"/>
<path fill-rule="evenodd" clip-rule="evenodd" d="M0 0H13.6793V9.69259H0V0Z" fill="#192F5D"/>
<path fill-rule="evenodd" clip-rule="evenodd" d="M1.13865 0.414856L1.26522 0.797993H1.66602L1.34254 1.03357L1.46562 1.42027L1.13865 1.18121L0.815216 1.41674L0.938253 1.03357L0.611328 0.797993H1.01914L1.13865 0.414856ZM3.4203 0.414856L3.54334 0.797993H3.94763L3.62067 1.03357L3.74374 1.42027L3.4203 1.18121L3.09334 1.41674L3.21638 1.03357L2.89294 0.797993H3.29374L3.4203 0.414856ZM5.69843 0.414856L5.82499 0.798031H6.22227L5.89883 1.03361L6.02183 1.42031L5.6949 1.18124L5.37147 1.41678L5.4945 1.03361L5.16754 0.798031H5.57187L5.69843 0.414856ZM7.98008 0.414856L8.10308 0.798031H8.5074L8.18044 1.03361L8.307 1.42031L7.98004 1.18124L7.65311 1.41678L7.77968 1.03361L7.45271 0.798031H7.85352L7.98008 0.414856ZM10.2582 0.414856L10.3848 0.798031H10.7855L10.4621 1.03361L10.5851 1.42031L10.2582 1.18124L9.93473 1.41678L10.0578 1.03361L9.73436 0.798031H10.1351L10.2582 0.414856ZM12.5398 0.414856L12.6629 0.798031H13.0672L12.7402 1.03361L12.8668 1.42031L12.5398 1.18124L12.2129 1.41678L12.3394 1.03361L12.0125 0.798031H12.4168L12.5398 0.414856ZM2.28124 1.38509L2.40428 1.76834H2.80857L2.4816 2.00384L2.60115 2.38709L2.28473 2.15152L1.9578 2.38706L2.07379 2.00388L1.7574 1.76831H2.1582L2.28124 1.38509ZM4.55937 1.38509L4.68593 1.76834H5.08669L4.75973 2.00384L4.88633 2.38709L4.55933 2.15152L4.2324 2.38706L4.35897 2.00388L4.032 1.76831H4.43629L4.55937 1.38509ZM6.84102 1.38509L6.96402 1.76834H7.36834L7.04138 2.00384L7.16441 2.38709L6.84098 2.15152L6.51405 2.38706L6.63709 2.00392L6.31365 1.76834H6.71445L6.84102 1.38509ZM9.11914 1.38509L9.2457 1.76834H9.64647L9.3195 2.00384L9.44606 2.38709L9.1191 2.15152L8.79566 2.38706L8.91874 2.00388L8.59178 1.76831H8.99959L9.11914 1.38509ZM11.4008 1.38509L11.5238 1.76834H11.9281L11.6012 2.00384L11.7242 2.38709L11.4008 2.15152L11.0738 2.38706L11.1969 2.00388L10.8734 1.76831H11.2742L11.4008 1.38509ZM1.13865 2.35199L1.26522 2.74222H1.66602L1.34254 2.97776L1.46562 3.36097L1.13865 3.12191L0.815216 3.36097L0.938253 2.97423L0.611328 2.73873H1.01914L1.13865 2.35199ZM3.4203 2.35199L3.54334 2.73862H3.94763L3.62067 2.97416L3.74374 3.35741L3.4203 3.11831L3.09334 3.35737L3.21638 2.97067L2.89294 2.73513H3.29374L3.4203 2.35199ZM5.69843 2.35199L5.82499 2.73869H6.22227L5.89883 2.97423L6.02183 3.35748L5.6949 3.11838L5.37147 3.35744L5.4945 2.97074L5.16754 2.73521H5.57187L5.69843 2.35199ZM7.98008 2.35199L8.10308 2.73869H8.5074L8.18044 2.97423L8.307 3.35748L7.98004 3.11838L7.65311 3.35744L7.77968 2.97074L7.45271 2.73521H7.85352L7.98008 2.35199ZM10.2582 2.35199L10.3848 2.73869H10.7855L10.4621 2.97419L10.5851 3.35744L10.2582 3.11834L9.93473 3.35741L10.0578 2.97071L9.73436 2.73517H10.1351L10.2582 2.35199ZM12.5398 2.35199L12.6629 2.73869H13.0672L12.7402 2.97423L12.8668 3.35748L12.5398 3.11838L12.2129 3.35744L12.3394 2.97074L12.0125 2.73521H12.4168L12.5398 2.35199ZM2.28124 3.32227L2.40428 3.70548H2.80857L2.4816 3.94098L2.60468 4.32772L2.28124 4.08866L1.95428 4.32419L2.07732 3.94102L1.75388 3.70548H2.15472L2.28124 3.32227ZM4.55937 3.32227L4.68593 3.70548H5.08669L4.75973 3.94098L4.88633 4.32772L4.55933 4.08866L4.2324 4.32419L4.35897 3.94102L4.032 3.70548H4.43629L4.55937 3.32227ZM6.84102 3.32227L6.96402 3.70548H7.36834L7.04138 3.94098L7.16441 4.32772L6.84098 4.08866L6.51405 4.32419L6.63709 3.94102L6.31365 3.70548H6.71445L6.84102 3.32227ZM9.11914 3.32227L9.2457 3.70548H9.64647L9.32303 3.94098L9.44606 4.32772L9.1191 4.08866L8.79566 4.32419L8.91874 3.94102L8.59178 3.70548H8.99959L9.11914 3.32227ZM11.4008 3.32227L11.5238 3.70548H11.9281L11.6012 3.94098L11.7242 4.32772L11.4008 4.08866L11.0738 4.32419L11.1969 3.94102L10.8734 3.70548H11.2742L11.4008 3.32227ZM1.13865 4.29258L1.26522 4.67579H1.66602L1.34254 4.91129L1.46562 5.29803L1.13865 5.05897L0.815216 5.29451L0.938253 4.91133L0.611328 4.67579H1.01914L1.13865 4.29258ZM3.4203 4.29258L3.54334 4.67579H3.94763L3.62067 4.91129L3.74374 5.29454L3.4203 5.05897L3.09334 5.29451L3.21638 4.91133L2.89294 4.67579H3.29374L3.4203 4.29258ZM5.69843 4.29258L5.82499 4.67579H6.22227L5.89883 4.91129L6.02183 5.29803L5.6949 5.05897L5.37147 5.29451L5.4945 4.91133L5.16754 4.67579H5.57187L5.69843 4.29258ZM7.98008 4.29258L8.10308 4.67579H8.5074L8.18044 4.91129L8.307 5.29803L7.98004 5.05897L7.65311 5.29451L7.77968 4.91133L7.45271 4.67579H7.85352L7.98008 4.29258ZM10.2582 4.29258L10.3848 4.67579H10.7855L10.4621 4.91129L10.5851 5.29803L10.2582 5.05897L9.93473 5.29451L10.0578 4.91133L9.73436 4.67579H10.1351L10.2582 4.29258ZM12.5398 4.29258L12.6629 4.67579H13.0672L12.7402 4.91129L12.8668 5.29803L12.5398 5.05897L12.2129 5.29451L12.3394 4.91133L12.0125 4.67579H12.4168L12.5398 4.29258ZM2.28124 5.26289L2.40428 5.64611H2.80857L2.4816 5.88161L2.60468 6.26486L2.28124 6.02579L1.95428 6.26486L2.07732 5.87812L1.75388 5.64258H2.15472L2.28124 5.26289ZM4.55937 5.26289L4.68593 5.64611H5.08669L4.75973 5.88161L4.88633 6.26486L4.55933 6.02579L4.2324 6.26486L4.35897 5.87812L4.032 5.64258H4.43629L4.55937 5.26289ZM6.84102 5.26289L6.96402 5.64611H7.36834L7.04138 5.88161L7.16441 6.26486L6.84098 6.02579L6.51405 6.26486L6.63709 5.87812L6.31365 5.64258H6.71445L6.84102 5.26289ZM9.11914 5.26289L9.2457 5.64611H9.64647L9.32303 5.88161L9.44606 6.26486L9.1191 6.02579L8.79566 6.26486L8.91874 5.87812L8.59178 5.64258H8.99959L9.11914 5.26289ZM11.4008 5.26289L11.5238 5.64611H11.9281L11.6012 5.88161L11.7242 6.26486L11.4008 6.02579L11.0738 6.26486L11.1969 5.87812L10.8734 5.64258H11.2742L11.4008 5.26289ZM1.13865 6.22968L1.26522 6.61642H1.66602L1.34254 6.85192L1.46562 7.23164L1.13865 6.99611L0.815216 7.23161L0.938253 6.84843L0.611328 6.61289H1.01914L1.13865 6.22968ZM3.4203 6.22968L3.54334 6.61642H3.94763L3.62067 6.85192L3.74727 7.23164L3.42027 6.99611L3.09334 7.23161L3.2199 6.84843L2.89294 6.61289H3.29374L3.4203 6.22968ZM5.69843 6.22968L5.82499 6.61642H6.22227L5.89883 6.85192L6.02183 7.23164L5.6949 6.99611L5.37147 7.23161L5.4945 6.84843L5.16754 6.61289H5.57187L5.69843 6.22968ZM7.98008 6.22968L8.10308 6.61642H8.5074L8.18044 6.85192L8.307 7.23164L7.98004 6.99611L7.65311 7.23161L7.77968 6.84843L7.45271 6.61289H7.85352L7.98008 6.22968ZM10.2582 6.22968L10.3848 6.61642H10.7855L10.4621 6.85192L10.5851 7.23164L10.2582 6.99611L9.93473 7.23161L10.0578 6.84843L9.73436 6.61289H10.1351L10.2582 6.22968ZM12.5398 6.22968L12.6629 6.61642H13.0672L12.7402 6.85192L12.8668 7.23164L12.5398 6.99611L12.2129 7.23161L12.3394 6.84843L12.0125 6.61289H12.4168L12.5398 6.22968ZM2.28124 7.19999L2.40428 7.58321H2.80857L2.4816 7.81874L2.60468 8.20548L2.28124 7.96642L1.95428 8.20192L2.07732 7.81874L1.75388 7.58321H2.15472L2.28124 7.19999ZM4.55937 7.19999L4.68593 7.58321H5.08669L4.75973 7.81874L4.88633 8.20548L4.55933 7.96642L4.2324 8.20192L4.35897 7.81874L4.032 7.58321H4.43629L4.55937 7.19999ZM6.84102 7.19999L6.96402 7.58321H7.36834L7.04138 7.81874L7.16441 8.20548L6.84098 7.96642L6.51405 8.20192L6.63709 7.81874L6.31365 7.58321H6.71445L6.84102 7.19999ZM9.11914 7.19999L9.2457 7.58321H9.64647L9.32303 7.81874L9.44606 8.20548L9.1191 7.96642L8.79566 8.20192L8.91874 7.81874L8.59178 7.58321H8.99959L9.11914 7.19999ZM11.4008 7.19999L11.5238 7.58321H11.9281L11.6012 7.81874L11.7242 8.20548L11.4008 7.96642L11.0738 8.20192L11.1969 7.81874L10.8734 7.58321H11.2742L11.4008 7.19999ZM1.13865 8.17031L1.26522 8.55352H1.66602L1.34254 8.78905L1.46562 9.17227L1.13865 8.93673L0.815216 9.17223L0.938253 8.78553L0.611328 8.54999H1.01914L1.13865 8.17031ZM3.4203 8.17031L3.54334 8.55352H3.94763L3.62067 8.78905L3.74727 9.17227L3.42027 8.93673L3.09334 9.17223L3.2199 8.78553L2.89294 8.54999H3.29374L3.4203 8.17031ZM5.69843 8.17031L5.82499 8.55352H6.22227L5.90584 8.78905L6.02888 9.17227L5.70192 8.93673L5.37848 9.17223L5.50155 8.78553L5.17459 8.54999H5.57888L5.69843 8.17031ZM7.98008 8.17031L8.10308 8.55352H8.5074L8.18044 8.78905L8.307 9.17227L7.98004 8.93673L7.65311 9.17223L7.77968 8.78553L7.45271 8.54999H7.85352L7.98008 8.17031ZM10.2582 8.17031L10.3848 8.55352H10.7855L10.4621 8.78905L10.5851 9.17227L10.2582 8.93673L9.93473 9.17223L10.0578 8.78553L9.73436 8.54999H10.1351L10.2582 8.17031ZM12.5398 8.17031L12.6629 8.55352H13.0672L12.7402 8.78905L12.8668 9.17227L12.5398 8.93673L12.2129 9.17223L12.3394 8.78553L12.0125 8.54999H12.4168L12.5398 8.17031Z" fill="white"/>
</g>
<defs>
<clipPath id="clip0_2002_38545">
<path d="M0 4C0 1.79086 1.79086 0 4 0H20C22.2091 0 24 1.79086 24 4V14C24 16.2091 22.2091 18 20 18H4C1.79086 18 0 16.2091 0 14V4Z" fill="white"/>
</clipPath>
</defs>
</svg>
