<svg width="32" height="32" viewBox="0 0 32 32" fill="none" xmlns="http://www.w3.org/2000/svg">
<path d="M29.9997 7.00058V13.0006C29.9997 13.2658 29.8943 13.5202 29.7068 13.7077C29.5193 13.8952 29.2649 14.0006 28.9997 14.0006H22.9997C22.7345 14.0006 22.4801 13.8952 22.2926 13.7077C22.105 13.5202 21.9997 13.2658 21.9997 13.0006C21.9997 12.7354 22.105 12.481 22.2926 12.2935C22.4801 12.1059 22.7345 12.0006 22.9997 12.0006H26.4247L23.1009 8.95558L23.0697 8.92558C21.6798 7.5362 19.9113 6.58716 17.9851 6.19702C16.059 5.80688 14.0606 5.99294 12.2396 6.73196C10.4185 7.47098 8.85564 8.73019 7.74611 10.3523C6.63658 11.9744 6.0296 13.8875 6.00101 15.8525C5.97242 17.8176 6.52348 19.7475 7.58535 21.4012C8.64722 23.0549 10.1728 24.359 11.9716 25.1507C13.7703 25.9424 15.7625 26.1865 17.6991 25.8526C19.6358 25.5186 21.4312 24.6214 22.8609 23.2731C23.0537 23.0907 23.311 22.9925 23.5763 22.9998C23.8415 23.0072 24.093 23.1197 24.2753 23.3125C24.4576 23.5052 24.5559 23.7626 24.5485 24.0278C24.5412 24.293 24.4287 24.5445 24.2359 24.7268C22.0128 26.8352 19.0636 28.0075 15.9997 28.0006H15.8347C13.8694 27.9737 11.9407 27.4644 10.2183 26.5176C8.49589 25.5707 7.03241 24.2153 5.95651 22.5704C4.8806 20.9255 4.22521 19.0415 4.04793 17.084C3.87066 15.1265 4.17693 13.1554 4.93982 11.344C5.70271 9.53261 6.89888 7.93632 8.42317 6.69545C9.94747 5.45458 11.7532 4.60713 13.6817 4.22758C15.6103 3.84802 17.6025 3.94799 19.4833 4.51869C21.3642 5.08939 23.076 6.11336 24.4684 7.50058L27.9997 10.7256V7.00058C27.9997 6.73537 28.105 6.48101 28.2926 6.29348C28.4801 6.10594 28.7345 6.00058 28.9997 6.00058C29.2649 6.00058 29.5193 6.10594 29.7068 6.29348C29.8943 6.48101 29.9997 6.73537 29.9997 7.00058Z" fill="#434344"/>
</svg>
