<svg width="32" height="32" viewBox="0 0 32 32" fill="none" xmlns="http://www.w3.org/2000/svg">
<path d="M27.9998 16.0006C27.9998 16.2658 27.8945 16.5201 27.7069 16.7077C27.5194 16.8952 27.265 17.0006 26.9998 17.0006H7.41356L14.7073 24.2931C14.8002 24.386 14.8739 24.4963 14.9242 24.6177C14.9745 24.7391 15.0004 24.8692 15.0004 25.0006C15.0004 25.132 14.9745 25.2621 14.9242 25.3835C14.8739 25.5048 14.8002 25.6151 14.7073 25.7081C14.6144 25.801 14.5041 25.8747 14.3827 25.9249C14.2613 25.9752 14.1312 26.0011 13.9998 26.0011C13.8684 26.0011 13.7383 25.9752 13.6169 25.9249C13.4955 25.8747 13.3852 25.801 13.2923 25.7081L4.29231 16.7081C4.19933 16.6152 4.12557 16.5049 4.07525 16.3835C4.02493 16.2621 3.99902 16.132 3.99902 16.0006C3.99902 15.8691 4.02493 15.739 4.07525 15.6176C4.12557 15.4962 4.19933 15.3859 4.29231 15.2931L13.2923 6.29306C13.4799 6.10542 13.7344 6 13.9998 6C14.2652 6 14.5197 6.10542 14.7073 6.29306C14.895 6.4807 15.0004 6.73519 15.0004 7.00056C15.0004 7.26592 14.895 7.52042 14.7073 7.70806L7.41356 15.0006H26.9998C27.265 15.0006 27.5194 15.1059 27.7069 15.2934C27.8945 15.481 27.9998 15.7353 27.9998 16.0006Z" fill="currentColor"/>
</svg>
