<svg width="32" height="32" viewBox="0 0 32 32" fill="none" xmlns="http://www.w3.org/2000/svg">
<path d="M27.7245 21.993C27.0308 20.798 25.9995 17.4167 25.9995 13.0005C25.9995 10.3483 24.946 7.80478 23.0706 5.92942C21.1952 4.05406 18.6517 3.00049 15.9995 3.00049C13.3474 3.00049 10.8038 4.05406 8.92846 5.92942C7.0531 7.80478 5.99953 10.3483 5.99953 13.0005C5.99953 17.418 4.96703 20.798 4.27328 21.993C4.09612 22.2968 4.0022 22.6419 4.00099 22.9936C3.99978 23.3453 4.09133 23.6911 4.2664 23.9961C4.44147 24.3011 4.69388 24.5546 4.99816 24.7309C5.30244 24.9072 5.64784 25.0002 5.99953 25.0005H11.1008C11.3315 26.1294 11.9451 27.144 12.8377 27.8727C13.7303 28.6014 14.8472 28.9994 15.9995 28.9994C17.1518 28.9994 18.2687 28.6014 19.1614 27.8727C20.054 27.144 20.6676 26.1294 20.8983 25.0005H25.9995C26.3511 25 26.6964 24.9069 27.0005 24.7304C27.3046 24.554 27.5568 24.3005 27.7317 23.9956C27.9066 23.6906 27.9981 23.3449 27.9968 22.9933C27.9956 22.6417 27.9016 22.2967 27.7245 21.993ZM15.9995 27.0005C15.3793 27.0003 14.7744 26.8079 14.268 26.4497C13.7617 26.0915 13.3788 25.5852 13.172 25.0005H18.827C18.6203 25.5852 18.2374 26.0915 17.731 26.4497C17.2247 26.8079 16.6198 27.0003 15.9995 27.0005ZM5.99953 23.0005C6.96203 21.3455 7.99953 17.5105 7.99953 13.0005C7.99953 10.8788 8.84238 8.84392 10.3427 7.34363C11.843 5.84334 13.8778 5.00049 15.9995 5.00049C18.1213 5.00049 20.1561 5.84334 21.6564 7.34363C23.1567 8.84392 23.9995 10.8788 23.9995 13.0005C23.9995 17.5067 25.0345 21.3417 25.9995 23.0005H5.99953Z" fill="currentColor"/>
</svg>
