<svg width="32" height="32" viewBox="0 0 32 32" fill="none" xmlns="http://www.w3.org/2000/svg">
<path d="M26 4.00049H23V3.00049C23 2.73527 22.8946 2.48092 22.7071 2.29338C22.5196 2.10585 22.2652 2.00049 22 2.00049C21.7348 2.00049 21.4804 2.10585 21.2929 2.29338C21.1054 2.48092 21 2.73527 21 3.00049V4.00049H11V3.00049C11 2.73527 10.8946 2.48092 10.7071 2.29338C10.5196 2.10585 10.2652 2.00049 10 2.00049C9.73478 2.00049 9.48043 2.10585 9.29289 2.29338C9.10536 2.48092 9 2.73527 9 3.00049V4.00049H6C5.46957 4.00049 4.96086 4.2112 4.58579 4.58627C4.21071 4.96135 4 5.47006 4 6.00049V26.0005C4 26.5309 4.21071 27.0396 4.58579 27.4147C4.96086 27.7898 5.46957 28.0005 6 28.0005H26C26.5304 28.0005 27.0391 27.7898 27.4142 27.4147C27.7893 27.0396 28 26.5309 28 26.0005V6.00049C28 5.47006 27.7893 4.96135 27.4142 4.58627C27.0391 4.2112 26.5304 4.00049 26 4.00049ZM9 6.00049V7.00049C9 7.2657 9.10536 7.52006 9.29289 7.70759C9.48043 7.89513 9.73478 8.00049 10 8.00049C10.2652 8.00049 10.5196 7.89513 10.7071 7.70759C10.8946 7.52006 11 7.2657 11 7.00049V6.00049H21V7.00049C21 7.2657 21.1054 7.52006 21.2929 7.70759C21.4804 7.89513 21.7348 8.00049 22 8.00049C22.2652 8.00049 22.5196 7.89513 22.7071 7.70759C22.8946 7.52006 23 7.2657 23 7.00049V6.00049H26V10.0005H6V6.00049H9ZM26 26.0005H6V12.0005H26V26.0005Z" fill="currentColor"/>
</svg>
