<svg width="32" height="32" viewBox="0 0 32 32" fill="none" xmlns="http://www.w3.org/2000/svg">
<path d="M16 3.00049C13.4288 3.00049 10.9154 3.76293 8.77759 5.19138C6.63975 6.61984 4.97351 8.65016 3.98957 11.0256C3.00563 13.401 2.74819 16.0149 3.2498 18.5367C3.75141 21.0584 4.98953 23.3748 6.80762 25.1929C8.6257 27.011 10.9421 28.2491 13.4638 28.7507C15.9856 29.2523 18.5995 28.9949 20.9749 28.0109C23.3503 27.027 25.3807 25.3607 26.8091 23.2229C28.2376 21.0851 29 18.5716 29 16.0005C28.9964 12.5538 27.6256 9.2493 25.1884 6.81212C22.7512 4.37494 19.4467 3.00413 16 3.00049ZM16 27.0005C13.8244 27.0005 11.6977 26.3554 9.88873 25.1467C8.07979 23.938 6.66989 22.22 5.83733 20.21C5.00477 18.2 4.78693 15.9883 5.21137 13.8545C5.63581 11.7207 6.68345 9.76069 8.22183 8.22231C9.76021 6.68394 11.7202 5.63629 13.854 5.21185C15.9878 4.78741 18.1995 5.00525 20.2095 5.83781C22.2195 6.67038 23.9375 8.08027 25.1462 9.88922C26.3549 11.6982 27 13.8249 27 16.0005C26.9967 18.9169 25.8367 21.7128 23.7745 23.775C21.7123 25.8372 18.9164 26.9972 16 27.0005ZM19.7075 15.293C19.8005 15.3859 19.8742 15.4962 19.9246 15.6175C19.9749 15.7389 20.0008 15.8691 20.0008 16.0005C20.0008 16.1319 19.9749 16.262 19.9246 16.3834C19.8742 16.5048 19.8005 16.6151 19.7075 16.708L14.7075 21.708C14.6146 21.8009 14.5043 21.8746 14.3829 21.9249C14.2615 21.9752 14.1314 22.001 14 22.001C13.8686 22.001 13.7385 21.9752 13.6171 21.9249C13.4957 21.8746 13.3854 21.8009 13.2925 21.708C13.1996 21.6151 13.1259 21.5048 13.0756 21.3834C13.0253 21.262 12.9994 21.1319 12.9994 21.0005C12.9994 20.8691 13.0253 20.739 13.0756 20.6176C13.1259 20.4962 13.1996 20.3859 13.2925 20.293L17.5863 16.0005L13.2925 11.708C13.1049 11.5203 12.9994 11.2659 12.9994 11.0005C12.9994 10.7351 13.1049 10.4806 13.2925 10.293C13.4801 10.1053 13.7346 9.99993 14 9.99993C14.2654 9.99993 14.5199 10.1053 14.7075 10.293L19.7075 15.293Z" fill="currentColor"/>
</svg>
