<svg width="32" height="32" viewBox="0 0 32 32" fill="none" xmlns="http://www.w3.org/2000/svg">
<path d="M16 3.00037C13.4288 3.00037 10.9154 3.7628 8.77759 5.19126C6.63975 6.61972 4.97351 8.65004 3.98957 11.0255C3.00563 13.4009 2.74819 16.0148 3.2498 18.5365C3.75141 21.0583 4.98953 23.3747 6.80762 25.1928C8.6257 27.0108 10.9421 28.249 13.4638 28.7506C15.9856 29.2522 18.5995 28.9947 20.9749 28.0108C23.3503 27.0269 25.3807 25.3606 26.8091 23.2228C28.2376 21.0849 29 18.5715 29 16.0004C28.9964 12.5537 27.6256 9.24918 25.1884 6.812C22.7512 4.37481 19.4467 3.00401 16 3.00037ZM24.9838 9.65912L17 14.2679V5.04662C18.5853 5.19195 20.1201 5.67964 21.4985 6.47599C22.8769 7.27234 24.066 8.35838 24.9838 9.65912ZM15 5.04662V15.4216L6.01376 20.6091C5.27606 19.0102 4.933 17.2575 5.01344 15.4984C5.09388 13.7393 5.59546 12.0253 6.47601 10.5003C7.35656 8.97537 8.59034 7.68411 10.0736 6.73509C11.5569 5.78606 13.2464 5.20701 15 5.04662ZM16 27.0004C14.239 26.9996 12.5039 26.5761 10.9406 25.7654C9.37726 24.9547 8.03144 23.7806 7.01626 22.3416L25.9863 11.3904C26.7598 13.0663 27.0992 14.91 26.9732 16.7515C26.8471 18.5931 26.2597 20.3733 25.265 21.9282C24.2702 23.4831 22.9002 24.7627 21.2811 25.6491C19.662 26.5355 17.8459 27.0002 16 27.0004Z" fill="currentColor"/>
</svg>
