<svg width="32" height="32" viewBox="0 0 32 32" fill="none" xmlns="http://www.w3.org/2000/svg">
<path d="M28 6.00049H4C3.73478 6.00049 3.48043 6.10585 3.29289 6.29338C3.10536 6.48092 3 6.73527 3 7.00049V24.0005C3 24.5309 3.21071 25.0396 3.58579 25.4147C3.96086 25.7898 4.46957 26.0005 5 26.0005H27C27.5304 26.0005 28.0391 25.7898 28.4142 25.4147C28.7893 25.0396 29 24.5309 29 24.0005V7.00049C29 6.73527 28.8946 6.48092 28.7071 6.29338C28.5196 6.10585 28.2652 6.00049 28 6.00049ZM25.4287 8.00049L16 16.6442L6.57125 8.00049H25.4287ZM27 24.0005H5V9.27424L15.3237 18.738C15.5082 18.9073 15.7496 19.0013 16 19.0013C16.2504 19.0013 16.4918 18.9073 16.6763 18.738L27 9.27424V24.0005Z" fill="currentColor"/>
</svg>
