<svg width="32" height="32" viewBox="0 0 32 32" fill="none" xmlns="http://www.w3.org/2000/svg">
<path d="M30.9137 15.5955C30.87 15.4967 29.8112 13.148 27.4575 10.7942C24.3212 7.65799 20.36 6.00049 16 6.00049C11.64 6.00049 7.67874 7.65799 4.54249 10.7942C2.18874 13.148 1.12499 15.5005 1.08624 15.5955C1.02938 15.7234 1 15.8618 1 16.0017C1 16.1417 1.02938 16.2801 1.08624 16.408C1.12999 16.5067 2.18874 18.8542 4.54249 21.208C7.67874 24.343 11.64 26.0005 16 26.0005C20.36 26.0005 24.3212 24.343 27.4575 21.208C29.8112 18.8542 30.87 16.5067 30.9137 16.408C30.9706 16.2801 31 16.1417 31 16.0017C31 15.8618 30.9706 15.7234 30.9137 15.5955ZM16 24.0005C12.1525 24.0005 8.79124 22.6017 6.00874 19.8442C4.86704 18.7089 3.89572 17.4142 3.12499 16.0005C3.89551 14.5867 4.86686 13.292 6.00874 12.1567C8.79124 9.39924 12.1525 8.00049 16 8.00049C19.8475 8.00049 23.2087 9.39924 25.9912 12.1567C27.1352 13.2917 28.1086 14.5864 28.8812 16.0005C27.98 17.683 24.0537 24.0005 16 24.0005ZM16 10.0005C14.8133 10.0005 13.6533 10.3524 12.6666 11.0117C11.6799 11.671 10.9108 12.608 10.4567 13.7044C10.0026 14.8007 9.88377 16.0071 10.1153 17.171C10.3468 18.3349 10.9182 19.404 11.7573 20.2431C12.5965 21.0822 13.6656 21.6537 14.8294 21.8852C15.9933 22.1167 17.1997 21.9979 18.2961 21.5438C19.3924 21.0896 20.3295 20.3206 20.9888 19.3339C21.6481 18.3472 22 17.1872 22 16.0005C21.9983 14.4097 21.3657 12.8845 20.2408 11.7597C19.1159 10.6348 17.5908 10.0021 16 10.0005ZM16 20.0005C15.2089 20.0005 14.4355 19.7659 13.7777 19.3264C13.1199 18.8868 12.6072 18.2621 12.3045 17.5312C12.0017 16.8003 11.9225 15.9961 12.0768 15.2201C12.2312 14.4442 12.6122 13.7315 13.1716 13.1721C13.731 12.6127 14.4437 12.2317 15.2196 12.0773C15.9956 11.923 16.7998 12.0022 17.5307 12.305C18.2616 12.6077 18.8863 13.1204 19.3259 13.7782C19.7654 14.436 20 15.2094 20 16.0005C20 17.0614 19.5786 18.0788 18.8284 18.8289C18.0783 19.5791 17.0609 20.0005 16 20.0005Z" fill="currentColor"/>
</svg>
