<svg width="32" height="32" viewBox="0 0 32 32" fill="none" xmlns="http://www.w3.org/2000/svg">
<path d="M6.73999 4.32807C6.65217 4.22908 6.54558 4.1485 6.42639 4.09101C6.3072 4.03352 6.17778 4.00025 6.04564 3.99314C5.91351 3.98603 5.78127 4.00522 5.6566 4.0496C5.53193 4.09397 5.41731 4.16265 5.31938 4.25165C5.22144 4.34064 5.14215 4.4482 5.08609 4.56807C5.03003 4.68794 4.99832 4.81774 4.9928 4.94995C4.98727 5.08217 5.00804 5.21417 5.05391 5.3383C5.09978 5.46242 5.16982 5.57621 5.25999 5.67307L7.66499 8.31932C3.12499 11.1056 1.17249 15.4006 1.08624 15.5956C1.02938 15.7235 1 15.8619 1 16.0018C1 16.1418 1.02938 16.2802 1.08624 16.4081C1.12999 16.5068 2.18874 18.8543 4.54249 21.2081C7.67874 24.3431 11.64 26.0006 16 26.0006C18.2408 26.0133 20.4589 25.552 22.5087 24.6468L25.2587 27.6731C25.3466 27.7721 25.4531 27.8526 25.5723 27.9101C25.6915 27.9676 25.8209 28.0009 25.9531 28.008C26.0852 28.0151 26.2175 27.9959 26.3421 27.9515C26.4668 27.9072 26.5814 27.8385 26.6793 27.7495C26.7773 27.6605 26.8566 27.5529 26.9126 27.4331C26.9687 27.3132 27.0004 27.1834 27.0059 27.0512C27.0115 26.919 26.9907 26.787 26.9448 26.6628C26.899 26.5387 26.8289 26.4249 26.7387 26.3281L6.73999 4.32807ZM12.6562 13.8081L17.865 19.5393C17.0806 19.952 16.1814 20.0924 15.3085 19.9386C14.4357 19.7848 13.6386 19.3455 13.0425 18.6896C12.4464 18.0337 12.085 17.1984 12.0151 16.3148C11.9452 15.4313 12.1707 14.5496 12.6562 13.8081ZM16 24.0006C12.1525 24.0006 8.79124 22.6018 6.00874 19.8443C4.86663 18.7093 3.89526 17.4146 3.12499 16.0006C3.71124 14.9018 5.58249 11.8268 9.04374 9.82807L11.2937 12.2968C10.4227 13.4125 9.97403 14.8001 10.0272 16.2145C10.0803 17.629 10.6317 18.9791 11.584 20.0262C12.5363 21.0734 13.8282 21.7501 15.2312 21.9369C16.6343 22.1237 18.0582 21.8084 19.2512 21.0468L21.0925 23.0718C19.4675 23.6953 17.7405 24.0102 16 24.0006ZM16.75 12.0718C16.4894 12.0221 16.2593 11.8709 16.1102 11.6515C15.9611 11.4321 15.9053 11.1624 15.955 10.9018C16.0047 10.6412 16.1559 10.4111 16.3753 10.262C16.5948 10.1129 16.8644 10.0571 17.125 10.1068C18.3995 10.3539 19.56 11.0064 20.4333 11.9669C21.3067 12.9275 21.8462 14.1446 21.9712 15.4368C21.9959 15.7009 21.9147 15.9639 21.7455 16.1681C21.5762 16.3723 21.3328 16.5009 21.0687 16.5256C21.0375 16.5274 21.0062 16.5274 20.975 16.5256C20.725 16.5266 20.4838 16.4341 20.2987 16.2661C20.1136 16.0981 19.9981 15.8669 19.975 15.6181C19.8908 14.7586 19.5315 13.9492 18.9504 13.3103C18.3694 12.6713 17.5977 12.237 16.75 12.0718ZM30.91 16.4081C30.8575 16.5256 29.5912 19.3293 26.74 21.8831C26.6426 21.9731 26.5282 22.0429 26.4036 22.0883C26.2789 22.1337 26.1465 22.1538 26.014 22.1476C25.8814 22.1413 25.7515 22.1087 25.6317 22.0517C25.5119 21.9947 25.4047 21.9145 25.3162 21.8156C25.2277 21.7168 25.1598 21.6013 25.1163 21.476C25.0729 21.3506 25.0549 21.2179 25.0633 21.0855C25.0716 20.9531 25.1063 20.8237 25.1652 20.7048C25.2241 20.5859 25.306 20.48 25.4062 20.3931C26.8051 19.1363 27.9801 17.651 28.8812 16.0006C28.1093 14.5853 27.1358 13.2897 25.9912 12.1543C23.2087 9.39932 19.8475 8.00057 16 8.00057C15.1893 7.99958 14.3799 8.06522 13.58 8.19682C13.4499 8.21983 13.3166 8.21683 13.1876 8.188C13.0587 8.15918 12.9368 8.10509 12.8289 8.02888C12.721 7.95266 12.6293 7.85582 12.559 7.74395C12.4887 7.63208 12.4413 7.5074 12.4196 7.37711C12.3978 7.24682 12.402 7.1135 12.432 6.98485C12.462 6.85621 12.5172 6.73478 12.5945 6.6276C12.6717 6.52041 12.7694 6.42959 12.8819 6.36037C12.9944 6.29115 13.1195 6.24491 13.25 6.22432C14.1589 6.07424 15.0787 5.9994 16 6.00057C20.36 6.00057 24.3212 7.65807 27.4575 10.7943C29.8112 13.1481 30.87 15.4968 30.9137 15.5956C30.9706 15.7235 31 15.8619 31 16.0018C31 16.1418 30.9706 16.2802 30.9137 16.4081H30.91Z" fill="currentColor"/>
</svg>
