<svg width="32" height="32" viewBox="0 0 32 32" fill="none" xmlns="http://www.w3.org/2000/svg">
<path d="M26.7075 8.29299L21.7075 3.29299C21.6146 3.20015 21.5042 3.12654 21.3829 3.07635C21.2615 3.02616 21.1314 3.00039 21 3.00049H11C10.4696 3.00049 9.96086 3.2112 9.58579 3.58627C9.21071 3.96135 9 4.47006 9 5.00049V7.00049H7C6.46957 7.00049 5.96086 7.2112 5.58579 7.58628C5.21071 7.96135 5 8.47006 5 9.00049V27.0005C5 27.5309 5.21071 28.0396 5.58579 28.4147C5.96086 28.7898 6.46957 29.0005 7 29.0005H21C21.5304 29.0005 22.0391 28.7898 22.4142 28.4147C22.7893 28.0396 23 27.5309 23 27.0005V25.0005H25C25.5304 25.0005 26.0391 24.7898 26.4142 24.4147C26.7893 24.0396 27 23.5309 27 23.0005V9.00049C27.0001 8.86913 26.9743 8.73903 26.9241 8.61764C26.8739 8.49624 26.8003 8.38593 26.7075 8.29299ZM21 27.0005H7V9.00049H16.5863L21 13.4142V23.9805C21 23.988 21 23.9942 21 24.0005C21 24.0067 21 24.013 21 24.0205V27.0005ZM25 23.0005H23V13.0005C23.0001 12.8691 22.9743 12.739 22.9241 12.6176C22.8739 12.4962 22.8003 12.3859 22.7075 12.293L17.7075 7.29299C17.6146 7.20015 17.5042 7.12654 17.3829 7.07635C17.2615 7.02616 17.1314 7.00039 17 7.00049H11V5.00049H20.5863L25 9.41424V23.0005ZM18 19.0005C18 19.2657 17.8946 19.5201 17.7071 19.7076C17.5196 19.8951 17.2652 20.0005 17 20.0005H11C10.7348 20.0005 10.4804 19.8951 10.2929 19.7076C10.1054 19.5201 10 19.2657 10 19.0005C10 18.7353 10.1054 18.4809 10.2929 18.2934C10.4804 18.1058 10.7348 18.0005 11 18.0005H17C17.2652 18.0005 17.5196 18.1058 17.7071 18.2934C17.8946 18.4809 18 18.7353 18 19.0005ZM18 23.0005C18 23.2657 17.8946 23.5201 17.7071 23.7076C17.5196 23.8951 17.2652 24.0005 17 24.0005H11C10.7348 24.0005 10.4804 23.8951 10.2929 23.7076C10.1054 23.5201 10 23.2657 10 23.0005C10 22.7353 10.1054 22.4809 10.2929 22.2934C10.4804 22.1058 10.7348 22.0005 11 22.0005H17C17.2652 22.0005 17.5196 22.1058 17.7071 22.2934C17.8946 22.4809 18 22.7353 18 23.0005Z" fill="#434344"/>
</svg>
