<svg width="32" height="32" viewBox="0 0 32 32" fill="none" xmlns="http://www.w3.org/2000/svg">
<path d="M28.7078 27.293L22.449 21.0355C24.2631 18.8577 25.1676 16.0643 24.9746 13.2364C24.7815 10.4086 23.5057 7.7641 21.4125 5.85299C19.3193 3.94189 16.5698 2.91135 13.7362 2.97575C10.9025 3.04015 8.20274 4.19453 6.19851 6.19876C4.19429 8.20298 3.0399 10.9027 2.9755 13.7364C2.9111 16.5701 3.94164 19.3195 5.85275 21.4127C7.76385 23.5059 10.4084 24.7818 13.2362 24.9748C16.064 25.1679 18.8574 24.2633 21.0353 22.4493L27.2928 28.708C27.3857 28.8009 27.496 28.8746 27.6174 28.9249C27.7388 28.9752 27.8689 29.0011 28.0003 29.0011C28.1317 29.0011 28.2618 28.9752 28.3832 28.9249C28.5046 28.8746 28.6149 28.8009 28.7078 28.708C28.8007 28.6151 28.8744 28.5048 28.9247 28.3834C28.975 28.262 29.0008 28.1319 29.0008 28.0005C29.0008 27.8691 28.975 27.739 28.9247 27.6176C28.8744 27.4962 28.8007 27.3859 28.7078 27.293ZM5.00029 14.0005C5.00029 12.2205 5.52813 10.4804 6.51706 9.0004C7.50599 7.52035 8.9116 6.3668 10.5561 5.68561C12.2007 5.00443 14.0103 4.8262 15.7561 5.17346C17.5019 5.52073 19.1056 6.3779 20.3642 7.63657C21.6229 8.89524 22.4801 10.4989 22.8274 12.2447C23.1746 13.9905 22.9964 15.8001 22.3152 17.4447C21.634 19.0892 20.4805 20.4948 19.0004 21.4838C17.5204 22.4727 15.7803 23.0005 14.0003 23.0005C11.6141 22.9979 9.3265 22.0488 7.63925 20.3616C5.95199 18.6743 5.00293 16.3867 5.00029 14.0005Z" fill="currentColor"/>
</svg>
