<svg width="8" height="8" viewBox="0 0 8 8" fill="none" xmlns="http://www.w3.org/2000/svg">
<path d="M4 0.000488281C3.20888 0.000488281 2.43552 0.235085 1.77772 0.67461C1.11993 1.11414 0.607234 1.73885 0.304484 2.46975C0.00173312 3.20066 -0.0774802 4.00493 0.0768607 4.78085C0.231202 5.55677 0.612165 6.2695 1.17157 6.82891C1.73098 7.38832 2.44372 7.76929 3.21964 7.92363C3.99556 8.07797 4.79983 7.99876 5.53074 7.69601C6.26164 7.39326 6.88635 6.88057 7.32588 6.22277C7.76541 5.56497 8 4.79161 8 4.00049C8 2.93962 7.57857 1.92221 6.82843 1.17206C6.07828 0.421915 5.06087 0.000488281 4 0.000488281ZM4 6.00049C3.60444 6.00049 3.21776 5.88319 2.88886 5.66343C2.55996 5.44366 2.30362 5.13131 2.15224 4.76586C2.00087 4.4004 1.96126 3.99827 2.03843 3.61031C2.1156 3.22235 2.30608 2.86598 2.58579 2.58628C2.86549 2.30657 3.22186 2.11609 3.60982 2.03892C3.99778 1.96175 4.39992 2.00135 4.76537 2.15273C5.13082 2.3041 5.44318 2.56045 5.66294 2.88935C5.8827 3.21825 6 3.60493 6 4.00049C6 4.53092 5.78929 5.03963 5.41422 5.4147C5.03914 5.78977 4.53044 6.00049 4 6.00049Z" fill="currentColor"/>
</svg>
