<svg width="32" height="32" viewBox="0 0 32 32" fill="none" xmlns="http://www.w3.org/2000/svg">
<path d="M28.4149 3.58558C28.1634 3.33424 27.8494 3.15449 27.5054 3.06485C27.1613 2.97521 26.7996 2.97891 26.4574 3.07558H26.4386L2.44615 10.3556C2.05664 10.4678 1.71044 10.6958 1.45342 11.0093C1.1964 11.3227 1.0407 11.7069 1.00695 12.1108C0.973194 12.5148 1.06298 12.9194 1.26442 13.2712C1.46585 13.623 1.76942 13.9052 2.1349 14.0806L12.7499 19.2506L17.9124 29.8593C18.073 30.202 18.3283 30.4915 18.6481 30.6938C18.9679 30.896 19.339 31.0025 19.7174 31.0006C19.7749 31.0006 19.8324 30.9981 19.8899 30.9931C20.2935 30.9604 20.6775 30.805 20.9903 30.5479C21.3031 30.2907 21.5298 29.944 21.6399 29.5543L28.9149 5.56183C28.9149 5.55558 28.9149 5.54933 28.9149 5.54308C29.0128 5.20178 29.0181 4.84057 28.9302 4.49655C28.8424 4.15253 28.6645 3.83811 28.4149 3.58558ZM19.7286 28.9818L19.7224 28.9993V28.9906L14.7149 18.7031L20.7149 12.7031C20.8945 12.514 20.9932 12.2623 20.9898 12.0015C20.9865 11.7407 20.8814 11.4916 20.697 11.3072C20.5126 11.1228 20.2635 11.0177 20.0027 11.0144C19.742 11.011 19.4902 11.1097 19.3011 11.2893L13.3011 17.2893L3.0099 12.2818H3.00115H3.01865L26.9999 5.00058L19.7286 28.9818Z" fill="#434344"/>
</svg>
