<svg width="32" height="32" viewBox="0 0 32 32" fill="none" xmlns="http://www.w3.org/2000/svg">
<path d="M28 16.0005C28 16.2657 27.8946 16.5201 27.7071 16.7076C27.5196 16.8951 27.2652 17.0005 27 17.0005H17V27.0005C17 27.2657 16.8946 27.5201 16.7071 27.7076C16.5196 27.8951 16.2652 28.0005 16 28.0005C15.7348 28.0005 15.4804 27.8951 15.2929 27.7076C15.1054 27.5201 15 27.2657 15 27.0005V17.0005H5C4.73478 17.0005 4.48043 16.8951 4.29289 16.7076C4.10536 16.5201 4 16.2657 4 16.0005C4 15.7353 4.10536 15.4809 4.29289 15.2934C4.48043 15.1058 4.73478 15.0005 5 15.0005H15V5.00049C15 4.73527 15.1054 4.48092 15.2929 4.29338C15.4804 4.10585 15.7348 4.00049 16 4.00049C16.2652 4.00049 16.5196 4.10585 16.7071 4.29338C16.8946 4.48092 17 4.73527 17 5.00049V15.0005H27C27.2652 15.0005 27.5196 15.1058 27.7071 15.2934C27.8946 15.4809 28 15.7353 28 16.0005Z" fill="currentColor"/>
</svg>
