<svg width="32" height="32" viewBox="0 0 32 32" fill="none" xmlns="http://www.w3.org/2000/svg">
<path d="M26.8337 9.00049H25V5.00049C25 4.73527 24.8946 4.48092 24.7071 4.29338C24.5196 4.10585 24.2652 4.00049 24 4.00049H8C7.73478 4.00049 7.48043 4.10585 7.29289 4.29338C7.10536 4.48092 7 4.73527 7 5.00049V9.00049H5.16625C3.42 9.00049 2 10.3467 2 12.0005V22.0005C2 22.2657 2.10536 22.5201 2.29289 22.7076C2.48043 22.8951 2.73478 23.0005 3 23.0005H7V27.0005C7 27.2657 7.10536 27.5201 7.29289 27.7076C7.48043 27.8951 7.73478 28.0005 8 28.0005H24C24.2652 28.0005 24.5196 27.8951 24.7071 27.7076C24.8946 27.5201 25 27.2657 25 27.0005V23.0005H29C29.2652 23.0005 29.5196 22.8951 29.7071 22.7076C29.8946 22.5201 30 22.2657 30 22.0005V12.0005C30 10.3467 28.58 9.00049 26.8337 9.00049ZM9 6.00049H23V9.00049H9V6.00049ZM23 26.0005H9V20.0005H23V26.0005ZM28 21.0005H25V19.0005C25 18.7353 24.8946 18.4809 24.7071 18.2934C24.5196 18.1058 24.2652 18.0005 24 18.0005H8C7.73478 18.0005 7.48043 18.1058 7.29289 18.2934C7.10536 18.4809 7 18.7353 7 19.0005V21.0005H4V12.0005C4 11.4492 4.52375 11.0005 5.16625 11.0005H26.8337C27.4762 11.0005 28 11.4492 28 12.0005V21.0005ZM25 14.5005C25 14.7972 24.912 15.0872 24.7472 15.3338C24.5824 15.5805 24.3481 15.7728 24.074 15.8863C23.7999 15.9998 23.4983 16.0295 23.2074 15.9717C22.9164 15.9138 22.6491 15.7709 22.4393 15.5611C22.2296 15.3514 22.0867 15.0841 22.0288 14.7931C21.9709 14.5022 22.0007 14.2006 22.1142 13.9265C22.2277 13.6524 22.42 13.4181 22.6666 13.2533C22.9133 13.0885 23.2033 13.0005 23.5 13.0005C23.8978 13.0005 24.2794 13.1585 24.5607 13.4398C24.842 13.7211 25 14.1027 25 14.5005Z" fill="currentColor"/>
</svg>
