<svg width="32" height="32" viewBox="0 0 32 32" fill="none" xmlns="http://www.w3.org/2000/svg">
<path d="M28.7675 7.35924C28.6736 7.24691 28.5562 7.15656 28.4236 7.09457C28.291 7.03258 28.1464 7.00046 28 7.00049H7.835L7.075 2.82174C7.03314 2.59132 6.91174 2.38291 6.73196 2.23283C6.55218 2.08275 6.32544 2.00052 6.09125 2.00049H3C2.73478 2.00049 2.48043 2.10585 2.29289 2.29338C2.10536 2.48092 2 2.73527 2 3.00049C2 3.2657 2.10536 3.52006 2.29289 3.7076C2.48043 3.89513 2.73478 4.00049 3 4.00049H5.25L8.445 21.5367C8.53911 22.0568 8.76895 22.5428 9.11125 22.9455C8.63881 23.3868 8.29781 23.9503 8.12607 24.5735C7.95433 25.1967 7.95856 25.8554 8.13829 26.4763C8.31801 27.0973 8.66622 27.6564 9.14428 28.0916C9.62235 28.5267 10.2116 28.821 10.8467 28.9417C11.4818 29.0625 12.1379 29.0049 12.7423 28.7755C13.3467 28.5461 13.8758 28.1538 14.2708 27.6421C14.6658 27.1304 14.9114 26.5192 14.9804 25.8764C15.0493 25.2336 14.9388 24.5843 14.6613 24.0005H20.3388C20.115 24.4688 19.9993 24.9814 20 25.5005C20 26.1927 20.2053 26.8694 20.5899 27.445C20.9744 28.0206 21.5211 28.4692 22.1606 28.7341C22.8001 28.999 23.5039 29.0683 24.1828 28.9332C24.8617 28.7982 25.4854 28.4648 25.9749 27.9754C26.4644 27.4859 26.7977 26.8622 26.9327 26.1833C27.0678 25.5044 26.9985 24.8006 26.7336 24.1611C26.4687 23.5216 26.0201 22.9749 25.4445 22.5903C24.8689 22.2058 24.1922 22.0005 23.5 22.0005H11.3962C11.1621 22.0005 10.9353 21.9182 10.7555 21.7682C10.5758 21.6181 10.4544 21.4097 10.4125 21.1792L10.0162 19.0005H24.5163C25.2188 19.0004 25.8991 18.7537 26.4384 18.3035C26.9777 17.8532 27.3419 17.228 27.4675 16.5367L28.9875 8.17924C29.0132 8.03479 29.0069 7.88644 28.9688 7.74473C28.9308 7.60302 28.8621 7.47141 28.7675 7.35924ZM13 25.5005C13 25.7972 12.912 26.0872 12.7472 26.3338C12.5824 26.5805 12.3481 26.7728 12.074 26.8863C11.7999 26.9998 11.4983 27.0295 11.2074 26.9717C10.9164 26.9138 10.6491 26.7709 10.4393 26.5611C10.2296 26.3514 10.0867 26.0841 10.0288 25.7931C9.97094 25.5022 10.0006 25.2006 10.1142 24.9265C10.2277 24.6524 10.42 24.4181 10.6666 24.2533C10.9133 24.0885 11.2033 24.0005 11.5 24.0005C11.8978 24.0005 12.2794 24.1585 12.5607 24.4398C12.842 24.7211 13 25.1027 13 25.5005ZM25 25.5005C25 25.7972 24.912 26.0872 24.7472 26.3338C24.5824 26.5805 24.3481 26.7728 24.074 26.8863C23.7999 26.9998 23.4983 27.0295 23.2074 26.9717C22.9164 26.9138 22.6491 26.7709 22.4393 26.5611C22.2296 26.3514 22.0867 26.0841 22.0288 25.7931C21.9709 25.5022 22.0007 25.2006 22.1142 24.9265C22.2277 24.6524 22.42 24.4181 22.6666 24.2533C22.9133 24.0885 23.2033 24.0005 23.5 24.0005C23.8978 24.0005 24.2794 24.1585 24.5607 24.4398C24.842 24.7211 25 25.1027 25 25.5005ZM25.5 16.1792C25.458 16.4103 25.3361 16.6192 25.1555 16.7694C24.975 16.9195 24.7473 17.0013 24.5125 17.0005H9.6525L8.19875 9.00049H26.8013L25.5 16.1792Z" fill="currentColor"/>
</svg>
