<svg width="32" height="32" viewBox="0 0 32 32" fill="none" xmlns="http://www.w3.org/2000/svg">
<path d="M27.5 20.0005C27.5 20.2972 27.412 20.5872 27.2472 20.8338C27.0824 21.0805 26.8481 21.2728 26.574 21.3863C26.2999 21.4998 25.9983 21.5295 25.7074 21.4717C25.4164 21.4138 25.1491 21.2709 24.9393 21.0611C24.7296 20.8514 24.5867 20.5841 24.5288 20.2931C24.4709 20.0022 24.5007 19.7006 24.6142 19.4265C24.7277 19.1524 24.92 18.9181 25.1666 18.7533C25.4133 18.5885 25.7033 18.5005 26 18.5005C26.3978 18.5005 26.7794 18.6585 27.0607 18.9398C27.342 19.2211 27.5 19.6027 27.5 20.0005ZM26.9312 24.9117C26.7116 26.3278 25.9932 27.6187 24.9057 28.5518C23.8181 29.4849 22.433 29.9986 21 30.0005H18C16.4092 29.9988 14.884 29.3662 13.7592 28.2413C12.6343 27.1164 12.0017 25.5913 12 24.0005V18.9367C10.0669 18.6932 8.28915 17.7526 7.00033 16.2914C5.71152 14.8302 5.00024 12.9489 5 11.0005V5.00049C5 4.73527 5.10536 4.48092 5.29289 4.29338C5.48043 4.10585 5.73478 4.00049 6 4.00049H9C9.26522 4.00049 9.51957 4.10585 9.70711 4.29338C9.89464 4.48092 10 4.73527 10 5.00049C10 5.2657 9.89464 5.52006 9.70711 5.70759C9.51957 5.89513 9.26522 6.00049 9 6.00049H7V11.0005C6.99993 11.7952 7.15773 12.582 7.46425 13.3152C7.77077 14.0484 8.2199 14.7135 8.78555 15.2717C9.3512 15.8299 10.0221 16.2702 10.7593 16.5669C11.4965 16.8637 12.2854 17.0111 13.08 17.0005C16.3438 16.958 19 14.2192 19 10.8967V6.00049H17C16.7348 6.00049 16.4804 5.89513 16.2929 5.70759C16.1054 5.52006 16 5.2657 16 5.00049C16 4.73527 16.1054 4.48092 16.2929 4.29338C16.4804 4.10585 16.7348 4.00049 17 4.00049H20C20.2652 4.00049 20.5196 4.10585 20.7071 4.29338C20.8946 4.48092 21 4.73527 21 5.00049V10.8967C21 15.0017 17.9338 18.433 14 18.9355V24.0005C14 25.0614 14.4214 26.0788 15.1716 26.8289C15.9217 27.5791 16.9391 28.0005 18 28.0005H21C21.9084 27.999 22.7893 27.6889 23.4983 27.1212C24.2074 26.5534 24.7025 25.7616 24.9025 24.8755C23.6948 24.6042 22.6306 23.8946 21.916 22.884C21.2013 21.8733 20.8869 20.6335 21.0336 19.4045C21.1803 18.1754 21.7776 17.0444 22.7101 16.2304C23.6426 15.4164 24.8439 14.9771 26.0815 14.9977C27.3191 15.0183 28.5051 15.4973 29.41 16.3418C30.3149 17.1864 30.8743 18.3367 30.98 19.5699C31.0858 20.8032 30.7303 22.0319 29.9824 23.0182C29.2345 24.0045 28.1473 24.6783 26.9312 24.9092V24.9117ZM29 20.0005C29 19.4071 28.8241 18.8271 28.4944 18.3338C28.1648 17.8404 27.6962 17.4559 27.1481 17.2288C26.5999 17.0018 25.9967 16.9424 25.4147 17.0581C24.8328 17.1739 24.2982 17.4596 23.8787 17.8792C23.4591 18.2987 23.1734 18.8333 23.0576 19.4152C22.9419 19.9972 23.0013 20.6004 23.2284 21.1485C23.4554 21.6967 23.8399 22.1653 24.3333 22.4949C24.8266 22.8245 25.4067 23.0005 26 23.0005C26.7956 23.0005 27.5587 22.6844 28.1213 22.1218C28.6839 21.5592 29 20.7961 29 20.0005Z" fill="currentColor"/>
</svg>
