<svg width="32" height="32" viewBox="0 0 32 32" fill="none" xmlns="http://www.w3.org/2000/svg">
<path d="M28 18.0005V26.0005C28 26.2658 27.8946 26.5201 27.7071 26.7076C27.5196 26.8952 27.2652 27.0005 27 27.0005H5C4.73478 27.0005 4.48043 26.8952 4.29289 26.7076C4.10536 26.5201 4 26.2658 4 26.0005V18.0005C4 17.7353 4.10536 17.481 4.29289 17.2934C4.48043 17.1059 4.73478 17.0005 5 17.0005C5.26522 17.0005 5.51957 17.1059 5.70711 17.2934C5.89464 17.481 6 17.7353 6 18.0005V25.0005H26V18.0005C26 17.7353 26.1054 17.481 26.2929 17.2934C26.4804 17.1059 26.7348 17.0005 27 17.0005C27.2652 17.0005 27.5196 17.1059 27.7071 17.2934C27.8946 17.481 28 17.7353 28 18.0005ZM11.7075 9.70804L15 6.41429V18.0005C15 18.2658 15.1054 18.5201 15.2929 18.7077C15.4804 18.8952 15.7348 19.0005 16 19.0005C16.2652 19.0005 16.5196 18.8952 16.7071 18.7077C16.8946 18.5201 17 18.2658 17 18.0005V6.41429L20.2925 9.70804C20.4801 9.89568 20.7346 10.0011 21 10.0011C21.2654 10.0011 21.5199 9.89568 21.7075 9.70804C21.8951 9.5204 22.0006 9.26591 22.0006 9.00054C22.0006 8.73518 21.8951 8.48068 21.7075 8.29304L16.7075 3.29304C16.6146 3.20007 16.5043 3.12631 16.3829 3.07598C16.2615 3.02566 16.1314 2.99976 16 2.99976C15.8686 2.99976 15.7385 3.02566 15.6171 3.07598C15.4957 3.12631 15.3854 3.20007 15.2925 3.29304L10.2925 8.29304C10.1049 8.48068 9.99944 8.73518 9.99944 9.00054C9.99944 9.26591 10.1049 9.5204 10.2925 9.70804C10.4801 9.89568 10.7346 10.0011 11 10.0011C11.2654 10.0011 11.5199 9.89568 11.7075 9.70804Z" fill="#434344"/>
</svg>
