<svg width="32" height="32" viewBox="0 0 32 32" fill="none" xmlns="http://www.w3.org/2000/svg">
<path d="M18.9998 10.0005C18.9998 9.7353 19.1051 9.48095 19.2927 9.29341C19.4802 9.10587 19.7346 9.00052 19.9998 9.00052H30.9998C31.265 9.00052 31.5194 9.10587 31.7069 9.29341C31.8944 9.48095 31.9998 9.7353 31.9998 10.0005C31.9998 10.2657 31.8944 10.5201 31.7069 10.7076C31.5194 10.8952 31.265 11.0005 30.9998 11.0005H19.9998C19.7346 11.0005 19.4802 10.8952 19.2927 10.7076C19.1051 10.5201 18.9998 10.2657 18.9998 10.0005ZM30.9998 15.0005H19.9998C19.7346 15.0005 19.4802 15.1059 19.2927 15.2934C19.1051 15.4809 18.9998 15.7353 18.9998 16.0005C18.9998 16.2657 19.1051 16.5201 19.2927 16.7076C19.4802 16.8952 19.7346 17.0005 19.9998 17.0005H30.9998C31.265 17.0005 31.5194 16.8952 31.7069 16.7076C31.8944 16.5201 31.9998 16.2657 31.9998 16.0005C31.9998 15.7353 31.8944 15.4809 31.7069 15.2934C31.5194 15.1059 31.265 15.0005 30.9998 15.0005ZM30.9998 21.0005H22.9998C22.7346 21.0005 22.4802 21.1059 22.2927 21.2934C22.1051 21.4809 21.9998 21.7353 21.9998 22.0005C21.9998 22.2657 22.1051 22.5201 22.2927 22.7076C22.4802 22.8952 22.7346 23.0005 22.9998 23.0005H30.9998C31.265 23.0005 31.5194 22.8952 31.7069 22.7076C31.8944 22.5201 31.9998 22.2657 31.9998 22.0005C31.9998 21.7353 31.8944 21.4809 31.7069 21.2934C31.5194 21.1059 31.265 21.0005 30.9998 21.0005ZM18.9685 23.7505C19.0012 23.8777 19.0085 24.0101 18.99 24.1402C18.9715 24.2702 18.9276 24.3954 18.8608 24.5084C18.7939 24.6215 18.7054 24.7203 18.6004 24.7991C18.4953 24.878 18.3758 24.9354 18.2485 24.968C18.167 24.99 18.083 25.0009 17.9985 25.0005C17.7768 25.0006 17.5612 24.927 17.3859 24.7912C17.2105 24.6555 17.0852 24.4653 17.0298 24.2505C16.2598 21.258 13.2373 19.0005 9.99854 19.0005C6.75979 19.0005 3.73729 21.2568 2.96729 24.2505C2.90098 24.5074 2.73533 24.7275 2.50677 24.8623C2.27821 24.9971 2.00547 25.0356 1.74854 24.9693C1.49161 24.903 1.27154 24.7373 1.13675 24.5087C1.00196 24.2802 0.963484 24.0074 1.02979 23.7505C1.72854 21.0368 3.75979 18.8393 6.33729 17.7505C5.34483 16.9861 4.61652 15.9302 4.25452 14.7309C3.89251 13.5316 3.91496 12.2491 4.31872 11.0633C4.72248 9.87737 5.48729 8.84762 6.5059 8.1184C7.5245 7.38918 8.74581 6.99707 9.99854 6.99707C11.2513 6.99707 12.4726 7.38918 13.4912 8.1184C14.5098 8.84762 15.2746 9.87737 15.6784 11.0633C16.0821 12.2491 16.1046 13.5316 15.7426 14.7309C15.3806 15.9302 14.6522 16.9861 13.6598 17.7505C16.2385 18.8393 18.2698 21.0368 18.9685 23.7505ZM9.99979 17.0005C10.7909 17.0005 11.5643 16.7659 12.2221 16.3264C12.8799 15.8869 13.3926 15.2622 13.6953 14.5313C13.9981 13.8003 14.0773 12.9961 13.9229 12.2202C13.7686 11.4442 13.3876 10.7315 12.8282 10.1721C12.2688 9.61268 11.5561 9.23172 10.7801 9.07737C10.0042 8.92303 9.19996 9.00225 8.46905 9.305C7.73815 9.60775 7.11343 10.1204 6.67391 10.7782C6.23438 11.436 5.99979 12.2094 5.99979 13.0005C5.99979 14.0614 6.42122 15.0788 7.17136 15.8289C7.92151 16.5791 8.93892 17.0005 9.99979 17.0005Z" fill="currentColor"/>
</svg>
