<svg width="24" height="18" viewBox="0 0 24 18" fill="none" xmlns="http://www.w3.org/2000/svg">
<g clip-path="url(#clip0_2002_38683)">
<path d="M0 0H24V18H0V0Z" fill="#000066"/>
<path fill-rule="evenodd" clip-rule="evenodd" d="M11.2422 14.7187L9.60348 14.8612L9.82848 16.4887L8.69973 15.3L7.57098 16.4887L7.79598 14.8612L6.15723 14.7187L7.57098 13.8825L6.65973 12.5137L8.19723 13.095L8.69973 11.5312L9.20598 13.095L10.7435 12.5137L9.83223 13.8825M18.2472 16.2187L17.8497 15.6262L18.5172 15.8775L18.7347 15.1987L18.9522 15.8775L19.6197 15.6262L19.226 16.2187L19.841 16.5825L19.1285 16.6462L19.226 17.355L18.7385 16.8337L18.2435 17.355L18.341 16.6462L17.6285 16.5862M18.2435 5.64L17.8497 5.0475L18.5172 5.29875L18.7347 4.62L18.9522 5.29875L19.6197 5.0475L19.226 5.64L19.841 6.0075L19.1285 6.0675L19.226 6.77625L18.7385 6.25875L18.2435 6.7725L18.341 6.0675L17.6285 6.0075M14.2797 9.9375L13.886 9.345L14.5535 9.59625L14.771 8.9175L14.9922 9.59625L15.6597 9.345L15.2622 9.9375L15.8772 10.3012L15.1647 10.365L15.266 11.0737L14.771 10.5525L14.2835 11.0737L14.3772 10.365L13.6647 10.305M21.776 8.88L21.3747 8.2875L22.0422 8.53875L22.2597 7.86L22.481 8.53875L23.1485 8.2875L22.7547 8.88L23.366 9.24375L22.6535 9.3075L22.751 10.0125L22.2635 9.495L21.7685 10.0125L21.866 9.3075L21.1535 9.24375M20.3247 12L19.9385 12.2437L20.0472 11.7975L19.6985 11.505L20.1522 11.4675L20.3247 11.0475L20.501 11.4712L20.9547 11.505L20.606 11.7975L20.7147 12.2437" fill="white"/>
<path d="M0 0H12V9H0V0Z" fill="#000066"/>
<path d="M1.40625 0L5.98125 3.39375L10.5375 0H12V1.1625L7.5 4.51875L12 7.85625V9H10.5L6 5.64375L1.51875 9H0V7.875L4.48125 4.5375L0 1.2V0H1.40625Z" fill="white"/>
<path d="M7.95 5.26875L12 8.25V9L6.91875 5.26875H7.95ZM4.5 5.64375L4.6125 6.3L1.0125 9H0L4.5 5.64375ZM12 0V0.05625L7.33125 3.58125L7.36875 2.75625L11.0625 0H12ZM0 0L4.48125 3.3H3.35625L0 0.7875V0Z" fill="#C8102E"/>
<path d="M4.51875 0V9H7.51875V0H4.51875ZM0 3V6H12V3H0Z" fill="white"/>
<path d="M0 3.61875V5.41875H12V3.61875H0ZM5.11875 0V9H6.91875V0H5.11875Z" fill="#C8102E"/>
</g>
<defs>
<clipPath id="clip0_2002_38683">
<path d="M0 4C0 1.79086 1.79086 0 4 0H20C22.2091 0 24 1.79086 24 4V14C24 16.2091 22.2091 18 20 18H4C1.79086 18 0 16.2091 0 14V4Z" fill="white"/>
</clipPath>
</defs>
</svg>
