<svg width="24" height="18" viewBox="0 0 24 18" fill="none" xmlns="http://www.w3.org/2000/svg">
<g clip-path="url(#clip0_2002_38798)">
<path d="M5.62988 0H18.367V18H5.62992L5.62988 0Z" fill="white"/>
<path d="M-0.737305 0H5.62948V18H-0.737305V0ZM18.3666 0H24.7334V18H18.3701L18.3666 0ZM7.53849 8.69768L7.03926 8.86643L9.34198 10.8879C9.51778 11.4047 9.28224 11.5559 9.13105 11.8301L11.6272 11.5137L11.5674 14.0273L12.0877 14.0133L11.9717 11.5172L14.4748 11.816C14.3201 11.4891 14.183 11.3168 14.3236 10.7965L16.6229 8.88045L16.2221 8.73281C15.8916 8.47969 16.3627 7.5129 16.433 6.90116C16.433 6.90116 15.0935 7.3617 15.0056 7.11915L14.6611 6.46174L13.4412 7.80469C13.3076 7.83634 13.2514 7.78358 13.2197 7.67108L13.7822 4.86563L12.8893 5.36835C12.8154 5.40353 12.7416 5.3754 12.6924 5.2875L11.831 3.56483L10.9451 5.35433C10.8783 5.41759 10.8115 5.4246 10.7553 5.38245L9.90448 4.90433L10.4178 7.68514C10.3756 7.79764 10.2772 7.82576 10.1647 7.76603L8.99395 6.44063C8.84278 6.68674 8.74082 7.08397 8.53693 7.1754C8.33653 7.25978 7.65801 7.00665 7.20448 6.90821C7.35917 7.46719 7.84434 8.39531 7.53849 8.70116V8.69768Z" fill="#D52B1E"/>
</g>
<defs>
<clipPath id="clip0_2002_38798">
<path d="M0 4C0 1.79086 1.79086 0 4 0H20C22.2091 0 24 1.79086 24 4V14C24 16.2091 22.2091 18 20 18H4C1.79086 18 0 16.2091 0 14V4Z" fill="white"/>
</clipPath>
</defs>
</svg>
