<svg width="24" height="18" viewBox="0 0 24 18" fill="none" xmlns="http://www.w3.org/2000/svg">
<g clip-path="url(#clip0_2002_38570)">
<mask id="mask0_2002_38570" style="mask-type:luminance" maskUnits="userSpaceOnUse" x="0" y="0" width="24" height="18">
<path d="M0.000976562 0H23.9986V18H0.000976562V0Z" fill="white"/>
</mask>
<g mask="url(#mask0_2002_38570)">
<path fill-rule="evenodd" clip-rule="evenodd" d="M-1.5 0H25.5V18H-1.5V0Z" fill="#199D00"/>
<path fill-rule="evenodd" clip-rule="evenodd" d="M5.30298 5.10117C5.27485 5.52304 5.23267 6.26132 5.59477 6.33867C6.0272 6.38085 5.78813 5.60741 5.94634 5.46679C5.97446 5.39648 6.0272 5.39648 6.03071 5.48437V6.14179C6.03071 6.35273 6.17134 6.41601 6.27681 6.4582C6.38931 6.45116 6.46665 6.4582 6.50884 6.56366L6.56509 7.69921C6.56509 7.69921 6.82524 7.77656 6.83931 7.06288C6.84985 6.64101 6.75493 6.29296 6.81118 6.2121C6.81118 6.13124 6.91665 6.12773 6.98696 6.1664C7.09946 6.24374 7.14868 6.34218 7.32446 6.30702C7.59165 6.22968 7.75337 6.0996 7.75688 5.8957C7.75161 5.69531 7.70991 5.49756 7.63384 5.3121C7.6479 5.27695 7.58462 5.18202 7.59868 5.14687C7.64438 5.22421 7.71821 5.21718 7.73228 5.14687C7.68657 4.99921 7.61626 4.85507 7.50376 4.79531C7.40884 4.71093 7.26821 4.72499 7.22251 4.90077C7.19438 5.10116 7.29282 5.33671 7.43696 5.53359C7.4686 5.60741 7.51079 5.73398 7.49321 5.84648C7.41587 5.89218 7.33853 5.87109 7.27173 5.80429C7.27173 5.80429 7.06079 5.64609 7.06079 5.60741C7.11704 5.24882 7.07134 5.20663 7.0397 5.10468C7.0186 4.96757 6.95181 4.92187 6.89907 4.83046C6.84634 4.77421 6.77603 4.77421 6.74087 4.83046C6.64595 4.99218 6.69165 5.34023 6.75845 5.49843C6.80767 5.64257 6.88149 5.73398 6.84634 5.73398C6.81821 5.81484 6.75845 5.79374 6.71274 5.69882C6.66129 5.49906 6.63647 5.29337 6.63892 5.0871C6.62134 4.92538 6.60024 4.58085 6.49126 4.48945C6.42798 4.40507 6.33306 4.44726 6.2979 4.5246C6.28862 4.68166 6.29214 4.83921 6.30845 4.9957C6.37876 5.25585 6.40337 5.48788 6.43853 5.75156C6.44907 6.10663 6.23462 5.90624 6.24517 5.72695C6.29129 5.50154 6.28769 5.26879 6.23462 5.04492C6.19946 4.95351 6.16079 4.93241 6.0729 4.94648C6.0061 4.94648 5.83384 5.13281 5.78462 5.44921C5.78462 5.44921 5.74243 5.61093 5.72485 5.75507C5.70024 5.91679 5.59477 6.03632 5.51743 5.73398C5.45415 5.51249 5.41196 4.9746 5.30649 5.10117H5.30298Z" fill="white"/>
<path fill-rule="evenodd" clip-rule="evenodd" d="M6.48047 6.82737L5.35547 7.36877C5.36602 7.11213 5.88633 6.65159 6.24492 6.64807C6.47344 6.65159 6.41719 6.73596 6.47695 6.82737H6.48047Z" fill="white"/>
<path fill-rule="evenodd" clip-rule="evenodd" d="M6.28003 7.17889C5.68941 8.70819 7.6687 8.92264 7.89019 7.24218C7.91128 7.17186 7.99566 7.10507 8.00972 7.21757C7.96402 8.73983 6.47691 8.84179 6.22378 8.36366C6.16423 8.19914 6.13447 8.02534 6.13589 7.85038C6.10073 7.55155 5.94253 7.66757 5.91792 7.96288C5.89331 8.12811 5.90034 8.17382 5.90034 8.33202C5.97769 9.53436 7.8937 9.01757 8.20659 8.02616C8.37183 7.47772 8.17847 7.07343 8.26636 7.07343C8.4562 7.27733 8.72339 7.10155 8.78316 7.03124C8.80777 6.99608 8.87105 6.97147 8.91323 7.01718C9.06089 7.12265 9.32105 7.07343 9.3773 6.8871C9.40894 6.70077 9.43355 6.51093 9.44058 6.31757C9.31753 6.35272 9.22964 6.37733 9.21909 6.43007L9.19448 6.59179C9.18394 6.64452 9.08198 6.64452 9.07495 6.57772C9.02925 6.36679 8.83941 6.34218 8.72339 6.66561C8.64956 6.7289 8.50894 6.74296 8.49487 6.64804C8.51245 6.43007 8.42456 6.40194 8.24878 6.5039L8.08003 5.23124C8.15034 5.23124 8.22066 5.28397 8.28745 5.1996C8.21714 4.97108 8.05894 4.50702 7.97105 4.47186C7.93237 4.42265 7.89722 4.45429 7.84097 4.46835C7.74956 4.49647 7.66519 4.57382 7.69331 4.7285C7.79878 5.38944 7.86909 5.89218 7.97808 6.55663C7.99566 6.63046 7.93237 6.73241 7.848 6.72186C7.70737 6.62694 7.67222 6.43358 7.42613 6.44061C7.25034 6.44061 7.05347 6.63397 7.02886 6.81679C6.99722 6.96444 6.98667 7.12264 7.02886 7.24921C7.15191 7.39686 7.29956 7.3828 7.42964 7.35116C7.53511 7.30546 7.623 7.19999 7.66167 7.2246C7.68628 7.25624 7.66519 7.6078 7.15894 7.87499C6.85308 8.01561 6.60698 8.04374 6.47691 7.79413C6.39605 7.63593 6.48394 7.04179 6.28003 7.17889Z" fill="white"/>
<path fill-rule="evenodd" clip-rule="evenodd" d="M8.80096 5.625C8.91697 5.58282 9.47947 4.93594 9.47947 4.93594L9.3951 4.86563C9.36346 4.84102 9.36697 4.8129 9.3951 4.78829C9.53572 4.70391 9.49002 4.52813 9.41971 4.44375C9.37197 4.42049 9.31946 4.40869 9.26636 4.4093C9.21326 4.40991 9.16103 4.42291 9.11385 4.44727C9.01541 4.54219 8.99432 4.69336 9.07166 4.78477C9.14549 4.81993 9.21932 4.89727 9.1701 4.93946C8.93807 5.18555 8.30877 5.61094 8.3826 5.625C8.39666 5.6461 8.78689 5.6461 8.79744 5.625H8.80096ZM5.3908 7.91016C5.17986 8.24766 5.16229 8.75039 5.2783 8.90157C5.34158 8.97188 5.44354 9.00352 5.51736 8.97891C5.65096 8.92266 5.71072 8.65196 5.67908 8.55704C5.63338 8.48672 5.59822 8.47618 5.55252 8.53243C5.46111 8.72227 5.42244 8.59219 5.41189 8.48672C5.40182 8.3081 5.41125 8.12892 5.44002 7.95235C5.46463 7.80469 5.44002 7.84688 5.3908 7.91016ZM14.4295 7.37227C14.2256 6.9293 13.9408 6.49336 13.8529 6.32813C13.5789 5.89502 13.2881 5.47282 12.981 5.0625C12.7631 4.80235 13.3396 5.17149 12.9107 4.65118L12.5978 4.3875C12.5275 4.33829 12.3588 4.24688 12.3306 4.39454C12.3166 4.52813 12.3236 4.59844 12.3447 4.70743C12.3623 4.77774 12.4678 4.90079 12.5205 4.9711C13.2412 5.92575 13.8743 6.94356 14.4119 8.01211C14.5033 7.96641 14.4822 7.4461 14.4295 7.37227Z" fill="white"/>
<path fill-rule="evenodd" clip-rule="evenodd" d="M13.5329 8.84179C13.4907 8.88749 13.6314 9.08085 13.8142 9.08085C14.1165 9.04569 14.3837 8.87694 14.6298 8.42694C14.7298 8.27725 14.7936 8.10633 14.8161 7.92773C14.8459 7.07428 14.7775 6.22024 14.6122 5.38241C14.6017 5.3121 14.6122 5.22773 14.6193 5.20663C14.6403 5.18202 14.7071 5.20663 14.7423 5.14687C14.795 5.09413 14.6017 4.65468 14.4962 4.48944C14.461 4.4121 14.4435 4.36288 14.3802 4.49648C14.3038 4.64389 14.2675 4.80874 14.2747 4.9746C14.4189 5.97655 14.4646 6.85194 14.556 7.8539C14.5665 7.95233 14.5525 8.09296 14.4857 8.14921C14.2204 8.44457 13.8957 8.68058 13.5329 8.84179ZM17.6286 8.83827C17.4107 8.96483 17.4107 9.10898 17.5864 9.11249C17.8888 9.07734 18.2474 9.05272 18.4935 8.68007C18.5804 8.50455 18.6306 8.31315 18.6411 8.11757C18.6854 7.27726 18.6299 6.43467 18.4759 5.60741C18.4689 5.5371 18.4372 5.37187 18.4478 5.35077C18.4689 5.30155 18.5673 5.35429 18.6025 5.29804C18.6517 5.2453 18.3458 4.85155 18.2368 4.6828C18.2017 4.60546 18.1876 4.55624 18.1208 4.68983C18.05 4.8386 18.0279 5.0059 18.0575 5.16796C18.2193 6.2578 18.3388 7.07343 18.3634 8.03671C18.3493 8.12812 18.3458 8.17733 18.3036 8.29335C18.2087 8.41288 18.1032 8.56757 18.0048 8.6414C17.9064 8.71171 17.6954 8.78202 17.6286 8.83827Z" fill="white"/>
<path fill-rule="evenodd" clip-rule="evenodd" d="M17.7902 7.86445C17.7902 7.60781 17.7937 7.38984 17.7867 7.19648C17.7844 7.03272 17.7485 6.87118 17.6812 6.72187C17.6179 6.57773 17.6566 6.46171 17.6249 6.30702C17.5968 6.15234 17.6038 5.92031 17.5617 5.74101C17.5476 5.6707 17.5124 5.44218 17.523 5.41757C17.5406 5.36835 17.6074 5.41757 17.6425 5.36132C17.6917 5.30859 17.4667 4.72851 17.3542 4.56327C17.3156 4.48945 17.2382 4.51406 17.1503 4.63359C17.0624 4.71445 17.0941 4.89374 17.1292 5.06601C17.3437 6.20156 17.5089 7.23163 17.4738 8.31093C17.4597 8.40234 17.7902 8.03671 17.7902 7.86445ZM16.1835 6.4582C16.0464 6.45117 15.7617 6.18749 15.6773 6.03632C15.6635 5.99938 15.6576 5.95994 15.66 5.92057C15.6624 5.8812 15.6731 5.84278 15.6913 5.80781C15.7441 5.77265 15.8214 5.73749 15.8812 5.77265C15.8812 5.77265 15.941 5.85702 15.9304 5.86757C16.0007 5.90273 16.0359 5.88515 16.0429 5.85351C16.0464 5.80077 16.0218 5.76913 16.0218 5.71288C16.0535 5.55117 16.2327 5.52656 16.3031 5.62851C16.3523 5.69179 16.3734 5.82187 16.3769 5.90976C16.3769 5.95546 16.3066 5.90273 16.2609 5.90976C16.2222 5.92382 16.2117 5.97304 16.2081 6.01523C16.2011 6.13124 16.187 6.31757 16.1835 6.45468V6.4582ZM13.6593 8.1457C13.6945 7.80117 13.6453 7.18593 13.6417 6.98202C13.6229 6.45762 13.5795 5.93439 13.5117 5.41406C13.4695 5.11874 13.6312 5.4457 13.6101 5.27343C13.5574 4.98163 13.3956 4.78124 13.2023 4.51757C13.1425 4.42968 13.1425 4.4121 13.0476 4.53867C12.9421 4.77421 13.0335 4.93945 13.0617 5.12577C13.1988 5.73046 13.2796 6.28593 13.3183 6.83788C13.3588 7.41125 13.3635 7.98659 13.3324 8.56054C13.4378 8.56406 13.5995 8.39531 13.6593 8.1457Z" fill="white"/>
<path fill-rule="evenodd" clip-rule="evenodd" d="M18.2581 7.59374C18.0155 7.18592 17.6534 6.74999 17.555 6.58475C17.229 6.12951 16.8866 5.68625 16.5284 5.25585C16.2296 4.93944 16.669 5.20311 16.4722 4.95702C16.3069 4.77772 16.2612 4.71796 16.1171 4.60897C16.0468 4.56327 16.0046 4.47538 15.9765 4.62655C15.9652 4.75749 15.9629 4.88904 15.9694 5.0203C15.9694 5.08007 16.0327 5.19608 16.089 5.26639C16.8167 6.16288 17.6147 7.07694 18.2546 8.22655C18.346 8.18085 18.3143 7.66405 18.2546 7.59374H18.2581Z" fill="white"/>
<path fill-rule="evenodd" clip-rule="evenodd" d="M7.30985 6.84489C7.29228 6.87653 7.2536 6.91521 7.26767 6.95388C7.29228 6.98903 7.31688 6.99958 7.35907 6.99958C7.39774 6.99958 7.45399 7.01013 7.46454 6.98903C7.48563 6.96442 7.4997 6.91872 7.48563 6.87302C7.44345 6.76755 7.33095 6.80974 7.30985 6.84489Z" fill="#1BA400"/>
<path fill-rule="evenodd" clip-rule="evenodd" d="M15.452 12.7441C15.7754 12.7582 15.9863 12.7617 16.2711 12.7934L16.6086 12.7582C16.9812 12.7231 16.9953 13.2891 16.9953 13.2891C16.9953 13.6231 16.8652 13.6406 16.7 13.6758C16.6051 13.6898 16.5594 13.6195 16.5066 13.5492C16.4271 13.5747 16.3424 13.5795 16.2605 13.5633C16.1234 13.5563 15.9898 13.5563 15.8562 13.5457C15.7156 13.5352 15.6383 13.5633 15.4941 13.5492C15.466 13.5949 15.4238 13.6582 15.3395 13.6406C15.2691 13.6301 15.1812 13.4297 15.2059 13.2715C15.2586 13.159 15.241 13.1977 15.241 13.1484C13.9191 13.1133 12.5867 13.0535 11.293 13.0711C10.2805 13.0746 9.28203 13.1168 8.28008 13.159C7.7457 13.152 7.33789 13.0676 7.05664 12.6563C7.08477 12.6563 8.4207 12.7301 8.81094 12.7055C9.53164 12.6984 10.1926 12.6387 10.9273 12.6176C12.3758 12.6422 13.8137 12.6422 15.2621 12.7441C15.1215 12.6492 15.1215 12.4277 15.3324 12.3715C15.35 12.3574 15.3605 12.4805 15.3922 12.477C15.5645 12.4664 15.4871 12.6984 15.452 12.7441ZM9.63008 4.75664C9.41211 5.38242 9.75664 6.07149 9.9957 6.00469C10.1715 6.075 10.277 5.74453 10.3473 5.38594C10.4 5.28399 10.4352 5.27344 10.4598 5.32617C10.4527 5.8043 10.4949 5.91328 10.618 6.05742C10.8922 6.26836 11.1207 6.08555 11.1383 6.06797L11.3492 5.85352C11.3984 5.80078 11.4617 5.80078 11.5285 5.84297C11.5953 5.90274 11.5848 6.00469 11.7254 6.075C11.8449 6.12422 12.0945 6.08907 12.1543 5.98711C12.2316 5.85 12.2527 5.8043 12.2879 5.75508C12.3441 5.68125 12.4391 5.71289 12.4391 5.7375C12.4285 5.77969 12.3723 5.81836 12.4109 5.89571C12.4813 5.94492 12.4953 5.91328 12.534 5.90274C12.6746 5.83242 12.7801 5.53008 12.7801 5.53008C12.7836 5.41758 12.7203 5.42461 12.6781 5.45274L12.5691 5.52656C12.4988 5.53711 12.3688 5.58281 12.302 5.48086C12.2352 5.36133 12.2352 5.18907 12.1859 5.06602C12.1859 5.05899 12.0945 4.87266 12.1789 4.86211C12.2211 4.86914 12.309 4.89375 12.323 4.81992C12.3652 4.7461 12.2316 4.53867 12.1367 4.43321C12.0559 4.34531 11.9434 4.33477 11.8344 4.42617C11.757 4.49649 11.7676 4.57383 11.7535 4.64766C11.7402 4.70057 11.7396 4.75588 11.7518 4.80906C11.764 4.86223 11.7887 4.91175 11.8238 4.95352C11.9012 5.10117 12.0383 5.29453 11.9926 5.56875C11.9926 5.56875 11.9117 5.69531 11.7711 5.67774C11.7113 5.66719 11.6164 5.64258 11.5672 5.26289C11.5285 4.98164 11.5742 4.58086 11.4547 4.39453C11.409 4.27852 11.3773 4.16953 11.2719 4.36289C11.2437 4.44024 11.1207 4.55625 11.2086 4.7918C11.2918 5.00406 11.3161 5.23484 11.2789 5.45977C11.2262 5.53711 11.2156 5.56172 11.1488 5.63555C11.0574 5.74102 10.9555 5.71289 10.8781 5.67422C10.8078 5.62852 10.7516 5.60391 10.7164 5.44571C10.7234 5.19961 10.7375 4.79531 10.6918 4.71094C10.625 4.57735 10.516 4.62656 10.4703 4.66875C10.2612 4.90108 10.1211 5.18723 10.066 5.49492C10.0027 5.69883 9.93594 5.63907 9.89023 5.55821C9.77773 5.45274 9.76719 4.61953 9.63008 4.75664Z" fill="white"/>
<path fill-rule="evenodd" clip-rule="evenodd" d="M10.2916 6.12071C10.3936 6.0504 10.3479 6.00118 10.4955 6.14884C10.6861 6.48606 10.7968 6.86252 10.819 7.24923C10.812 7.34064 10.8752 7.39689 10.9069 7.37579C10.9209 7.16485 11.4377 6.86954 11.9123 6.82735C11.9827 6.80978 11.9475 6.67267 11.958 6.60235C11.9299 6.33868 12.1057 6.09962 12.3518 6.08204C12.6893 6.13126 12.8018 6.31056 12.8088 6.58126C12.7702 7.1086 12.2217 7.19649 11.9159 7.23868C11.8702 7.25626 11.8491 7.27735 11.9159 7.30196L13.2026 7.30899L13.2694 7.34415C13.2764 7.37931 13.2483 7.35118 13.1991 7.43556C13.1283 7.55991 13.084 7.69756 13.069 7.83985C12.6858 7.96642 12.2885 8.01564 11.8877 8.06837C11.7471 8.13868 11.6768 8.2336 11.7049 8.33907C11.7541 8.45509 12.0635 8.57462 12.0635 8.57814C12.1233 8.61329 12.1901 8.70118 12.0459 8.88048C11.4202 8.85235 10.9315 8.58517 10.7627 8.20899C10.7135 8.17032 10.6573 8.20899 10.6221 8.25821C10.376 8.57462 10.137 8.85587 9.7186 9.01056C9.4725 9.07384 9.21586 8.97189 9.09633 8.81017C9.01547 8.71524 9.01899 8.61329 8.99086 8.5922C8.85375 8.65196 7.6936 9.14415 7.84125 8.91212C8.1225 8.61329 8.61469 8.38829 9.0436 8.09298C9.07524 7.99103 9.13149 7.65353 9.30024 7.54454C9.31078 7.54454 9.27563 7.74142 9.27914 7.82579C9.27914 7.8961 9.27211 7.92071 9.28617 7.90314C9.31781 7.88556 9.83813 7.47423 9.88383 7.34767C9.93305 7.27735 9.89438 7.09454 9.89438 7.08751C9.79594 6.83439 9.65883 6.81329 9.60961 6.68673C9.56391 6.52149 9.585 6.33165 9.67992 6.2754C9.7643 6.20157 9.86274 6.2086 9.95766 6.29298C10.0631 6.3879 10.1545 6.57423 10.1827 6.71134C10.1651 6.76407 10.042 6.67618 10.0069 6.70079C10.0745 6.77855 10.1195 6.87341 10.137 6.97501C10.2073 7.26329 10.1862 7.37579 10.1159 7.56212C9.88383 8.05079 9.58852 8.19493 9.32836 8.37774C9.32133 8.37774 9.31781 8.50079 9.41274 8.56759C9.44789 8.60274 9.585 8.62032 9.7432 8.56759C10.0812 8.37989 10.3545 8.09434 10.5272 7.74845C10.5571 7.48525 10.5282 7.21871 10.4428 6.96798C10.3409 6.73243 10.2213 6.39845 10.2213 6.39142C10.2178 6.24376 10.2284 6.19454 10.2916 6.12071ZM6.92367 4.76368C7.07133 4.83399 7.35258 4.80235 7.33852 4.56329L7.33149 4.45431C7.30336 4.38399 7.21899 4.40157 7.20141 4.47188C7.19438 4.49649 7.21196 4.53517 7.19086 4.54571C7.1768 4.55978 7.1311 4.55274 7.1311 4.48595C7.1311 4.46485 7.11703 4.44376 7.10649 4.4297C7.09946 4.42267 7.09242 4.42267 7.07485 4.42267C7.05375 4.42267 7.05375 4.42618 7.04321 4.44376C7.03969 4.46134 7.03266 4.47892 7.03266 4.50001C7.03266 4.52462 7.0186 4.53165 7.00453 4.53517C6.98344 4.53517 6.98696 4.53517 6.96938 4.52814C6.96235 4.51759 6.9518 4.51407 6.9518 4.49298L6.94125 4.43673C6.93422 4.42618 6.92016 4.41915 6.9061 4.41563C6.82524 4.41563 6.81821 4.51056 6.82524 4.54571C6.81821 4.55274 6.81469 4.71798 6.92367 4.76368Z" fill="white"/>
<path fill-rule="evenodd" clip-rule="evenodd" d="M11.2653 6.5988C11.4129 6.66911 11.768 6.63044 11.6801 6.40192L11.6731 6.28942C11.6415 6.21911 11.5606 6.23669 11.543 6.31052C11.536 6.33161 11.5536 6.37028 11.529 6.38083C11.5184 6.39489 11.4692 6.38786 11.4727 6.32458C11.4727 6.30349 11.4586 6.27888 11.4481 6.26481C11.4376 6.2613 11.434 6.25778 11.4129 6.25778C11.3954 6.25778 11.3954 6.26481 11.3848 6.28239C11.3778 6.29997 11.3743 6.31755 11.3743 6.33864C11.3708 6.35974 11.3602 6.36677 11.3426 6.3738C11.3251 6.3738 11.3286 6.3738 11.3145 6.36325C11.304 6.3527 11.2934 6.34919 11.2934 6.33161L11.2829 6.27536C11.2758 6.26481 11.2618 6.25778 11.2477 6.25427C11.1668 6.25427 11.1598 6.34567 11.1633 6.38083C11.1598 6.38786 11.1563 6.55661 11.2688 6.5988H11.2653ZM13.7965 5.83942C13.9442 5.90974 14.2219 5.87809 14.2114 5.64255L14.2043 5.53005C14.1727 5.45974 14.0918 5.47731 14.0743 5.54763C14.0672 5.57224 14.0848 5.61091 14.0602 5.62497C14.0497 5.63552 14.0004 5.62849 14.004 5.56169C14.004 5.54059 13.9899 5.5195 13.9793 5.50544C13.9688 5.49841 13.9653 5.49841 13.9442 5.49841C13.9266 5.49841 13.9266 5.50544 13.9161 5.52302L13.9055 5.57575C13.902 5.60036 13.8915 5.61091 13.8739 5.61091C13.8563 5.61091 13.8598 5.61091 13.8458 5.60388C13.8352 5.59333 13.8247 5.58981 13.8247 5.57224C13.8247 5.55466 13.8211 5.52653 13.8141 5.51247C13.8071 5.50192 13.793 5.49841 13.779 5.49489C13.6981 5.49489 13.6911 5.5863 13.6946 5.62145C13.6911 5.62849 13.6876 5.79372 13.8001 5.83942H13.7965ZM15.1079 7.74841C14.8512 8.0402 14.9637 8.52184 15.0235 8.62731C15.1079 8.79606 15.1747 8.90505 15.3399 8.98942C15.4911 9.09841 15.6106 9.03161 15.6739 8.95427C15.8251 8.79606 15.8286 8.39177 15.8989 8.31442C15.9481 8.16677 16.0747 8.19138 16.1344 8.25817C16.1903 8.33754 16.2653 8.40161 16.3524 8.4445C16.493 8.56755 16.6618 8.59216 16.8305 8.47966C16.943 8.41286 17.0168 8.332 17.0836 8.16677C17.154 7.96989 17.1188 7.05583 17.1012 6.51442L16.9536 5.75856C16.9536 5.75153 16.936 5.39997 16.9184 5.31911C16.9184 5.28395 16.9079 5.27341 16.943 5.27692C16.9817 5.31208 16.9852 5.31208 17.0133 5.32263C17.0485 5.32966 17.0836 5.26286 17.059 5.20661L16.7075 4.5527C16.6793 4.52458 16.6407 4.49645 16.595 4.55974C16.568 4.58415 16.5465 4.61401 16.532 4.64734C16.5175 4.68068 16.5102 4.71673 16.5106 4.75309C16.5211 4.90778 16.5458 5.06599 16.5563 5.22067L16.6969 6.0152C16.7426 6.5777 16.7532 7.04177 16.7989 7.60778C16.7918 7.84684 16.718 8.05427 16.6477 8.08591C16.6477 8.08591 16.5422 8.14567 16.4719 8.07888C16.4192 8.05778 16.2118 7.73083 16.2118 7.73083C16.1063 7.63591 16.036 7.66052 15.9622 7.73083C15.7512 7.93474 15.6598 8.30739 15.5157 8.56755C15.4805 8.62731 15.3751 8.67302 15.2626 8.56403C14.9743 8.16677 15.143 7.60427 15.1079 7.74841ZM13.8633 4.45427C13.9969 4.507 14.0883 4.7777 14.0602 4.9113C14.0321 5.0695 13.9618 5.24528 13.9126 5.22419C13.8563 5.2031 13.9477 5.06247 13.895 4.91481C13.8668 4.81638 13.684 4.6406 13.7051 4.59138C13.67 4.48239 13.7825 4.43317 13.8633 4.45075V4.45427Z" fill="white"/>
<path fill-rule="evenodd" clip-rule="evenodd" d="M15.5364 7.91013C15.561 7.58669 15.5153 7.38982 15.5082 7.19997C15.5012 7.01013 15.2938 5.56169 15.2516 5.42107C15.1989 5.14685 15.452 5.38591 15.4239 5.22419C15.336 5.02732 15.1215 4.73552 15.0547 4.56325C15.0125 4.49294 15.0301 4.42263 14.9387 4.54568C14.86 4.76141 14.8323 4.99245 14.8579 5.22068C15.0758 6.35622 15.2973 7.29841 15.2622 8.37771C15.3676 8.37771 15.4836 8.14216 15.5364 7.91013ZM17.8004 4.9113C17.9235 4.97107 17.9938 5.30857 17.9797 5.40349C17.9551 5.57927 17.8918 5.76911 17.8461 5.7445C17.7934 5.72341 17.8567 5.48435 17.8321 5.41052C17.8039 5.30505 17.6387 5.11521 17.6563 5.05896C17.6211 4.93943 17.7266 4.89021 17.8004 4.9113ZM8.81098 7.29841C8.927 7.34411 8.99731 7.59021 8.98676 7.66052C8.95864 7.7906 8.89887 7.93122 8.85317 7.91013C8.80746 7.89607 8.86371 7.72029 8.84262 7.66404C8.83207 7.53396 8.67035 7.46364 8.67387 7.40739C8.64575 7.30193 8.74418 7.28435 8.8145 7.29841H8.81098Z" fill="white"/>
<path fill-rule="evenodd" clip-rule="evenodd" d="M11.6101 7.67107C11.7578 7.6781 11.8316 7.79763 11.6945 7.84685C11.5539 7.89255 11.4238 7.93123 11.4203 8.1281C11.473 8.40935 11.35 8.31091 11.2796 8.27576C11.1953 8.21248 10.9562 8.06482 10.921 7.74841C10.9175 7.67458 10.9773 7.60779 11.0722 7.60779C11.2128 7.64646 11.4238 7.64998 11.6101 7.67107Z" fill="#1B9D00"/>
<path fill-rule="evenodd" clip-rule="evenodd" d="M5.72117 4.37345C5.88992 4.42267 5.90047 4.67579 5.88992 4.74962C5.86531 4.88322 5.80555 5.02736 5.76336 5.00978C5.71414 4.9922 5.76336 4.80939 5.73875 4.75314C5.71414 4.67579 5.57 4.52814 5.58406 4.48595C5.55242 4.39806 5.65438 4.35587 5.72117 4.37345ZM9.09266 5.5547C8.95906 5.62501 8.90984 5.83595 8.9907 5.96251C9.06805 6.06798 9.18758 6.02931 9.20164 6.02931C9.33172 6.04337 9.40906 5.78673 9.40906 5.78673C9.40906 5.78673 9.41258 5.71642 9.26141 5.85353C9.19461 5.86408 9.19109 5.83947 9.17352 5.80431C9.15742 5.73738 9.16359 5.66703 9.19109 5.60392C9.2157 5.54064 9.16648 5.51251 9.09266 5.5547ZM10.077 4.27501C10.0067 4.32072 9.87664 4.45783 9.87313 4.61251C9.86961 4.7004 9.85203 4.7004 9.90828 4.75314C9.95398 4.81642 9.99266 4.8129 10.077 4.7672C10.0981 4.75397 10.1161 4.73651 10.13 4.71593C10.1439 4.69535 10.1534 4.67211 10.1579 4.64767C10.179 4.54923 10.0524 4.69689 10.0384 4.58439C10.0102 4.47892 10.0911 4.43673 10.1684 4.33829C10.1684 4.26798 10.1684 4.22228 10.0735 4.27501H10.077ZM10.8645 4.41564C10.8335 4.54366 10.8147 4.67431 10.8083 4.80587C10.7872 4.90431 10.9138 4.9465 10.9665 4.81994C11.0509 4.59142 11.0509 4.49298 11.0579 4.39806C11.0333 4.24689 10.9313 4.2504 10.8645 4.41564ZM15.8567 6.95744C15.8708 6.93986 16.5598 6.45119 16.5598 6.45119C16.6302 6.42658 16.6126 6.70431 16.5809 6.7008C16.3672 6.90675 16.1215 7.07654 15.8532 7.20353C15.818 7.22814 15.7864 7.0172 15.8532 6.95744H15.8567ZM16.479 6.9504C16.602 7.01017 16.6512 7.36525 16.6372 7.46017C16.6372 7.65001 16.5212 7.79767 16.472 7.77658C16.4227 7.75197 16.479 7.54103 16.4544 7.4672C16.4263 7.36173 16.3243 7.16837 16.3419 7.11212C16.3067 6.99259 16.4052 6.92931 16.4825 6.9504H16.479ZM12.4009 8.47619C12.4579 8.40962 12.5242 8.35161 12.5977 8.30392C12.668 8.26876 12.7313 8.33205 12.7278 8.32853C12.7384 8.39884 12.6856 8.45861 12.7032 8.55001C12.7173 8.58517 12.7278 8.62736 12.7946 8.6133C12.9036 8.5254 13.0055 8.51837 13.111 8.51486C13.1989 8.51837 13.2024 8.66251 13.1462 8.66251C12.9458 8.7047 12.8579 8.76095 12.7137 8.81369C12.6434 8.85587 12.5872 8.80314 12.5872 8.79962C12.5872 8.79611 12.5485 8.76095 12.5731 8.66955C12.5802 8.59923 12.552 8.55705 12.4887 8.56408C12.4466 8.5922 12.4044 8.60626 12.3833 8.55353C12.3727 8.51837 12.3692 8.49728 12.4009 8.47619ZM17.2032 8.66603C17.2313 8.70119 17.2524 8.73634 17.1997 8.79962L17.0696 8.91212C17.0485 8.94728 17.0345 9.01056 17.1048 9.02814C17.2313 9.06329 17.5266 8.86994 17.5266 8.86642C17.5759 8.83126 17.5618 8.76095 17.5548 8.76095C17.5266 8.72931 17.4634 8.7504 17.4212 8.74337C17.4001 8.74337 17.3333 8.73634 17.3649 8.67306C17.3885 8.642 17.4075 8.60765 17.4212 8.57111C17.4388 8.52892 17.4212 8.5008 17.3509 8.47619C17.277 8.46212 17.2454 8.46915 17.1645 8.47619C17.1223 8.48322 17.1083 8.50431 17.0977 8.55704C17.1012 8.6379 17.1505 8.63439 17.2032 8.66251V8.66603Z" fill="white"/>
<path fill-rule="evenodd" clip-rule="evenodd" d="M12.4259 6.66912C12.4083 6.70428 12.345 6.70428 12.2852 6.66912C12.2255 6.63396 12.1903 6.57771 12.2114 6.54607C12.2325 6.51443 12.2923 6.51443 12.352 6.54607C12.4118 6.57771 12.4434 6.63748 12.4259 6.66912ZM9.29696 4.78475C9.2618 4.79529 9.21258 4.76365 9.19149 4.71443C9.17039 4.66521 9.18094 4.62303 9.2161 4.61248C9.25125 4.60193 9.29696 4.63709 9.32157 4.68279C9.34617 4.72849 9.33211 4.77771 9.29344 4.78826L9.29696 4.78475Z" fill="#259F00"/>
<path fill-rule="evenodd" clip-rule="evenodd" d="M15.4871 13.1836C15.8175 13.1977 16.1269 13.1836 16.4539 13.2012C16.5136 13.2539 16.4715 13.377 16.4328 13.3699L16.1586 13.3594C16.155 13.2539 15.8879 13.2715 15.8949 13.3629C15.7507 13.3805 15.6207 13.3594 15.473 13.3523C15.4308 13.2996 15.4379 13.2047 15.4871 13.1836Z" fill="#209000"/>
</g>
</g>
<defs>
<clipPath id="clip0_2002_38570">
<path d="M0 4C0 1.79086 1.79086 0 4 0H20C22.2091 0 24 1.79086 24 4V14C24 16.2091 22.2091 18 20 18H4C1.79086 18 0 16.2091 0 14V4Z" fill="white"/>
</clipPath>
</defs>
</svg>
