<svg width="210" height="56" viewBox="0 0 210 56" fill="none" xmlns="http://www.w3.org/2000/svg">
<path d="M23.2195 10.9268C23.2195 10.1725 22.6074 9.55679 21.8544 9.60113C17.7418 9.8433 13.7585 11.1763 10.3195 13.4742C6.50102 16.0256 3.52492 19.6519 1.76749 23.8948C0.0100608 28.1376 -0.449763 32.8062 0.446167 37.3104C1.3421 41.8145 3.55354 45.9518 6.80085 49.1992C10.0482 52.4465 14.1855 54.6579 18.6896 55.5538C23.1938 56.4498 27.8624 55.9899 32.1052 54.2325C36.3481 52.4751 39.9744 49.499 42.5258 45.6806C44.8238 42.2415 46.1567 38.2582 46.3989 34.1456C46.4432 33.3926 45.8275 32.7805 45.0732 32.7805H37.9396C37.1852 32.7805 36.581 33.3936 36.504 34.144C36.2823 36.3033 35.5367 38.3834 34.3231 40.1997C32.8558 42.3958 30.7701 44.1074 28.33 45.1182C25.8898 46.1289 23.2047 46.3934 20.6142 45.8781C18.0238 45.3628 15.6443 44.091 13.7767 42.2233C11.909 40.3557 10.6372 37.9762 10.1219 35.3858C9.60662 32.7953 9.87108 30.1102 10.8818 27.67C11.8926 25.2299 13.6042 23.1442 15.8003 21.6769C17.6166 20.4633 19.6967 19.7177 21.856 19.496C22.6064 19.419 23.2195 18.8148 23.2195 18.0604V10.9268Z" fill="#050F2A"/>
<path d="M27.3171 10.9268C27.3171 10.1725 27.9286 9.56097 28.6829 9.56097H35.5122C36.2665 9.56097 36.8781 10.1725 36.8781 10.9268V17.7561C36.8781 18.5104 36.2665 19.1219 35.5122 19.1219H28.6829C27.9286 19.1219 27.3171 18.5104 27.3171 17.7561V10.9268Z" fill="#050F2A"/>
<path d="M36.8781 1.36585C36.8781 0.611513 37.4896 0 38.2439 0H45.0732C45.8275 0 46.439 0.611513 46.439 1.36585V8.19512C46.439 8.94946 45.8275 9.56097 45.0732 9.56097H38.2439C37.4896 9.56097 36.8781 8.94946 36.8781 8.19512V1.36585Z" fill="#050F2A"/>
<path d="M46.439 10.9268C46.439 10.1725 47.0505 9.56097 47.8049 9.56097H54.6341C55.3885 9.56097 56 10.1725 56 10.9268V17.7561C56 18.5104 55.3885 19.1219 54.6341 19.1219H47.8049C47.0505 19.1219 46.439 18.5104 46.439 17.7561V10.9268Z" fill="#050F2A"/>
<path d="M36.8781 20.4878C36.8781 19.7335 37.4896 19.1219 38.2439 19.1219H45.0732C45.8275 19.1219 46.439 19.7335 46.439 20.4878V27.3171C46.439 28.0714 45.8275 28.6829 45.0732 28.6829H38.2439C37.4896 28.6829 36.8781 28.0714 36.8781 27.3171V20.4878Z" fill="#050F2A"/>
<path d="M67.184 31.832C67.184 29.656 67.6853 27.704 68.688 25.976C69.712 24.248 71.088 22.904 72.816 21.944C74.5653 20.9627 76.4747 20.472 78.544 20.472C80.912 20.472 83.0133 21.0587 84.848 22.232C86.704 23.384 88.048 25.0267 88.88 27.16H84.496C83.92 25.9867 83.12 25.112 82.096 24.536C81.072 23.96 79.888 23.672 78.544 23.672C77.072 23.672 75.76 24.0027 74.608 24.664C73.456 25.3253 72.5493 26.2747 71.888 27.512C71.248 28.7493 70.928 30.1893 70.928 31.832C70.928 33.4747 71.248 34.9147 71.888 36.152C72.5493 37.3893 73.456 38.3493 74.608 39.032C75.76 39.6933 77.072 40.024 78.544 40.024C79.888 40.024 81.072 39.736 82.096 39.16C83.12 38.584 83.92 37.7093 84.496 36.536H88.88C88.048 38.6693 86.704 40.312 84.848 41.464C83.0133 42.616 80.912 43.192 78.544 43.192C76.4533 43.192 74.544 42.712 72.816 41.752C71.088 40.7707 69.712 39.416 68.688 37.688C67.6853 35.96 67.184 34.008 67.184 31.832ZM91.934 34.104C91.934 32.3333 92.2967 30.7653 93.022 29.4C93.7687 28.0347 94.7713 26.9787 96.03 26.232C97.31 25.464 98.718 25.08 100.254 25.08C101.641 25.08 102.846 25.3573 103.87 25.912C104.915 26.4453 105.747 27.1173 106.366 27.928V25.368H110.046V43H106.366V40.376C105.747 41.208 104.905 41.9013 103.838 42.456C102.771 43.0107 101.555 43.288 100.19 43.288C98.6753 43.288 97.2887 42.904 96.03 42.136C94.7713 41.3467 93.7687 40.2587 93.022 38.872C92.2967 37.464 91.934 35.8747 91.934 34.104ZM106.366 34.168C106.366 32.952 106.11 31.896 105.598 31C105.107 30.104 104.457 29.4213 103.646 28.952C102.835 28.4827 101.961 28.248 101.022 28.248C100.083 28.248 99.2087 28.4827 98.398 28.952C97.5873 29.4 96.926 30.072 96.414 30.968C95.9233 31.8427 95.678 32.888 95.678 34.104C95.678 35.32 95.9233 36.3867 96.414 37.304C96.926 38.2213 97.5873 38.9253 98.398 39.416C99.23 39.8853 100.105 40.12 101.022 40.12C101.961 40.12 102.835 39.8853 103.646 39.416C104.457 38.9467 105.107 38.264 105.598 37.368C106.11 36.4507 106.366 35.384 106.366 34.168ZM118.486 27.928C119.019 27.032 119.723 26.3387 120.598 25.848C121.494 25.336 122.55 25.08 123.766 25.08V28.856H122.838C121.408 28.856 120.32 29.2187 119.574 29.944C118.848 30.6693 118.486 31.928 118.486 33.72V43H114.838V25.368H118.486V27.928ZM143.279 33.752C143.279 34.4133 143.236 35.0107 143.151 35.544H129.679C129.785 36.952 130.308 38.0827 131.247 38.936C132.185 39.7893 133.337 40.216 134.703 40.216C136.665 40.216 138.052 39.3947 138.863 37.752H142.799C142.265 39.3733 141.295 40.7067 139.887 41.752C138.5 42.776 136.772 43.288 134.703 43.288C133.017 43.288 131.503 42.9147 130.159 42.168C128.836 41.4 127.791 40.3333 127.023 38.968C126.276 37.5813 125.903 35.9813 125.903 34.168C125.903 32.3547 126.265 30.7653 126.991 29.4C127.737 28.0133 128.772 26.9467 130.095 26.2C131.439 25.4533 132.975 25.08 134.703 25.08C136.367 25.08 137.849 25.4427 139.151 26.168C140.452 26.8933 141.465 27.9173 142.191 29.24C142.916 30.5413 143.279 32.0453 143.279 33.752ZM139.471 32.6C139.449 31.256 138.969 30.1787 138.031 29.368C137.092 28.5573 135.929 28.152 134.543 28.152C133.284 28.152 132.207 28.5573 131.311 29.368C130.415 30.1573 129.881 31.2347 129.711 32.6H139.471ZM162.421 27.384C162.421 28.5147 162.154 29.5813 161.621 30.584C161.087 31.5867 160.234 32.408 159.061 33.048C157.887 33.6667 156.383 33.976 154.549 33.976H150.517V43H146.869V20.76H154.549C156.255 20.76 157.695 21.0587 158.869 21.656C160.063 22.232 160.949 23.0213 161.525 24.024C162.122 25.0267 162.421 26.1467 162.421 27.384ZM154.549 31C155.935 31 156.97 30.6907 157.653 30.072C158.335 29.432 158.677 28.536 158.677 27.384C158.677 24.952 157.301 23.736 154.549 23.736H150.517V31H154.549ZM169.548 19.32V43H165.9V19.32H169.548ZM190.306 25.368V43H186.658V40.92C186.082 41.6453 185.324 42.2213 184.386 42.648C183.468 43.0533 182.487 43.256 181.442 43.256C180.055 43.256 178.807 42.968 177.698 42.392C176.61 41.816 175.746 40.9627 175.106 39.832C174.487 38.7013 174.178 37.336 174.178 35.736V25.368H177.794V35.192C177.794 36.7707 178.188 37.9867 178.978 38.84C179.767 39.672 180.844 40.088 182.21 40.088C183.575 40.088 184.652 39.672 185.442 38.84C186.252 37.9867 186.658 36.7707 186.658 35.192V25.368H190.306ZM201.519 43.288C200.132 43.288 198.884 43.0427 197.775 42.552C196.687 42.04 195.823 41.3573 195.183 40.504C194.543 39.6293 194.201 38.6587 194.159 37.592H197.935C197.999 38.3387 198.351 38.968 198.991 39.48C199.652 39.9707 200.473 40.216 201.455 40.216C202.479 40.216 203.268 40.024 203.823 39.64C204.399 39.2347 204.687 38.7227 204.687 38.104C204.687 37.4427 204.367 36.952 203.727 36.632C203.108 36.312 202.116 35.96 200.751 35.576C199.428 35.2133 198.351 34.8613 197.519 34.52C196.687 34.1787 195.961 33.656 195.343 32.952C194.745 32.248 194.447 31.32 194.447 30.168C194.447 29.2293 194.724 28.376 195.279 27.608C195.833 26.8187 196.623 26.2 197.647 25.752C198.692 25.304 199.887 25.08 201.231 25.08C203.236 25.08 204.847 25.592 206.063 26.616C207.3 27.6187 207.961 28.9947 208.047 30.744H204.399C204.335 29.9547 204.015 29.3253 203.439 28.856C202.863 28.3867 202.084 28.152 201.103 28.152C200.143 28.152 199.407 28.3333 198.895 28.696C198.383 29.0587 198.127 29.5387 198.127 30.136C198.127 30.6053 198.297 31 198.639 31.32C198.98 31.64 199.396 31.896 199.887 32.088C200.377 32.2587 201.103 32.4827 202.063 32.76C203.343 33.1013 204.388 33.4533 205.199 33.816C206.031 34.1573 206.745 34.6693 207.343 35.352C207.94 36.0347 208.249 36.9413 208.271 38.072C208.271 39.0747 207.993 39.9707 207.439 40.76C206.884 41.5493 206.095 42.168 205.071 42.616C204.068 43.064 202.884 43.288 201.519 43.288Z" fill="#050F2A"/>
</svg>
